<?xml version="1.0" encoding="utf-8"?>
<!-- Generator: Adobe Illustrator 21.1.0, SVG Export Plug-In . SVG Version: 6.00 Build 0)  -->
<svg version="1.1" id="Layer_1" xmlns="http://www.w3.org/2000/svg" xmlns:xlink="http://www.w3.org/1999/xlink" x="0px" y="0px"
	 viewBox="0 0 150 150" style="enable-background:new 0 0 150 150;" xml:space="preserve">
<style type="text/css">
	.st0{fill:#0F357E;}
</style>
<title>01_Customer Service Center_blue</title>
<desc>Created with Sketch.</desc>
<g id="Page-1">
	<g id="_x30_1_x5F_Customer-Service-Center_x5F_blue" transform="translate(-59.000000, -33.000000)">
		
			<g id="g10" transform="translate(99.999998, 100.000002) scale(-1, 1) rotate(-180.000000) translate(-99.999998, -100.000002) translate(0.000000, 0.000005)">
			<g id="g12">
				<g id="g14-Clipped">
					<g id="path16">
					</g>
					<g id="g14">
						<g id="g20" transform="translate(58.666665, 25.333333)">
							<g transform="translate(0.729200, 1.086000)">
								<path id="path22" class="st0" d="M73,49.5c-1.6,1.6-3,3.6-4.2,5.7c-0.1,0.2-0.1,0.5,0.1,0.8l1.3,1.3l2.1,2.2l-5.9,5.9
									l-2.1-2.3l0,0l-1.6-1.6c-0.4-0.4-0.8-1.2-0.8-2.1c0-3,2.7-8.7,7.7-13.6c4.9-4.9,10.6-7.7,13.6-7.7c0.9,0,1.6,0.2,2.1,0.8
									l1.6,1.6l0,0l2.1,2.1l-6,6l-2.2-2l0,0l-1.4-1.2c-0.2-0.2-0.5-0.2-0.8-0.1C76.4,46.4,74.6,47.9,73,49.5L73,49.5z M69.2,76.7
									l4,6v-6H69.2z M73.2,70.2h3.3v3.6h2.2v2.9h-2.2v11.2h-2.8L66,76.7v-2.9h7.2V70.2z M57.2,77.8c-1.8-1.7-3.2-3.2-3.8-4.2
									s-1-2.2-1.2-3.4H64v3.2h-6.7c0.2,0.3,0.4,0.7,0.7,1s1,1,2.1,2s1.8,1.7,2.2,2.3c0.7,0.8,1.1,1.5,1.3,2.3
									c0.3,0.8,0.4,1.5,0.4,2.3c0,1.4-0.5,2.6-1.5,3.5c-1,1-2.4,1.4-4.1,1.4c-1.6,0-2.9-0.4-4-1.2c-1.1-0.8-1.6-2.2-1.8-4l3.4-0.3
									c0.1,1,0.3,1.7,0.8,2.1c0.4,0.4,1,0.7,1.6,0.7c0.8,0,1.3-0.2,1.6-0.7c0.4-0.4,0.7-1,0.7-1.7S60.5,81.7,60,81
									C59.7,80.2,58.7,79.2,57.2,77.8L57.2,77.8z M91.4,77.6c-1-2.5-1.4-5-1.5-7.5h3.3c0,1.5,0.2,3.4,0.8,5.3
									c0.5,2,1.3,3.8,2.3,5.5s2,3,2.9,4v2.5H87.4v-3.2h7.7C93.5,82.5,92.2,80.2,91.4,77.6L91.4,77.6z M86.2,88.1h-2.5l-4.4-18.3
									h2.5L86.2,88.1z M67.6,111.4h13.9v4.1H67.6V111.4z M105.3,106.5H43.9v12.3c0,1.5,1.2,2.7,2.7,2.7h55.9
									c1.5,0,2.7-1.2,2.7-2.7v-12.3H105.3z M105.3,29H43.9v73.3h61.3V29H105.3z M105.3,12.5c0-1.5-1.2-2.7-2.7-2.7h-56
									c-1.5,0-2.7,1.2-2.7,2.7v12.3h61.3V12.5H105.3z M102.7,125.6H46.5c-3.7-0.1-6.7-3.2-6.7-6.9V12.5c0-3.8,3-6.9,6.9-6.9h55.9
									c3.8,0,6.9,3,6.9,6.9v106.3C109.4,122.6,106.4,125.6,102.7,125.6L102.7,125.6z M74.6,12c2.8,0,5.2,2.4,5.2,5.2
									s-2.4,5.2-5.2,5.2c-2.9,0-5.2-2.4-5.2-5.2C69.4,14.4,71.8,12,74.6,12L74.6,12z"/>
							</g>
						</g>
					</g>
				</g>
			</g>
		</g>
	</g>
</g>
</svg>
