<?xml version="1.0" encoding="utf-8"?>
<!-- Generator: Adobe Illustrator 21.1.0, SVG Export Plug-In . SVG Version: 6.00 Build 0)  -->
<svg version="1.1" id="Layer_1" xmlns="http://www.w3.org/2000/svg" xmlns:xlink="http://www.w3.org/1999/xlink" x="0px" y="0px"
	 viewBox="0 0 150 150" style="enable-background:new 0 0 150 150;" xml:space="preserve">
<style type="text/css">
	.st0{fill:#0F357E;}
	.st1{fill:#FFFFFF;}
</style>
<title>02_Card Replacement_blue</title>
<desc>Created with Sketch.</desc>
<g id="Page-1">
	<g id="_x30_2_x5F_Card-Replacement_x5F_blue" transform="translate(-28.000000, -43.000000)">
		
			<g id="g10" transform="translate(99.999998, 100.000002) scale(-1, 1) rotate(-180.000000) translate(-99.999998, -100.000002) translate(0.000000, 0.000005)">
			<g id="g12">
				<g id="g14-Clipped">
					<g id="path16">
					</g>
					<g id="g14">
						<g transform="translate(27.999999, 38.666666)">
							<g id="g20" transform="translate(0.108133, 0.438133)">
								<path id="path22" class="st0" d="M115.3,62.9H22.1c-3.9,0-7.2-3.2-7.2-7.2V1.2c0-3.9,3.2-7.2,7.2-7.2h93.2
									c3.9,0,7.2,3.2,7.2,7.2v54.6C122.4,59.8,119.2,62.9,115.3,62.9 M134.8,32.1l-9.5,53.8c-0.6,3.5-3.7,5.9-7.1,5.9
									c-0.4,0-0.9,0-1.3-0.1L25.2,75.4c-3.9-0.6-6.6-4.4-5.8-8.3l0.3-1.6c0.8,0.1,1.5,0.3,2.4,0.3h93.2c5.5,0,10-4.4,10-10V23
									l3.8,0.6C132.8,24.5,135.4,28.1,134.8,32.1"/>
							</g>
							<polygon id="path24" class="st1" points="23.7,24.1 43.2,24.1 43.2,28.4 23.7,28.4 							"/>
							<g id="g26" transform="translate(10.573600, 49.804665)">
								<polygon id="path28" class="st1" points="27.5,0.3 27.5,0.3 13.2,0.3 13.2,0.3 13.2,-14.1 27.5,-14.1 								"/>
							</g>
							<polygon id="path30" class="st1" points="47.3,24.1 66.8,24.1 66.8,28.4 47.3,28.4 							"/>
							<polygon id="path32" class="st1" points="113.8,28.4 94.3,28.4 94.3,24.1 113.8,24.1 							"/>
							<polygon id="path34" class="st1" points="90.3,28.4 70.8,28.4 70.8,24.1 90.3,24.1 							"/>
							<g id="g36" transform="translate(102.903597, 10.247333)">
								<path id="path38" class="st1" d="M3.6-2.3C3.9-1.6,5,1.3,5,1.3s0.3,0.8,0.5,1.3l0.3-1.1c0,0,0.6-3.2,0.9-3.8
									C6.6-2.3,3.6-2.3,3.6-2.3z M8,6.2H5.3c-0.9,0-1.5-0.3-1.9-1.1L-1.9-7h3.8c0,0,0.6,1.6,0.8,2c0.4,0,4,0,4.7,0
									c0.1-0.5,0.4-2,0.4-2h3.1L8,6.2z"/>
							</g>
							<g id="g40" transform="translate(90.307331, 10.083333)">
								<path id="path42" class="st1" d="M7.9,1c-1.3,0.6-2,1-2,1.6c0,0.5,0.6,1.1,2,1.1c1.1,0,2-0.3,2.6-0.5h0.4l0.5,2.9
									c-0.7,0.2-1.7,0.5-3.2,0.5c-3.6,0-6.1-1.8-6.1-4.4c0-1.9,1.8-2.9,3.2-3.6s1.9-1,1.9-1.6c0-0.9-1.1-1.3-2.1-1.3
									C3.6-4.3,2.9-4,1.6-3.6L1.1-3.4L0.6-6.3c0.9-0.4,2.4-0.8,4-0.8c3.8,0,6.2,1.8,6.3,4.5C10.9-1,9.9,0.2,7.9,1"/>
							</g>
							<g id="g44" transform="translate(64.429732, 11.057333)">
								<path id="path46" class="st1" d="M17.7,5.4l-3.5-9l-0.4,1.9l-1.3,6.1c-0.3,0.9-0.9,1.2-1.6,1.2H5.1V5.3
									c1.4-0.4,2.6-0.9,3.8-1.4l3.2-11.5h3.8l5.6,13.2h-3.8C17.7,5.6,17.7,5.4,17.7,5.4z"/>
							</g>
							<g id="g48" transform="translate(84.025998, 11.338533)">
								<polygon id="path50" class="st1" points="1.1,-8.1 4.6,-8.1 6.9,5.1 3.4,5.1 								"/>
							</g>
						</g>
					</g>
				</g>
			</g>
		</g>
	</g>
</g>
</svg>
