<?xml version="1.0" encoding="utf-8"?>
<!-- Generator: Adobe Illustrator 21.1.0, SVG Export Plug-In . SVG Version: 6.00 Build 0)  -->
<svg version="1.1" id="Layer_1" xmlns="http://www.w3.org/2000/svg" xmlns:xlink="http://www.w3.org/1999/xlink" x="0px" y="0px"
	 viewBox="0 0 150 150" style="enable-background:new 0 0 150 150;" xml:space="preserve">
<style type="text/css">
	.st0{fill:#0F357E;}
	.st1{fill:#FFFFFF;}
</style>
<title>04_Travel Assistance_blue</title>
<desc>Created with Sketch.</desc>
<g id="Page-1">
	<g id="_x30_4_x5F_Travel-Assistance_x5F_blue" transform="translate(-40.571429, -26.000000)">
		
			<g id="g10" transform="translate(99.999998, 100.000002) scale(-1, 1) rotate(-180.000000) translate(-99.999998, -100.000002) translate(0.000000, 0.000005)">
			<g id="g12">
				<g id="g14-Clipped">
					<g id="path16">
					</g>
					<g id="g14">
						<g transform="translate(38.666666, 23.999999)">
							<g id="g20" transform="translate(0.817733, 0.908800)">
								<path id="path22" class="st0" d="M109.4,33.8c-4.3,2.5-8.9,4.6-13.8,6.2c2.3,6.4,3.7,13.2,3.9,20.4H120
									C119.6,50.2,115.6,40.9,109.4,33.8L109.4,33.8z M83.2,19.1C87.6,24,91.3,29.7,94,35.8c4.3-1.3,8.5-3.1,12.3-5.3
									C100.1,24.7,92,20.6,83.2,19.1L83.2,19.1z M76.6,18.5c-0.1,0-0.2,0-0.4,0c-0.1,0-0.2,0-0.4,0c-5.4,5.2-10,11.6-13.2,18.6
									c4.3,1,8.9,1.5,13.5,1.5c4.7,0,9.3-0.5,13.6-1.5C86.5,30.1,82.1,23.8,76.6,18.5L76.6,18.5z M46,30.6c3.8,2.2,8.1,4,12.4,5.3
									C61,29.7,64.8,24,69.2,19.1C60.3,20.6,52.3,24.7,46,30.6L46,30.6z M32.4,60.3h20.5c0.2-7.1,1.6-13.9,3.9-20.3
									c-4.8-1.5-9.5-3.6-13.8-6.2C36.9,41,32.9,50.2,32.4,60.3L32.4,60.3z M42.5,90.3c4.3-2.6,9.1-4.8,14-6.4
									c-2.1-6.2-3.4-12.6-3.6-19.5H32.4C32.9,74.3,36.6,83.3,42.5,90.3L42.5,90.3z M95.3,60.3c-0.2-6.8-1.6-13.2-3.9-19.2
									c-4.9,1.2-10.1,1.8-15.3,1.8c-5.2,0-10.3-0.6-15.1-1.8c-2.2,6-3.6,12.4-3.9,19.2H95.3z M116.5,88.8l-2.9-3.5
									c3.7-6.2,6.1-13.2,6.5-20.8H99.6c0,1-0.1,1.9-0.2,2.8h-4.3c0.1-0.9,0.1-1.9,0.2-2.8H57.1c0.2,6.4,1.4,12.5,3.4,18.3
									c4.9-1.2,10.2-1.8,15.4-1.8l0,0c2.5,0,5.1,0.2,7.6,0.4l-3.4,4c-1.4-0.1-2.7-0.2-4.1-0.2c-4.7,0-9.4,0.5-13.8,1.6
									c2.1,4.8,4.9,9.4,8.2,13.4c-0.6,1.7-1,3.5-1.2,5.3c-4.6-5.2-8.5-11.2-11.2-17.6c-4.4,1.4-8.7,3.2-12.6,5.5
									c6.4,6.3,14.6,10.6,23.8,12.1c-0.1,1.1-0.2,2.2-0.2,3.3c0,0.4,0,0.7,0,1.1c-23.2-3.4-41-23.5-41-47.7
									c0-25.9,20.5-47.1,46.1-48.2l0,0l0,0c0.7,0,1.3,0,2,0c0.7,0,1.4,0,2,0l0,0l0,0c25.5,1.2,46,22.4,46,48.3
									C124.4,72.2,121.5,81.3,116.5,88.8L116.5,88.8z M97,69.9l19.1,22.7c3.7,4.4,6.1,10.1,6.1,16.3c0,13.9-11.3,25.2-25.2,25.2
									s-25.3-11.3-25.3-25.2c0-6.3,2.3-12,6.1-16.4L97,69.9z"/>
							</g>
							<g id="g24" transform="translate(79.079465, 99.484398)">
								<path id="path26" class="st1" d="M22.1-0.9v17.1h-6.5l0,0h-2.4v-3.7h2.4V-0.9h-2.5v-3.5h2.5l0,0h6.5l0,0h2.1v3.5
									C24.2-0.9,22.1-0.9,22.1-0.9z M18.9,18.8c2.1,0,3.4,1.4,3.4,3.2s-1.3,3.2-3.4,3.2s-3.4-1.4-3.4-3.2
									C15.5,20.2,16.9,18.8,18.9,18.8L18.9,18.8z"/>
							</g>
						</g>
					</g>
				</g>
			</g>
		</g>
	</g>
</g>
</svg>
