<?xml version="1.0" encoding="utf-8"?>
<!-- Generator: Adobe Illustrator 21.1.0, SVG Export Plug-In . SVG Version: 6.00 Build 0)  -->
<svg version="1.1" id="Layer_1" xmlns="http://www.w3.org/2000/svg" xmlns:xlink="http://www.w3.org/1999/xlink" x="0px" y="0px"
	 viewBox="0 0 150 150" style="enable-background:new 0 0 150 150;" xml:space="preserve">
<style type="text/css">
	.st0{fill:#0F357E;}
	.st1{fill:#FFFFFF;}
</style>
<title>05_Price Protection Insurance_blue</title>
<desc>Created with Sketch.</desc>
<g id="Page-1">
	<g id="_x30_5_x5F_Price-Protection-Insurance_x5F_blue" transform="translate(-27.857143, -28.000000)">
		
			<g id="g10" transform="translate(99.999998, 100.000002) scale(-1, 1) rotate(-180.000000) translate(-99.999998, -100.000002) translate(0.000000, 0.000005)">
			<g id="g12">
				<g id="g14-Clipped">
					<g id="path16">
					</g>
					<g id="g14">
						<g transform="translate(26.666666, 25.333333)">
							<g id="g20" transform="translate(0.815067, 0.805333)">
								<path id="path22" class="st0" d="M77.9,114l-27.7-1.8l-0.1-0.1l-15.5,15.5c-2.2,2.2-5.1,3.3-8,3.3s-5.8-1.1-8-3.3
									c-2.2-2.2-3.3-5-3.3-8s1.2-5.8,3.3-8L35,95.4c4.4-4.4,11.5-4.4,15.9,0c1.3,1.3,2.2,2.7,2.7,4.4c-1.9,0.6-4.2,0.2-5.7-1.3
									l0,0c-1.3-1.3-3-2-5-2c-1.8,0-3.7,0.8-5,2l-16.3,16.3c-1.3,1.3-2,3-2,5c0,1.8,0.8,3.7,2,5c1.3,1.3,3,2,5,2
									c1.8,0,3.7-0.8,5-2l15.5-15.7l-8.3-8.3l0.8-0.8c0.9-0.9,2-1.4,3.3-1.4c0.6,0,1.2,0.1,1.7,0.3c0.3,0.5,0.6,1.1,1.2,1.5
									c1.4,1.4,3.2,2.2,5.2,2.2c1.9,0,3.8-0.8,5.2-2.2c1.4-1.4,2.2-3.2,2.2-5.2c0-1.9-0.8-3.8-2.2-5.2c-1.4-1.4-3.2-2.2-5.2-2.2
									c-1.9,0-3.8,0.8-5.1,2.2c-1-0.2-1.9-0.3-2.9-0.3c-3.3,0-6.6,1.2-9,3.4l-1.6-24.8l57.5-57.4l45.6,45.6L77.9,114z"/>
							</g>
							<g id="g24" transform="translate(57.161465, 38.677066)">
								<path id="path26" class="st1" d="M40.6,6.8c-5.3-3.1-12-2.6-16.3,1.7c-0.4,0.4-0.9,1-1.3,1.5l5.9,4.3
									c0.2-0.2,0.3-0.4,0.5-0.6c2.3-2.3,6.2-2,8.8,0.5s2.9,6.6,0.5,8.8c-1,1-2.2,1.5-3.6,1.5c-2.7,0-6.2-1.3-9.3-2.5L25,21.8
									c-6.9-2.4-12,1.1-14,3.6C7.8,28.7,7.1,33.7,9.1,38l-3.4,3.4l5.4,5.3l3.1-3.1c4.5,2.7,10.2,2.2,13.8-1.4L22.8,37
									c-1.5,1.5-4.2,1.3-5.9-0.4c-1.7-1.7-1.9-4.4-0.4-5.9l0.3-0.3c0.3-0.4,2.4-2.5,6-1.3l0.6,0.2c3.6,1.3,7.9,2.9,12,2.9h0.1
									c3.2-0.1,6.2-1.4,8.5-3.7c4.3-4.3,4.8-11,1.7-16.3L49,8.9l-5-5.2L40.6,6.8z"/>
							</g>
						</g>
					</g>
				</g>
			</g>
		</g>
	</g>
</g>
</svg>
