<?xml version="1.0" encoding="utf-8"?>
<!-- Generator: Adobe Illustrator 21.1.0, SVG Export Plug-In . SVG Version: 6.00 Build 0)  -->
<svg version="1.1" id="Layer_1" xmlns="http://www.w3.org/2000/svg" xmlns:xlink="http://www.w3.org/1999/xlink" x="0px" y="0px"
	 viewBox="0 0 150 150" style="enable-background:new 0 0 150 150;" xml:space="preserve">
<style type="text/css">
	.st0{fill:#0F357E;}
	.st1{fill:#FFFFFF;}
</style>
<title>06_Purchase Protection Insurance_blue</title>
<desc>Created with Sketch.</desc>
<g id="Page-1">
	<g id="_x30_6_x5F_Purchase-Protection-Insurance_x5F_blue" transform="translate(-46.142857, -26.000000)">
		
			<g id="g10" transform="translate(99.999998, 100.000002) scale(-1, 1) rotate(-180.000000) translate(-99.999998, -100.000002) translate(0.000000, 0.000005)">
			<g id="g12">
				<g id="g14-Clipped">
					<g id="path16">
					</g>
					<g id="g14">
						<g transform="translate(45.333332, 25.333333)">
							<g id="g20" transform="translate(1.317733, 0.622400)">
								<path id="path22" class="st0" d="M98.6,84.3c-2.7,0-4.8,2.2-4.8,4.8c0,1.9,1.2,3.6,2.8,4.4V89c0-1.1,0.9-2,2-2s2,0.9,2,2
									v4.5c1.7-0.8,2.8-2.4,2.8-4.4C103.4,86.5,101.3,84.3,98.6,84.3L98.6,84.3z M50.6,84.3c-2.7,0-4.8,2.2-4.8,4.8
									c0,1.9,1.2,3.6,2.8,4.4V89c0-1.1,0.9-2,2-2s2,0.9,2,2v4.5c1.7-0.8,2.8-2.4,2.8-4.4C55.4,86.5,53.2,84.3,50.6,84.3L50.6,84.3
									z M52.6,103.2h44.1v-4.4H52.6V103.2z M74.6,128.9c11.2,0,20.4-8.4,21.8-19.2H52.8C54.2,120.5,63.4,128.9,74.6,128.9
									L74.6,128.9z M113.6,98.8h-12.9v4.4h12l-3.9,6.6h-8.3C99.1,122.8,88,133,74.6,133s-24.4-10.2-25.9-23.2h-8.3l-3.9-6.6h12
									v-4.4H35.6L31.2,13h86.6L113.6,98.8z"/>
							</g>
							<g id="g24" transform="translate(42.528666, 25.877599)">
								<path id="path26" class="st1" d="M43.1,34.9c0.2,5.2-3.9,9.5-9,9.7c-5.2,0.2-9.5-3.9-9.7-9c-0.1-3.8,2-7.1,5.2-8.7L27.8,10
									c-0.1-1,0.7-1.9,1.7-1.9h8.6c1,0,1.8,0.9,1.7,1.9L38,27C40.9,28.4,43,31.4,43.1,34.9"/>
							</g>
						</g>
					</g>
				</g>
			</g>
		</g>
	</g>
</g>
</svg>
