<?xml version="1.0" encoding="utf-8"?>
<!-- Generator: Adobe Illustrator 21.1.0, SVG Export Plug-In . SVG Version: 6.00 Build 0)  -->
<svg version="1.1" id="Layer_1" xmlns="http://www.w3.org/2000/svg" xmlns:xlink="http://www.w3.org/1999/xlink" x="0px" y="0px"
	 viewBox="0 0 150 150" style="enable-background:new 0 0 150 150;" xml:space="preserve">
<style type="text/css">
	.st0{fill:#0F357E;}
	.st1{fill:#FFFFFF;}
</style>
<title>07_Extender Warranty  Insurance_blue</title>
<desc>Created with Sketch.</desc>
<g id="Page-1">
	<g id="_x30_7_x5F_Extender-Warranty--Insurance_x5F_blue" transform="translate(-42.428571, -26.000000)">
		
			<g id="g10" transform="translate(99.999998, 100.000002) scale(-1, 1) rotate(-180.000000) translate(-99.999998, -100.000002) translate(0.000000, 0.000005)">
			<g id="g12">
				<g id="g14-Clipped">
					<g id="path16">
					</g>
					<g id="g14">
						<g transform="translate(41.333332, 25.333333)">
							<g id="g20" transform="translate(1.169333, 0.545600)">
								<path id="path22" class="st0" d="M67.1,37.8c-0.3,0-0.6,0-1,0.1c-2.7,0.5-4.3,2.7-5.5,4.5c-0.4,0.6-1.1,1.5-1.4,1.8l0,0
									c-0.5,0-1.5-0.2-2.3-0.5C55.7,43.4,54.3,43,53,43c-1.2,0-2.2,0.3-3.1,0.8c-1,0.6-1.7,1.4-2.2,2.3l-2.5-4.4l-9.1-15.8l15.4,1
									l6.9-13.8l9.1,15.8l6.7,11.7v0.5c-0.5-0.3-1-0.6-1.4-0.9C71.2,39.1,69.3,37.8,67.1,37.8L67.1,37.8z M102,46.2
									c-0.5-0.9-1.2-1.7-2.2-2.3c-0.9-0.5-1.9-0.8-3.1-0.8c-1.4,0-2.7,0.4-4,0.7c-0.8,0.2-1.8,0.5-2.3,0.5l0,0
									c-0.4-0.3-1-1.2-1.4-1.8c-1.3-1.8-2.8-4-5.5-4.5c-0.3-0.1-0.6-0.1-0.9-0.1c-2.2,0-4,1.3-5.7,2.4c-0.4,0.3-0.9,0.6-1.4,0.9
									v-0.5L82.2,29l9.1-15.8L98.2,27l15.4-1l-9.1,15.8L102,46.2z M74.9,52.4c-19.2,0-34.8,15.6-34.8,34.8s15.6,34.8,34.8,34.8
									s34.8-15.6,34.8-34.8S94.1,52.4,74.9,52.4L74.9,52.4z M116.6,79.8c0.4,2.5,5,4.7,5,7.4c0,2.6-4.5,4.8-5,7.4
									c-0.5,2.6,3,6.2,2.2,8.6c-0.9,2.5-5.9,3-7.2,5.2c-1.3,2.3,0.7,6.9-0.9,8.8c-1.7,2-6.6,0.8-8.5,2.4c-2,1.7-1.6,6.7-3.9,8
									c-1.2,0.7-2.9,0.2-4.6-0.2c-1.5-0.4-3.1-0.8-4.3-0.4c-2.4,0.9-3.8,5.7-6.4,6.2c-0.1,0-0.3,0-0.4,0c-2.4,0-5.2-3.7-7.7-3.7
									c-2.6,0-5.6,4.1-8.1,3.6c-2.6-0.5-4-5.3-6.4-6.2c-1.2-0.4-2.7,0-4.3,0.4c-1.7,0.5-3.4,0.9-4.6,0.2c-2.2-1.3-1.9-6.3-3.9-8
									c-2-1.7-6.9-0.5-8.5-2.4c-1.7-2,0.4-6.6-0.9-8.8c-1.3-2.2-6.3-2.8-7.2-5.2c-0.9-2.4,2.6-6,2.2-8.6c-0.4-2.5-5-4.7-5-7.4
									c0-2.6,4.5-4.9,5-7.4c0.5-2.6-3-6.2-2.2-8.6c0.9-2.5,5.9-3,7.2-5.2c1.3-2.2-0.7-6.9,0.9-8.8c1.7-2,6.6-0.8,8.5-2.4
									c2-1.7,1.6-6.7,3.9-8c1.2-0.7,2.9-0.2,4.6,0.2c1.6,0.4,3.1,0.8,4.3,0.4c2.4-0.9,3.8-5.7,6.4-6.2c2.5-0.4,5.5,3.6,8.1,3.6
									s5.6-4.1,8.1-3.6c2.6,0.5,4,5.3,6.4,6.2c1.2,0.4,2.7,0,4.3-0.4c1.7-0.5,3.4-0.9,4.6-0.2c2.3,1.3,1.9,6.3,3.9,8
									c2,1.7,6.9,0.4,8.5,2.4c1.7,2-0.4,6.6,0.9,8.8s6.3,2.8,7.2,5.2C119.6,73.6,116.1,77.2,116.6,79.8L116.6,79.8z M74.9,118.7
									c-17.4,0-31.6-14.2-31.6-31.6s14.2-31.6,31.6-31.6s31.6,14.2,31.6,31.6S92.3,118.7,74.9,118.7L74.9,118.7z"/>
							</g>
							<g id="g24" transform="translate(38.596399, 71.992132)">
								<polygon id="path26" class="st1" points="53.6,13.7 40.1,13.7 40.1,0.2 34.8,0.2 34.8,13.7 21.3,13.7 21.3,19 34.8,19 
									34.8,32.4 40.1,32.4 40.1,19 53.6,19 								"/>
							</g>
						</g>
					</g>
				</g>
			</g>
		</g>
	</g>
</g>
</svg>
