<?xml version="1.0" encoding="utf-8"?>
<!-- Generator: Adobe Illustrator 21.1.0, SVG Export Plug-In . SVG Version: 6.00 Build 0)  -->
<svg version="1.1" id="Layer_1" xmlns="http://www.w3.org/2000/svg" xmlns:xlink="http://www.w3.org/1999/xlink" x="0px" y="0px"
	 viewBox="0 0 150 150" style="enable-background:new 0 0 150 150;" xml:space="preserve">
<style type="text/css">
	.st0{fill:#0F357E;}
	.st1{fill:#FFFFFF;}
</style>
<title>08_Auto Rental Insurance_blue</title>
<desc>Created with Sketch.</desc>
<g id="Page-1">
	<g id="_x30_8_x5F_Auto-Rental-Insurance_x5F_blue" transform="translate(-24.714286, -66.000000)">
		
			<g id="g10" transform="translate(99.999998, 100.000002) scale(-1, 1) rotate(-180.000000) translate(-99.999998, -100.000002) translate(0.000000, 0.000005)">
			<g id="g12">
				<g id="g14-Clipped">
					<g id="path16">
					</g>
					<g id="g14">
						<g transform="translate(23.999999, 25.333333)">
							<g id="g20" transform="translate(0.860667, 0.539067)">
								<path id="path22" class="st0" d="M114,38H74.9h-39c1.6,6.4,3.4,11.7,4.8,15.8c1.3,3.7,2.4,6.3,2.9,7.6c0,0,0,0.1,0.1,0.2
									c0.6,1.1,4.5,5.1,31.3,5.1h0.1c30.6,0,31.3-5.3,31.4-5.4C107.3,58.6,111,50.1,114,38L114,38L114,38 M134.8,31.1L134.8,31.1
									c0,0.1-0.1,0.2-0.1,0.3l-1.7,4.8l0,0c-0.7,2-2.6,3.4-4.8,3.6l0,0h-5.1c-3.7,10.5-8.2,23-9.6,26c-2.1,4.6-8.7,6.7-12.3,7.7
									c0,0-6.1,2.3-26.3,2.3h-0.1c-20.2,0-26.3-2.3-26.3-2.3c-3.6-1-10.2-3.1-12.3-7.7c-1.3-2.9-5.9-15.5-9.6-26h-5.1l0,0
									c-2.2-0.1-4.1-1.6-4.8-3.6l0,0L15,31.4c0-0.1-0.1-0.2-0.1-0.2l0,0l0,0c-0.1-0.3-0.1-0.5-0.1-0.8c0-1.5,1.2-2.7,2.7-2.7H25
									c-2-0.8-3.3-2.8-3.3-5v-0.1l0,0V1.2h2.6V-4c0-2.7,2-5,4.7-5.4v-0.1h12.1c3,0,5.5,2.4,5.5,5.5v5.2H103V-4c0-2.7,2-5,4.7-5.4
									v-0.1h12.1c3,0,5.5,2.4,5.5,5.5v5.2h2.6v21.1l0,0v0.1c0,2.3-1.4,4.2-3.3,5h7.5c1.5,0,2.7,1.2,2.7,2.7
									C135,30.5,134.9,30.8,134.8,31.1"/>
							</g>
							<g id="g24" transform="translate(49.501332, 23.307333)">
								<path id="path26" class="st1" d="M46.7-6c-3.8-4.7-11.6-7.7-20.4-7.7c-8.7,0-16.6,2.9-20.4,7.6C5.2-5.2,5.4-4,6.2-3.3
									C7.1-2.6,8.3-2.7,9-3.6c3.1-3.8,9.9-6.2,17.3-6.2c7.5,0,14.3,2.4,17.3,6.2c0.7,0.8,1.9,1,2.8,0.3C47.3-4,47.4-5.2,46.7-6"/>
							</g>
							<g id="g28" transform="translate(27.183599, 38.354132)">
								<path id="path30" class="st1" d="M16-17.6c-3,0-5.4,2.4-5.4,5.4S13-6.8,16-6.8s5.4-2.4,5.4-5.4S19-17.6,16-17.6"/>
							</g>
							<g id="g32" transform="translate(110.010397, 37.156266)">
								<path id="path34" class="st1" d="M-7-11c0,3,2.4,5.4,5.4,5.4S3.8-8,3.8-11s-2.4-5.4-5.4-5.4S-7-14-7-11"/>
							</g>
						</g>
					</g>
				</g>
			</g>
		</g>
	</g>
</g>
</svg>
