<?xml version="1.0" encoding="utf-8"?>
<!-- Generator: Adobe Illustrator 21.1.0, SVG Export Plug-In . SVG Version: 6.00 Build 0)  -->
<svg version="1.1" id="Layer_1" xmlns="http://www.w3.org/2000/svg" xmlns:xlink="http://www.w3.org/1999/xlink" x="0px" y="0px"
	 viewBox="0 0 150 150" style="enable-background:new 0 0 150 150;" xml:space="preserve">
<style type="text/css">
	.st0{fill:#0F357E;}
	.st1{fill:#FFFFFF;}
</style>
<title>09_Travel Accident Insurance_blue</title>
<desc>Created with Sketch.</desc>
<g id="Page-1">
	<g id="_x30_9_x5F_Travel-Accident-Insurance_x5F_blue" transform="translate(-27.000000, -44.000000)">
		
			<g id="g10" transform="translate(99.999998, 100.000002) scale(-1, 1) rotate(-180.000000) translate(-99.999998, -100.000002) translate(0.000000, 0.000005)">
			<g id="g12">
				<g id="g14-Clipped">
					<g id="path16">
					</g>
					<g id="g14">
						<g transform="translate(26.666666, 25.333333)">
							<g id="g20" transform="translate(0.080667, 0.385467)">
								<path id="path22" class="st0" d="M113.8,22.2c-5.6,0-10-4.5-10-10s4.5-10,10-10c5.6,0,10.1,4.5,10.1,10
									C123.8,17.7,119.3,22.2,113.8,22.2L113.8,22.2z M40.7,22.2c-5.6,0-10-4.5-10-10c0-5.6,4.5-10,10-10s10,4.5,10,10
									C50.8,17.7,46.3,22.2,40.7,22.2L40.7,22.2z M86.1,90.8H64.4v8.6H86L86.1,90.8L86.1,90.8z M135.2,23.4L133,79.8
									c-0.2,6-5.4,11-11.4,11H94.8v10.7c0,3.7-3,6.8-6.8,6.8H62.4c-3.7,0-6.8-3-6.8-6.8V90.8H28.9c-6,0-11.2-4.9-11.4-11
									l-2.2-56.4c-0.2-6,4.5-10.9,10.5-11c0.1,8.1,6.8,14.7,15,14.7s14.8-6.6,15-14.7h43.1c0.1,8.1,6.8,14.7,15,14.7
									c7.9,0,14.4-6.2,14.9-13.9C132.7,14.9,135.4,18.8,135.2,23.4L135.2,23.4z"/>
							</g>
							<g id="g24" transform="translate(40.002666, 29.065066)">
								<path id="path26" class="st1" d="M35.3-3.7C20.6-3.7,8.6,8.3,8.6,23s12,26.7,26.7,26.7C50,49.6,62,37.7,62,23
									S50-3.7,35.3-3.7"/>
							</g>
							<g id="g28" transform="translate(55.059865, 43.934266)">
								<polygon id="path30" class="st0" points="25,22.3 15.6,22.3 15.6,12.8 6.1,12.8 6.1,3.4 15.6,3.4 15.6,-6.1 25,-6.1 25,3.4 
									34.4,3.4 34.4,12.8 25,12.8 								"/>
							</g>
						</g>
					</g>
				</g>
			</g>
		</g>
	</g>
</g>
</svg>
