<?xml version="1.0" encoding="utf-8"?>
<!-- Generator: Adobe Illustrator 21.1.0, SVG Export Plug-In . SVG Version: 6.00 Build 0)  -->
<svg version="1.1" id="Layer_1" xmlns="http://www.w3.org/2000/svg" xmlns:xlink="http://www.w3.org/1999/xlink" x="0px" y="0px"
	 viewBox="0 0 150 150" style="enable-background:new 0 0 150 150;" xml:space="preserve">
<style type="text/css">
	.st0{fill:#0F357E;}
	.st1{fill:#FFFFFF;}
</style>
<title>10_Emergency Medical Compensation_blue</title>
<desc>Created with Sketch.</desc>
<g id="Page-1">
	<g id="_x31_0_x5F_Emergency-Medical-Compensation_x5F_blue" transform="translate(-33.285714, -33.000000)">
		
			<g id="g10" transform="translate(99.999998, 100.000002) scale(-1, 1) rotate(-180.000000) translate(-99.999998, -100.000002) translate(0.000000, 0.000005)">
			<g id="g12" transform="translate(32.104133, 32.701199)">
				<polygon id="path14" class="st0" points="136.1,75.5 120.2,103.1 92.1,86.9 92.1,119.3 60.2,119.3 60.2,86.9 32.2,103.1 
					16.2,75.5 44.3,59.3 16.2,43.1 32.2,15.5 60.2,31.7 60.2,-0.7 92.1,-0.7 92.1,31.7 120.2,15.5 136.1,43.1 108.1,59.3 				"/>
			</g>
			<g id="g16">
				<g id="g18-Clipped">
					<g id="path20">
					</g>
					<g id="g18">
						<g id="g24" transform="translate(58.666665, 57.333332)">
							<g transform="translate(1.255200, 0.070267)">
								<path id="path26" class="st1" d="M54.3,15.5c-0.3-0.3-1.4-1.2-4.1-2.4l0.3,6.4C54.1,18.1,54.9,17.2,54.3,15.5 M40.6,31.2
									c0.2,1.9,1.3,2.7,2.2,3.1c0.6,0.3,1.2,0.5,1.9,0.7l0.3-8.1C41.9,28.1,40.4,29.3,40.6,31.2 M57.6,52.3c-2.5-3-4.8-4.4-6.2-5
									l0.1,3.2c0.8,0.9,1.4,2.2,1.4,3.6c0,3-2.2,5.3-5.1,5.3c-2.8,0-5.1-2.5-5.1-5.3c0-1.4,0.5-2.6,1.4-3.6l0.1-3.3
									c-1.4,0.7-3.5,2.1-6,5c-4.5,5.2-3.8-0.4-25.1-5.6c0,0,3.9-4.2,9-1.7c0,0,2.2-2.9,4.9-1.3c0,0,4.3-5.1,8.3-2.5
									c0,0,1.4-1.5,3.8-2.5H39c-3-1.5-4.7-3.9-5.1-6.8c-0.7-6,5.8-8.6,11.3-10.4l0.4-9.8c-1.4-0.5-3.1-0.9-5-1.4
									c-1.8-0.4-2.7-1.9-2.1-3.2c0.5-1,1.8-1.7,3.2-1.7c0.4,0,0.7,0,1.1,0.1c1.1,0.3,2.1,0.6,3.1,0.8l0.3-8.9h3.4L50,7.5
									c8,2.8,10.1,5.3,10.6,6.2l0.1,0.2c2.8,6.6-4.5,9.4-10,11.2L51,35.4c2.3-0.1,4.4-0.4,5.5-0.7c1.8-0.4,3.7,0.4,4.2,1.7
									s-0.5,2.6-2.1,3c1.3,0.8,2,1.7,2,1.7c4-2.6,8.3,2.4,8.3,2.4c2.6-1.5,4.9,1.3,4.9,1.3c5.1-2.4,9,1.7,9,1.7
									C61.4,51.9,62.1,57.5,57.6,52.3"/>
							</g>
						</g>
					</g>
				</g>
			</g>
		</g>
	</g>
</g>
</svg>
