<?xml version="1.0" encoding="utf-8"?>
<!-- Generator: Adobe Illustrator 21.1.0, SVG Export Plug-In . SVG Version: 6.00 Build 0)  -->
<svg version="1.1" id="Layer_1" xmlns="http://www.w3.org/2000/svg" xmlns:xlink="http://www.w3.org/1999/xlink" x="0px" y="0px"
	 viewBox="0 0 150 150" style="enable-background:new 0 0 150 150;" xml:space="preserve">
<style type="text/css">
	.st0{fill:#0F357E;}
	.st1{fill:#FFFFFF;}
</style>
<title>11_Baggage Delay Insurance_blue</title>
<desc>Created with Sketch.</desc>
<g id="Page-1">
	<g id="_x31_1_x5F_Baggage-Delay-Insurance_x5F_blue" transform="translate(-57.571429, -26.000000)">
		
			<g id="g10" transform="translate(99.999998, 100.000002) scale(-1, 1) rotate(-180.000000) translate(-99.999998, -100.000002) translate(0.000000, 0.000005)">
			<g id="g12">
				<g id="g14-Clipped">
					<g id="path16">
					</g>
					<g id="g14">
						<g transform="translate(57.333332, 25.333333)">
							<path id="path20" class="st0" d="M82.4,108.7H67.7V125h14.7V108.7z M104.7,108.7H87.8V125h1.4c2.4,0,4.3,1.9,4.3,4.3
								c0,2.4-1.9,4.3-4.3,4.3H60.9c-2.4,0-4.4-1.9-4.4-4.3c0-2.4,1.9-4.3,4.4-4.3h1.4v-16.2H45.4c-2.4,0-4.3-1.9-4.3-4.3V26.2
								c0-2.4,1.9-4.3,4.3-4.3h8.2c-0.3-0.7-0.4-1.4-0.4-2.2c0-3.3,2.7-6,6-6s6,2.7,6,6c0,0.8-0.2,1.5-0.4,2.2h20.7
								c-0.3-0.7-0.4-1.4-0.4-2.2c0-3.3,2.7-6,6-6s6,2.7,6,6c0,0.8-0.2,1.5-0.4,2.2h8.2c2.4,0,4.4,1.9,4.4,4.3v78.2
								C109,106.8,107.1,108.7,104.7,108.7L104.7,108.7z"/>
							<g id="g22" transform="translate(12.001333, 34.520799)">
								<path id="path24" class="st1" d="M63,6.4c-13.4,0-24.4,10.9-24.4,24.4c0,13.4,10.9,24.4,24.4,24.4
									c13.4,0,24.4-10.9,24.4-24.4C87.4,17.3,76.5,6.4,63,6.4"/>
							</g>
							<g id="g26" transform="translate(30.311199, 46.101599)">
								<path id="path28" class="st0" d="M42.3,9.7V4.3h5.4v5.4l0,0C47.7,9.7,42.3,9.7,42.3,9.7z M52,31.1c-1.7,1.5-4,2.3-6.9,2.3
									c-2.7,0-5-0.8-6.7-2.3c-1.7-1.5-2.6-3.4-2.8-5.5v-0.5l5.3-0.7l0.1,0.5c0.3,1.3,0.8,2.3,1.5,2.9s1.6,0.9,2.7,0.9
									c1.1,0,2-0.3,2.7-0.9c0.6-0.6,0.9-1.2,0.9-2c0-0.6-0.2-1.1-0.5-1.5c-0.2-0.2-0.7-0.8-2.4-2.1C44.4,21,43.5,20,43,19
									s-0.8-2.2-0.8-3.7c0-0.1,0-0.5,0-1.1v-0.5h5.4v0.5c0,1.5,0.1,2.2,0.3,2.5c0.1,0.3,0.6,0.9,1.7,1.8c2,1.7,3.3,3,3.9,4
									c0.6,1,1,2.1,1,3.3C54.6,27.7,53.7,29.6,52,31.1L52,31.1z"/>
							</g>
						</g>
					</g>
				</g>
			</g>
		</g>
	</g>
</g>
</svg>
