<?xml version="1.0" encoding="utf-8"?>
<!-- Generator: Adobe Illustrator 21.1.0, SVG Export Plug-In . SVG Version: 6.00 Build 0)  -->
<svg version="1.1" id="Layer_1" xmlns="http://www.w3.org/2000/svg" xmlns:xlink="http://www.w3.org/1999/xlink" x="0px" y="0px"
	 viewBox="0 0 150 150" style="enable-background:new 0 0 150 150;" xml:space="preserve">
<style type="text/css">
	.st0{fill:#0F357E;}
	.st1{fill:#FFFFFF;}
</style>
<title>12_Baggage Loss Insurance_blue</title>
<desc>Created with Sketch.</desc>
<g id="Page-1">
	<g id="_x31_2_x5F_Baggage-Loss-Insurance_x5F_blue" transform="translate(-57.857143, -26.000000)">
		
			<g id="g10" transform="translate(99.999998, 100.000002) scale(-1, 1) rotate(-180.000000) translate(-99.999998, -100.000002) translate(0.000000, 0.000005)">
			<g id="g12">
				<g id="g14-Clipped">
					<g id="path16">
					</g>
					<g id="g14">
						<g transform="translate(57.333332, 25.333333)">
							<path id="path20" class="st0" d="M82.7,108.7H68V125h14.7C82.7,125,82.7,108.7,82.7,108.7z M105,108.7H88.1V125h1.4
								c2.4,0,4.3,1.9,4.3,4.3c0,2.4-1.9,4.3-4.3,4.3H61.2c-2.4,0-4.4-1.9-4.4-4.3c0-2.4,1.9-4.3,4.4-4.3h1.4v-16.2H45.7
								c-2.4,0-4.3-1.9-4.3-4.3V26.2c0-2.4,1.9-4.3,4.3-4.3h8.2c-0.3-0.7-0.4-1.4-0.4-2.2c0-3.3,2.7-6,6-6s6,2.7,6,6
								c0,0.8-0.2,1.5-0.4,2.2h20.7c-0.3-0.7-0.4-1.4-0.4-2.2c0-3.3,2.7-6,6-6s6,2.7,6,6c0,0.8-0.2,1.5-0.4,2.2h8.2
								c2.4,0,4.4,1.9,4.4,4.3v78.2C109.3,106.8,107.4,108.7,105,108.7L105,108.7z"/>
							<g id="g22" transform="translate(12.001333, 34.520799)">
								<path id="path24" class="st1" d="M63.3,6.4c-13.4,0-24.4,10.9-24.4,24.4c0,13.4,10.9,24.4,24.4,24.4
									c13.4,0,24.4-10.9,24.4-24.4S76.8,6.4,63.3,6.4"/>
							</g>
							<g id="g26" transform="translate(39.815066, 54.251332)">
								<path id="path28" class="st0" d="M37.5,9.3v16.5h-4.3V6c0-0.7,0.4-1.4,1-1.8C34.6,4,35,3.8,35.4,3.8c0.3,0,0.6,0.1,0.9,0.2
									l12.5,5.5l-1.7,4L37.5,9.3z"/>
							</g>
						</g>
					</g>
				</g>
			</g>
		</g>
	</g>
</g>
</svg>
