<?xml version="1.0" encoding="utf-8"?>
<!-- Generator: Adobe Illustrator 21.1.0, SVG Export Plug-In . SVG Version: 6.00 Build 0)  -->
<svg version="1.1" id="Layer_1" xmlns="http://www.w3.org/2000/svg" xmlns:xlink="http://www.w3.org/1999/xlink" x="0px" y="0px"
	 viewBox="0 0 150 150" style="enable-background:new 0 0 150 150;" xml:space="preserve">
<style type="text/css">
	.st0{fill:#0F357E;}
	.st1{fill:#FFFFFF;}
</style>
<title>13_Missed Connection_blue</title>
<desc>Created with Sketch.</desc>
<g id="Page-1">
	<g id="_x31_3_x5F_Missed-Connection_x5F_blue" transform="translate(-28.142857, -27.000000)">
		
			<g id="g10" transform="translate(99.999998, 100.000002) scale(-1, 1) rotate(-180.000000) translate(-99.999998, -100.000002) translate(0.000000, 0.000005)">
			<g id="g12">
				<g id="g14-Clipped">
					<g id="path16">
					</g>
					<g id="g14">
						<g transform="translate(26.666666, 25.333333)">
							<g id="g20" transform="translate(1.257867, 1.283867)">
								<path id="path22" class="st0" d="M33.3,106.6c-4.2,0-7.7,3.4-7.7,7.7c0,4.2,3.4,7.7,7.7,7.7s7.7-3.4,7.7-7.7
									C41,110.1,37.5,106.6,33.3,106.6L33.3,106.6z M50,109.3c0.4,1.5,0.6,3,0.6,4.7c0,9.6-7.8,17.4-17.4,17.4
									s-17.4-7.8-17.4-17.4c0-1.6,0.2-3.2,0.6-4.7c0.2-0.6,0.4-1.2,0.6-1.7l0.5-1.2l3.6-6.5l0,0l1-1.9l5.6-10.3l5.6-10.3L49,106.3
									L50,109.3z M90.3,39.8h-0.2l0,0c-3.9,0-16.9,0.4-21.4,7.4c-2.6,4.1-2,10.1,1.7,18l0.3,0.6c5,10.3,5.5,18.7,1.6,25
									c-4.9,7.7-15.4,9.8-22.5,10.3l-3.5-6.5c4.7-0.1,16.3-0.9,20.5-7.4c2.6-4.1,2-10.1-1.7-18l-0.3-0.6c-5-10.3-5.5-18.7-1.6-25
									c5.7-9.1,18.8-10.5,26.5-10.5c0.2,0,0.4,0,0.6,0l0,0c0.9,0,2.2,0,3.7,0.1l-2.2,4.1L90.3,39.8z M110.9,85.1
									c-13.1,0-23.8-10.6-23.8-23.8c0-2.2,0.3-4.3,0.9-6.4c0.2-0.8,0.5-1.6,0.8-2.4l0.7-1.6l4.8-8.8l0,0l1.4-2.6l7.6-14.1
									l7.6-14.1L132.2,51l1.5,4c0.6,2,0.9,4.2,0.9,6.4C134.5,74.4,123.9,85.1,110.9,85.1L110.9,85.1z"/>
							</g>
							<g id="g24" transform="translate(100.031197, 45.167999)">
								<polygon id="path26" class="st1" points="20.3,3.3 12.1,9.3 3.8,3.3 7,13 -1.3,19.1 8.9,19.1 12.1,28.8 15.3,19.1 
									25.4,19.1 17.2,13 								"/>
							</g>
						</g>
					</g>
				</g>
			</g>
		</g>
	</g>
</g>
</svg>
