<?xml version="1.0" encoding="utf-8"?>
<!-- Generator: Adobe Illustrator 21.1.0, SVG Export Plug-In . SVG Version: 6.00 Build 0)  -->
<svg version="1.1" id="Layer_1" xmlns="http://www.w3.org/2000/svg" xmlns:xlink="http://www.w3.org/1999/xlink" x="0px" y="0px"
	 viewBox="0 0 150 150" style="enable-background:new 0 0 150 150;" xml:space="preserve">
<style type="text/css">
	.st0{fill:#0F357E;}
	.st1{fill:#FFFFFF;}
</style>
<title>14_Tirp Delay Insurance_blue</title>
<desc>Created with Sketch.</desc>
<g id="Page-1">
	<g id="_x31_4_x5F_Tirp-Delay-Insurance_x5F_blue" transform="translate(-62.428571, -34.000000)">
		
			<g id="g10" transform="translate(99.999998, 100.000002) scale(-1, 1) rotate(-180.000000) translate(-99.999998, -100.000002) translate(0.000000, 0.000005)">
			<g id="g12">
				<g id="g14-Clipped">
					<g id="path16">
					</g>
					<g id="g14">
						<g transform="translate(61.333332, 33.333333)">
							<g id="g20" transform="translate(1.332000, 0.421200)">
								<path id="path22" class="st0" d="M74.8,117.2c-18.5,0-33.5-15-33.5-33.5c0-3.1,0.4-6.1,1.2-9c0.3-1.1,0.7-2.3,1.2-3.5l1-2.2
									l3.9-7.1l0,0l26.3-48.6L105,69.2l2,5.4v0.1c0.8,2.9,1.2,5.9,1.2,9C108.3,102.2,93.2,117.2,74.8,117.2 M84.1,24.2L74.8,7
									l-9.3,17.2c-3.5-2.8-5.8-7-5.8-11.8c0-8.3,6.8-15.1,15.1-15.1s15.1,6.8,15.1,15.1C89.9,17.2,87.6,21.4,84.1,24.2"/>
							</g>
							<g id="g24" transform="translate(14.670533, 72.784532)">
								<path id="path26" class="st1" d="M61.4-9.5C49.7-9.5,40.3,0,40.3,11.6s9.5,21.1,21.1,21.1c11.7,0,21.1-9.5,21.1-21.1
									S73.1-9.5,61.4-9.5"/>
							</g>
							<g id="g28" transform="translate(36.251332, 87.544931)">
								<path id="path30" class="st0" d="M37.6,12.3V-7.6c0-0.7,0.4-1.4,1-1.8c0.4-0.2,0.8-0.4,1.2-0.4c0.3,0,0.6,0.1,0.9,0.2
									L53.3-4l-1.7,4L42-4.2v16.5H37.6z"/>
							</g>
						</g>
					</g>
				</g>
			</g>
		</g>
	</g>
</g>
</svg>
