<?xml version="1.0" encoding="utf-8"?>
<!-- Generator: Adobe Illustrator 21.1.0, SVG Export Plug-In . SVG Version: 6.00 Build 0)  -->
<svg version="1.1" id="Layer_1" xmlns="http://www.w3.org/2000/svg" xmlns:xlink="http://www.w3.org/1999/xlink" x="0px" y="0px"
	 viewBox="0 0 150 150" style="enable-background:new 0 0 150 150;" xml:space="preserve">
<style type="text/css">
	.st0{fill:#0F357E;}
	.st1{fill:#FFFFFF;}
</style>
<title>15_Cancelled Trip Insurance_blue</title>
<desc>Created with Sketch.</desc>
<g id="Page-1">
	<g id="_x31_5_x5F_Cancelled-Trip-Insurance_x5F_blue" transform="translate(-62.714286, -34.000000)">
		
			<g id="g10" transform="translate(99.999998, 100.000002) scale(-1, 1) rotate(-180.000000) translate(-99.999998, -100.000002) translate(0.000000, 0.000005)">
			<g id="g12">
				<g id="g14-Clipped">
					<g id="path16">
					</g>
					<g id="g14">
						<g transform="translate(61.333332, 33.333333)">
							<g id="g20" transform="translate(1.332000, 0.421200)">
								<path id="path22" class="st0" d="M75,117.2c-18.5,0-33.5-15-33.5-33.5c0-3.1,0.4-6.1,1.2-9c0.3-1.1,0.7-2.3,1.2-3.5l1-2.2
									l3.9-7.1l0,0L75,13.4l30.2,55.9l2,5.4v0.1c0.8,2.9,1.2,5.9,1.2,9C108.6,102.2,93.5,117.2,75,117.2 M84.4,24.2L75,7
									l-9.3,17.2c-3.5-2.8-5.8-7-5.8-11.8C60,4,66.7-2.8,75-2.8S90.1,4,90.1,12.3C90.1,17.2,87.9,21.4,84.4,24.2"/>
							</g>
							<g id="g24" transform="translate(14.670533, 72.784532)">
								<path id="path26" class="st1" d="M61.7-9.5C50-9.5,40.6,0,40.6,11.6s9.5,21.1,21.1,21.1c11.7,0,21.1-9.5,21.1-21.1
									S73.4-9.5,61.7-9.5"/>
							</g>
							<g id="g28" transform="translate(25.333333, 83.104131)">
								<polygon id="path30" class="st0" points="51,5.4 43.5,12.9 39.5,8.8 47,1.3 39.5,-6.2 43.5,-10.3 51,-2.8 58.5,-10.3 
									62.6,-6.2 55.1,1.3 62.6,8.8 58.5,12.9 								"/>
							</g>
						</g>
					</g>
				</g>
			</g>
		</g>
	</g>
</g>
</svg>
