<?xml version="1.0" encoding="utf-8"?>
<!-- Generator: Adobe Illustrator 21.1.0, SVG Export Plug-In . SVG Version: 6.00 Build 0)  -->
<svg version="1.1" id="Layer_1" xmlns="http://www.w3.org/2000/svg" xmlns:xlink="http://www.w3.org/1999/xlink" x="0px" y="0px"
	 viewBox="0 0 150 150" style="enable-background:new 0 0 150 150;" xml:space="preserve">
<style type="text/css">
	.st0{fill:#0F357E;}
	.st1{fill:#FFFFFF;}
</style>
<title>16_Insured Journey Insurance_blue</title>
<desc>Created with Sketch.</desc>
<g id="Page-1">
	<g id="_x31_6_x5F_Insured-Journey-Insurance_x5F_blue" transform="translate(-26.000000, -27.000000)">
		
			<g id="g10" transform="translate(99.999998, 100.000002) scale(-1, 1) rotate(-180.000000) translate(-99.999998, -100.000002) translate(0.000000, 0.000005)">
			<g id="g12">
				<g id="g14-Clipped">
					<g id="path16">
					</g>
					<g id="g14">
						<g transform="translate(25.333333, 26.666666)">
							<g id="g20" transform="translate(1.007867, 0.145867)">
								<path id="path22" class="st0" d="M56.8,11.7l35.8,14.7v14.8L56.8,57.9V11.7z M30,53.1c1.9,0,3.5-1.5,3.5-3.4
									s-1.6-3.4-3.5-3.4s-3.5,1.5-3.5,3.4S28.1,53.1,30,53.1L30,53.1z M14.7,27.2l37.7-15.5V58l-16-7.5l-1.8,4l17.8,8.3v19.4
									L14.7,97.6V27.2z M80.5,91.9l-23.7-9.7V62.7L92.6,46v33.6C88.6,82.8,84.2,86.9,80.5,91.9L80.5,91.9z M120,50.7
									c-1.9,0-3.5,1.5-3.5,3.4s1.6,3.4,3.5,3.4s3.5-1.5,3.5-3.4S122,50.7,120,50.7L120,50.7z M125.4,86
									c-8.2-8.4-17.4-13.1-18-13.4l-2-1l-2,1c-0.3,0.2-2.9,1.5-6.5,3.9V45.6l16.5,7.7l1.8-4L97,40.8V27.2l37.7-15.5v70.4L125.4,86
									z"/>
							</g>
							<g id="g24" transform="translate(76.489598, 79.295598)">
								<path id="path26" class="st0" d="M30-2.7c0,0,21.3,10.7,27.2,28.8c5.2,18.6-6.2,25.4-14.6,25.4c-5.4,0-10.3-2.8-12.6-7.2
									c-2.3,4.4-7.2,7.2-12.6,7.2c-8.5,0-19.8-6.8-14.6-25.4C8.7,8,30-2.7,30-2.7"/>
							</g>
							<g id="g28" transform="translate(99.992131, 99.239598)">
								<polygon id="path30" class="st1" points="-3.7,7.9 3.1,7.9 3.1,14.7 9.9,14.7 9.9,7.9 16.6,7.9 16.6,1.1 9.9,1.1 9.9,-5.7 
									3.1,-5.7 3.1,1.1 -3.7,1.1 								"/>
							</g>
						</g>
					</g>
				</g>
			</g>
		</g>
	</g>
</g>
</svg>
