<?xml version="1.0" encoding="utf-8"?>
<!-- Generator: Adobe Illustrator 23.0.3, SVG Export Plug-In . SVG Version: 6.00 Build 0)  -->
<svg version="1.1" id="Layer_1" xmlns="http://www.w3.org/2000/svg" xmlns:xlink="http://www.w3.org/1999/xlink" x="0px" y="0px"
	 viewBox="0 0 150 150" style="enable-background:new 0 0 150 150;" xml:space="preserve">
<style type="text/css">
	.st0{fill:#0F357E;}
	.st1{fill:#F7B600;}
	.st2{fill:#FFFFFF;}
</style>
<title>17_Visa Concierge_blue</title>
<desc>Created with Sketch.</desc>
<g id="Page-1">
	<g id="_x31_7_x5F_Visa-Concierge_x5F_blue" transform="translate(-26.285714, -48.000000)">
		
			<g id="g10" transform="translate(99.999998, 100.000002) scale(-1, 1) rotate(-180.000000) translate(-99.999998, -100.000002) translate(0.000000, 0.000005)">
			<g id="g12">
				<g id="g14-Clipped">
					<g id="path16">
					</g>
					<g id="g14">
						<g id="g20" transform="translate(25.333333, 38.666666)">
							<g transform="translate(1.076800, 0.203067)">
								<path id="path22" class="st0" d="M129.4,5.8H20.3l-5.4-5.7v-8h120v8L129.4,5.8z M124.7,19.8c0,27.3-22.1,49.5-49.5,49.5
									c-27.3,0-49.5-22.1-49.5-49.5v-9.7h98.9L124.7,19.8L124.7,19.8z M71.8,73.5c1.1,0.1,2.3,0.1,3.4,0.1s2.3,0,3.4-0.1v6.2h3.1
									v4.4h-13v-4.4h3.1V73.5z"/>
							</g>
						</g>
					</g>
				</g>
			</g>
		</g>
	</g>
</g>
<g id="g12_1_">
	<g id="g14-Clipped_1_">
		<g id="path16_1_">
		</g>
		<g id="g14_1_">
			<g transform="translate(41.333332, 25.333333)">
				<g id="g20_1_" transform="translate(1.169333, 0.545600)">
					<path id="path22_1_" class="st1" d="M74.5,19.9c-0.1,0-0.2,0-0.3,0c-0.9-0.2-1.4-0.9-1.8-1.5c-0.1-0.2-0.4-0.5-0.5-0.6l0,0
						c-0.2,0-0.5,0.1-0.8,0.2c-0.4,0.1-0.9,0.2-1.3,0.2c-0.4,0-0.7-0.1-1-0.3c-0.3-0.2-0.6-0.5-0.7-0.8l-0.8,1.5l-3,5.2l5.1-0.3
						l2.3,4.6l3-5.2l2.2-3.9v-0.2c-0.2,0.1-0.3,0.2-0.5,0.3C75.8,19.4,75.2,19.9,74.5,19.9L74.5,19.9z M86,17.1
						c-0.2,0.3-0.4,0.6-0.7,0.8c-0.3,0.2-0.6,0.3-1,0.3c-0.5,0-0.9-0.1-1.3-0.2c-0.3-0.1-0.6-0.2-0.8-0.2l0,0
						c-0.1,0.1-0.3,0.4-0.5,0.6c-0.4,0.6-0.9,1.3-1.8,1.5c-0.1,0-0.2,0-0.3,0c-0.7,0-1.3-0.4-1.9-0.8c-0.1-0.1-0.3-0.2-0.5-0.3v0.2
						l2.2,3.9l3,5.2l2.3-4.6l5.1,0.3l-3-5.2L86,17.1z M77.1,15c-6.4,0-11.5-5.2-11.5-11.5S70.7-8,77.1-8c6.4,0,11.5,5.2,11.5,11.5
						S83.4,15,77.1,15L77.1,15z M90.9,6c0.1-0.8,1.7-1.6,1.7-2.4c0-0.9-1.5-1.6-1.7-2.4c-0.2-0.9,1-2.1,0.7-2.8
						c-0.3-0.8-2-1-2.4-1.7c-0.4-0.8,0.2-2.3-0.3-2.9c-0.6-0.7-2.2-0.3-2.8-0.8c-0.7-0.6-0.5-2.2-1.3-2.6c-0.4-0.2-1-0.1-1.5,0.1
						c-0.5,0.1-1,0.3-1.4,0.1c-0.8-0.3-1.3-1.9-2.1-2.1c0,0-0.1,0-0.1,0c-0.8,0-1.7,1.2-2.5,1.2c-0.9,0-1.9-1.4-2.7-1.2
						c-0.9,0.2-1.3,1.8-2.1,2.1c-0.4,0.1-0.9,0-1.4-0.1c-0.6-0.2-1.1-0.3-1.5-0.1c-0.7,0.4-0.6,2.1-1.3,2.6
						c-0.7,0.6-2.3,0.2-2.8,0.8c-0.6,0.7,0.1,2.2-0.3,2.9c-0.4,0.7-2.1,0.9-2.4,1.7c-0.3,0.8,0.9,2,0.7,2.8
						c-0.1,0.8-1.7,1.6-1.7,2.4c0,0.9,1.5,1.6,1.7,2.4c0.2,0.9-1,2.1-0.7,2.8c0.3,0.8,2,1,2.4,1.7c0.4,0.7-0.2,2.3,0.3,2.9
						c0.6,0.7,2.2,0.3,2.8,0.8c0.7,0.6,0.5,2.2,1.3,2.6c0.4,0.2,1,0.1,1.5-0.1c0.5-0.1,1-0.3,1.4-0.1c0.8,0.3,1.3,1.9,2.1,2.1
						c0.8,0.1,1.8-1.2,2.7-1.2c0.9,0,1.9,1.4,2.7,1.2c0.9-0.2,1.3-1.8,2.1-2.1c0.4-0.1,0.9,0,1.4,0.1c0.6,0.2,1.1,0.3,1.5,0.1
						c0.8-0.4,0.6-2.1,1.3-2.6c0.7-0.6,2.3-0.1,2.8-0.8c0.6-0.7-0.1-2.2,0.3-2.9c0.4-0.7,2.1-0.9,2.4-1.7C91.9,8,90.7,6.8,90.9,6
						L90.9,6z M77.1-6.9c-5.8,0-10.5,4.7-10.5,10.5S71.3,14,77.1,14c5.8,0,10.5-4.7,10.5-10.5S82.8-6.9,77.1-6.9L77.1-6.9z"/>
				</g>
				<g id="g24" transform="translate(38.596399, 71.992132)">
					<polygon id="path26" class="st2" points="45,-67.2 40.5,-67.2 40.5,-62.8 38.8,-62.8 38.8,-67.2 34.3,-67.2 34.3,-69 38.8,-69 
						38.8,-73.4 40.5,-73.4 40.5,-69 45,-69 					"/>
				</g>
			</g>
		</g>
	</g>
</g>
</svg>
