<?xml version="1.0" encoding="utf-8"?>
<!-- Generator: Adobe Illustrator 21.1.0, SVG Export Plug-In . SVG Version: 6.00 Build 0)  -->
<svg version="1.1" id="Layer_1" xmlns="http://www.w3.org/2000/svg" xmlns:xlink="http://www.w3.org/1999/xlink" x="0px" y="0px"
	 viewBox="0 0 150 150" style="enable-background:new 0 0 150 150;" xml:space="preserve">
<style type="text/css">
	.st0{fill:#0F357E;}
</style>
<title>19_Sala VIP_blue</title>
<desc>Created with Sketch.</desc>
<g id="Page-1">
	<g id="_x31_9_x5F_Sala-VIP_x5F_blue" transform="translate(-33.857143, -26.000000)">
		
			<g id="g10" transform="translate(99.999998, 100.000002) scale(-1, 1) rotate(-180.000000) translate(-99.999998, -100.000002) translate(0.000000, 0.000005)">
			<g id="g12">
				<g id="g14-Clipped">
					<g id="path16">
					</g>
					<g id="g14">
						<g id="g20" transform="translate(33.333333, 26.666666)">
							<g transform="translate(0.622400, 1.080667)">
								<path id="path22" class="st0" d="M125.7,62.4c-1.1-27-23.6-48.8-50.8-48.8c-28,0-50.8,22.8-50.8,50.9
									c0,28,22.8,50.8,50.7,50.9v9.2c-33.1,0-60-26.9-60-60s26.9-60.1,60-60.1c32.3,0,58.9,25.9,60,57.9H125.7z M87.3,112.5
									l1.8,3.8c0.2,0,0.4-0.1,0.6-0.1h9.2l-7.1-14.8h7.1l7.1,14.8h11.4c2,0,3.5,1.6,3.5,3.6s-1.6,3.6-3.5,3.6H106L98.9,138h-7.1
									l7.1-14.8h-9.2c-0.2,0-0.4,0-0.6,0l-1.8,4h-7.1l3.5-7.4l-3.5-7.4h7.1V112.5z M100.1,68.5l-31.8-2.2L51,92l-4.5-1.8l9-47.8h4
									L60,37h4l0.5,5.4H92l0.4-5.4h4l0.5,5.4h4.7l1.8,22.9l0,0C103.4,67.1,101.9,68.5,100.1,68.5L100.1,68.5z"/>
							</g>
						</g>
					</g>
				</g>
			</g>
		</g>
	</g>
</g>
</svg>
