<?xml version="1.0" encoding="utf-8"?>
<!-- Generator: Adobe Illustrator 21.1.0, SVG Export Plug-In . SVG Version: 6.00 Build 0)  -->
<svg version="1.1" id="Layer_1" xmlns="http://www.w3.org/2000/svg" xmlns:xlink="http://www.w3.org/1999/xlink" x="0px" y="0px"
	 viewBox="0 0 150 150" style="enable-background:new 0 0 150 150;" xml:space="preserve">
<style type="text/css">
	.st0{fill:#0F357E;}
	.st1{fill:#FFFFFF;}
</style>
<title>21_VLHC_blue</title>
<desc>Created with Sketch.</desc>
<g id="Page-1">
	<g id="_x32_1_x5F_VLHC_x5F_blue" transform="translate(-25.428571, -50.000000)">
		
			<g id="g10" transform="translate(99.999998, 100.000002) scale(-1, 1) rotate(-180.000000) translate(-99.999998, -100.000002) translate(0.000000, 0.000005)">
			<path id="path12" class="st0" d="M138.1,104.6H63.2v6h74.9V104.6z M143.5,104.6v6h16.7v5.1l0,0H40.4l0,0v-5.1h17.3v-6H40.8V34.4
				h119.6v70.3h-16.9V104.6z"/>
			<g id="g14" transform="translate(59.711599, 106.511731)">
				<polygon id="path16" class="st1" points="12.2,-16.4 14.5,-19.4 18,-18.1 16,-21.2 18.3,-24.1 14.7,-23.1 12.6,-26.2 
					12.5,-22.5 8.9,-21.4 12.4,-20.2 				"/>
			</g>
			<g id="g18">
				<g id="g20-Clipped">
					<g id="path22">
					</g>
					<g id="g20">
						<g transform="translate(47.999999, 62.666665)">
							<g id="g26" transform="translate(0.909467, 1.687467)">
								<path id="path28" class="st1" d="M24-18.4h-6.2L10.4,5h5.8L19-4.9c0.8-2.8,1.5-5.4,2.1-8.4h0.1c0.6,2.8,1.3,5.6,2.1,8.3
									l3,10h5.6L24-18.4z"/>
							</g>
							<g id="g30" transform="translate(27.763733, 48.782532)">
								<polygon id="path32" class="st1" points="9.3,-20.6 10.1,-17 11.6,-20.4 15.3,-20.1 12.5,-22.5 13.9,-26 10.7,-24 
									7.9,-26.5 8.8,-22.9 5.6,-20.9 								"/>
							</g>
							<g id="g34" transform="translate(30.220666, 1.687467)">
								<polygon id="path36" class="st1" points="19.7,-18.4 5.1,-18.4 5.1,5 10.4,5 10.4,-13.9 19.7,-13.9 								"/>
							</g>
							<g id="g38" transform="translate(43.165999, 49.988265)">
								<polygon id="path40" class="st1" points="5.3,-27.3 7,-22.2 2.6,-19.1 8,-19.1 9.7,-14 11.3,-19.1 16.7,-19.1 12.4,-22.2 
									14,-27.3 9.7,-24.2 								"/>
							</g>
							<g id="g42" transform="translate(52.382799, 1.687467)">
								<polygon id="path44" class="st1" points="19.9,-18.4 14.6,-18.4 14.6,-8.6 5.9,-8.6 5.9,-18.4 0.7,-18.4 0.7,5 5.9,5 
									5.9,-4 14.6,-4 14.6,5 19.9,5 								"/>
							</g>
							<g id="g46" transform="translate(63.197865, 48.695332)">
								<polygon id="path48" class="st1" points="6,-22.8 6.8,-26.4 4,-23.9 0.8,-25.9 2.2,-22.4 -0.6,-20 3.1,-20.3 4.6,-16.9 
									5.4,-20.5 9.1,-20.8 								"/>
							</g>
							<g id="g50" transform="translate(79.502665, 43.137999)">
								<polygon id="path52" class="st1" points="-3.6,-17.4 -0.1,-18.7 2.2,-15.7 2.1,-19.4 5.6,-20.7 2,-21.7 1.9,-25.5 
									-0.2,-22.4 -3.8,-23.4 -1.5,-20.5 								"/>
							</g>
							<g id="g54" transform="translate(80.684931, 0.000000)">
								<path id="path56" class="st1" d="M8.1-12.6c1.6,0,3.4,0.3,4.4,0.8l0.8-4.2c-0.9-0.5-3.2-1-6-1c-8,0-12.2,5-12.2,11.7
									C-4.9,2.6,0.8,7,7.9,7c2.7,0,4.8-0.6,5.8-1l-1.1-4.2c-1,0.5-2.5,0.9-4.4,0.9C4,2.7,0.8,0.2,0.8-5C0.7-9.7,3.5-12.6,8.1-12.6
									"/>
							</g>
						</g>
					</g>
				</g>
			</g>
		</g>
	</g>
</g>
</svg>
