<?xml version="1.0" encoding="utf-8"?>
<!-- Generator: Adobe Illustrator 21.1.0, SVG Export Plug-In . SVG Version: 6.00 Build 0)  -->
<svg version="1.1" id="Layer_1" xmlns="http://www.w3.org/2000/svg" xmlns:xlink="http://www.w3.org/1999/xlink" x="0px" y="0px"
	 viewBox="0 0 150 150" style="enable-background:new 0 0 150 150;" xml:space="preserve">
<style type="text/css">
	.st0{fill:#FFFFFF;}
	.st1{fill:#0F357E;}
</style>
<title>26_ATM Assault Insurance_blue</title>
<desc>Created with Sketch.</desc>
<g id="Page-1">
	<g id="_x32_6_x5F_ATM-Assault-Insurance_x5F_blue" transform="translate(-48.857143, -26.000000)">
		
			<g id="g10" transform="translate(99.999998, 100.000002) scale(-1, 1) rotate(-180.000000) translate(-99.999998, -100.000002) translate(0.000000, 0.000005)">
			<g id="g12">
				<g id="g14-Clipped">
					<g id="path16">
					</g>
					<g id="g14">
						<g transform="translate(47.999999, 25.333333)">
							<g id="g20" transform="translate(38.201866, 54.752665)">
								<path id="path22" class="st0" d="M32.9,4.9c1.3-0.1,3.7,0.4,5,3L38,8.2c0.5,1.1,1.2,2.6,1.9,3.3c0.4,0.4,0.9,0.6,1.5,0.6
									c1.3,0,2.3-1.2,2.3-2.7s-1.1-2.7-2.3-2.7c-0.1,0-0.2,0-0.3,0l-0.5-2.9c0.3,0,0.5-0.1,0.8-0.1c2.4,0,4.5,1.8,5.1,4.1h1.9v2.9
									h-1.9c-0.6,2.4-2.7,4.1-5.1,4.1c-1.3,0-2.5-0.5-3.5-1.4c-1.2-1.1-1.9-2.8-2.6-4.2l-0.1-0.3c-0.7-1.4-1.9-1.4-2.1-1.4h-0.2
									c-0.9,0-1.6,0.8-1.6,1.8s0.7,1.8,1.6,1.8V14c-2.1,0-3.8-1.5-4.3-3.5h-1.8V7.9h1.9C29.5,6.2,31.1,4.9,32.9,4.9"/>
							</g>
							<g id="g24" transform="translate(0.110667, 25.940133)">
								<path id="path26" class="st1" d="M117.1,39.5v55.6c0,0-29.4,3.5-41.4,12.6c-11.9-9.1-41.4-12.6-41.4-12.6V39.5
									c-1-14.8,5.3-24.1,13.5-30.5v38.1h55.8V9C111.9,15.4,118.2,24.7,117.1,39.5"/>
							</g>
							<polygon id="path28" class="st1" points="54.1,21.3 97.6,21.3 97.6,25.6 54.1,25.6 							"/>
							<polygon id="path30" class="st1" points="54.1,13.7 97.6,13.7 97.6,17.9 54.1,17.9 							"/>
							<g id="g32" transform="translate(24.958399, 19.333333)">
								<path id="path34" class="st1" d="M65.8,50.5c0.7-1.8,1.1-3.7,1.1-5.7c0-8.8-7.2-16-16-16s-16,7.2-16,16c0,2,0.4,4,1.1,5.7
									h-6.9V9.6h43.6v40.9H65.8z"/>
							</g>
							<g id="g36" transform="translate(38.201866, 54.335999)">
								<path id="path38" class="st1" d="M32.9,4.9c1.3-0.1,3.7,0.4,5,3L38,8.2c0.5,1.1,1.2,2.6,1.9,3.3c0.4,0.4,0.9,0.6,1.5,0.6
									c1.3,0,2.3-1.2,2.3-2.7s-1.1-2.7-2.3-2.7c-0.1,0-0.2,0-0.3,0l-0.5-2.9c0.3,0,0.5-0.1,0.8-0.1c2.4,0,4.5,1.8,5.1,4.1h1.9v2.9
									h-1.9c-0.6,2.4-2.7,4.1-5.1,4.1c-1.3,0-2.5-0.5-3.5-1.4c-1.2-1.1-1.9-2.8-2.6-4.2l-0.1-0.3c-0.7-1.4-1.9-1.4-2.1-1.4h-0.2
									c-0.9,0-1.6,0.8-1.6,1.8s0.7,1.8,1.6,1.8V14c-2.1,0-3.8-1.5-4.3-3.5h-1.8V8h1.9C29.5,6.2,31.1,5,32.9,4.9"/>
							</g>
							<g id="g40" transform="translate(21.313866, 92.825464)">
								<path id="path42" class="st0" d="M36.1,3.2l1.1,3.7c0.3,1,0.5,2.3,0.8,3.3h0c0.3-1,0.6-2.3,0.8-3.3l1.1-3.7
									C39.9,3.2,36.1,3.2,36.1,3.2z M35.5,13.2L30.2-4.1h4.1l1.2,4.4h5l1.3-4.4H46l-5.4,17.3C40.6,13.2,35.5,13.2,35.5,13.2z
									 M77.9,13.2h-5.1L71,7.4c-0.6-1.9-1.2-4.2-1.6-6.2h-0.1c-0.4,2-0.9,4.2-1.5,6.2l-1.7,5.8h-5.2L59.8-4.1h3.6l0.3,6.6
									c0.1,2.2,0.2,4.8,0.3,7.2l0,0C64.4,7.4,65,5,65.6,3l1.8-6.7h3.1L72.6,3c0.7,2,1.4,4.5,2,6.7h0.1c0-2.5,0.1-5,0.2-7.1L75.2-4
									H79L77.9,13.2z M44.9,9.9h4.7v-14h3.9v14h4.7v3.3H44.9V9.9z"/>
							</g>
						</g>
					</g>
				</g>
			</g>
		</g>
	</g>
</g>
</svg>
