<?xml version="1.0" encoding="utf-8"?>
<!-- Generator: Adobe Illustrator 21.1.0, SVG Export Plug-In . SVG Version: 6.00 Build 0)  -->
<svg version="1.1" id="Layer_1" xmlns="http://www.w3.org/2000/svg" xmlns:xlink="http://www.w3.org/1999/xlink" x="0px" y="0px"
	 viewBox="0 0 150 150" style="enable-background:new 0 0 150 150;" xml:space="preserve">
<style type="text/css">
	.st0{fill:#0F357E;}
	.st1{fill:#FFFFFF;}
</style>
<title>27_Corporate Liability Waiver_blue</title>
<desc>Created with Sketch.</desc>
<g id="Page-1">
	<g id="_x32_7_x5F_Corporate-Liability-Waiver_x5F_blue" transform="translate(-40.142857, -26.000000)">
		
			<g id="g10" transform="translate(99.999998, 100.000002) scale(-1, 1) rotate(-180.000000) translate(-99.999998, -100.000002) translate(0.000000, 0.000005)">
			<g id="g12">
				<g id="g14-Clipped">
					<g id="path16">
					</g>
					<g id="g14">
						<g transform="translate(38.666666, 25.333333)">
							<g id="g20" transform="translate(1.278667, 1.026667)">
								<path id="path22" class="st0" d="M65.3,105.2c0,3.4,0.6,6.7,1.6,9.7H26.5V12.6h1l6,6l6-6H40l6,6l6-6h0.5l6,6l6-6H65l6,6l6-6
									h0.5l6,6l6-6H90l6,6l5.8-5.8v61.6c-1.6-0.2-3.2-0.4-4.9-0.4C79.3,74,65.3,88,65.3,105.2"/>
							</g>
							<g id="g24" transform="translate(14.825466, 70.912798)">
								<path id="path26" class="st1" d="M24.5,12.8l4.5-0.7c0-0.2,0-0.3,0-0.5c0-2,1.9-3.7,4.2-3.7s4.2,1.6,4.2,3.7
									c0,0.8-0.3,1.6-0.9,2.3c-1.1,1.1-3.3,2.2-5.1,3L30.8,17c-4.1,2-4.9,5.8-4.7,7.8c0.1,2.9,2,5.4,4.7,6.4v3h4.6v-2.8
									c3.1-0.8,5.5-3.5,5.5-6.7h-4.6c0,1.3-1.3,2.4-2.8,2.4c-1.6,0-2.8-1.1-2.8-2.4v-0.3c0-0.3-0.1-2.2,2.1-3.2l0.4-0.2
									c2.1-1,4.8-2.2,6.5-4c1.4-1.5,2.2-3.5,2.2-5.4c0-3.8-2.7-7-6.4-7.9v-3h-4.6v2.9c-3.7,0.9-6.4,4.1-6.4,7.9
									C24.4,12,24.5,12.4,24.5,12.8"/>
							</g>
							<polygon id="path28" class="st1" points="90,34.3 40.5,34.3 40.5,38.7 90,38.7 							"/>
							<polygon id="path30" class="st1" points="90,45.7 40.5,45.7 40.5,50.1 90,50.1 							"/>
							<polygon id="path32" class="st1" points="90,57.1 40.5,57.1 40.5,61.4 90,61.4 							"/>
							<g id="g34" transform="translate(52.640665, 79.710265)">
								<path id="path36" class="st0" d="M45.2,54c-11.7,0-21.7-7.3-25.6-17.7c-1.1-3-1.8-6.3-1.8-9.7C17.8,11.4,30-0.8,45.2-0.8
									c1.7,0,3.3,0.2,4.9,0.4c12.8,2.3,22.5,13.5,22.5,27C72.6,41.7,60.3,54,45.2,54"/>
							</g>
							<g id="g38" transform="translate(70.281198, 98.336531)">
								<polygon id="path40" class="st1" points="19,-5.2 14.4,-0.6 17.8,2.8 22.9,7.9 14.4,16.4 19,21.1 27.5,12.6 36,21.1 
									40.7,16.4 32.2,7.9 40.7,-0.6 36,-5.2 27.5,3.3 22.7,-1.5 								"/>
							</g>
						</g>
					</g>
				</g>
			</g>
		</g>
	</g>
</g>
</svg>
