<?xml version="1.0" encoding="utf-8"?>
<!-- Generator: Adobe Illustrator 23.0.6, SVG Export Plug-In . SVG Version: 6.00 Build 0)  -->
<svg version="1.1" id="Layer_1" xmlns="http://www.w3.org/2000/svg" xmlns:xlink="http://www.w3.org/1999/xlink" x="0px" y="0px"
	 viewBox="0 0 451.89 429.28" style="enable-background:new 0 0 451.89 429.28;" xml:space="preserve">
<style type="text/css">
	.st0{fill:#11304A;}
</style>
<path class="st0" d="M324.88,85.84H127.01c-12.08,0-21.91,9.83-21.91,21.91v213.77c0,12.08,9.83,21.91,21.91,21.91h197.87
	c12.08,0,21.91-9.83,21.91-21.91V107.75C346.79,95.67,336.96,85.84,324.88,85.84z M116.94,107.75c0-5.55,4.52-10.07,10.07-10.07
	h93.01v76.91h-25.41l-39.24-39.25h-38.43V107.75z M254.13,208.72v11.85v22.27h-22.27h-11.85h-22.27v-22.27v-11.85v-22.27h22.27
	h11.85h22.27V208.72z M116.94,147.2h33.52l35.45,35.44v26.07h-68.96V147.2z M116.94,220.56h68.96v26.07l-35.45,35.45h-33.52V220.56z
	 M127.01,331.59c-5.55,0-10.07-4.52-10.07-10.07v-27.6h38.43l39.24-39.25h25.41v76.91H127.01z M334.95,321.52
	c0,5.55-4.52,10.07-10.07,10.07h-93.01v-76.91h25.41l39.24,39.25h38.43V321.52z M334.95,282.08h-33.52l-35.45-35.45v-26.07h68.97
	V282.08z M334.95,208.72h-68.97v-26.07l35.45-35.45h33.52V208.72z M334.95,135.36h-38.43l-39.24,39.25h-25.41V97.69h93.01
	c5.55,0,10.07,4.52,10.07,10.07V135.36z"/>
</svg>
