<?xml version="1.0" encoding="utf-8"?>
<!-- Generator: Adobe Illustrator 23.0.6, SVG Export Plug-In . SVG Version: 6.00 Build 0)  -->
<svg version="1.1" id="Layer_1" xmlns="http://www.w3.org/2000/svg" xmlns:xlink="http://www.w3.org/1999/xlink" x="0px" y="0px"
	 viewBox="0 0 451.89 429.28" style="enable-background:new 0 0 451.89 429.28;" xml:space="preserve">
<style type="text/css">
	.st0{fill:#11304A;}
</style>
<g>
	<g>
		<g>
			<g>
				<path class="st0" d="M303.02,231.21c0,0,0-11.76-15.19-11.76c-5.88-17.31-8.79-24.47-11.92-32.34
					c-5.05-12.71-11.9-12.42-47.45-12.41c-35.55,0-42.4-0.3-47.45,12.41c-3.13,7.87-6.04,15.03-11.92,32.34
					c-15.19,0-15.19,11.76-15.19,11.76h13.56l-4.08,6.04v28.91h4.76V274c0,2.16,1.75,3.92,3.92,3.92h16.13
					c2.16,0,3.92-1.75,3.92-3.92v-7.84h23.78h11.37h38.08V274c0,2.16,1.75,3.92,3.92,3.92h16.13c2.16,0,3.92-1.75,3.92-3.92v-7.84
					h4.27v-28.91l-4.08-6.04H303.02z M188.99,243.48c-4.18,0-7.57-3.39-7.57-7.57c0-4.18,3.39-7.57,7.57-7.57
					c4.18,0,7.57,3.39,7.57,7.57C196.56,240.09,193.17,243.48,188.99,243.48z M270.27,243.48c-4.18,0-7.57-3.39-7.57-7.57
					c0-4.18,3.39-7.57,7.57-7.57c4.18,0,7.57,3.39,7.57,7.57C277.84,240.09,274.45,243.48,270.27,243.48z M177.84,220.46
					c5.01-14.76,7.5-20.86,10.16-27.57c4.31-10.84,10.14-10.58,40.45-10.58c30.31,0,36.14-0.25,40.45,10.58
					c2.67,6.71,5.15,12.81,10.17,27.57H177.84z"/>
			</g>
		</g>
	</g>
	<g>
		<path class="st0" d="M329.16,102.93h-0.09c-0.29-2.48-1.51-6.91-6.49-6.91c-6.91,0-28.31,0-28.31,0l-15.47-33.58h-15.14
			l16.79,33.25h-24.36l-4.94-8.89h-13.83l7.9,16.78l-7.9,17.12h13.83l4.94-8.89h24.36l-16.79,33.25h15.14l15.47-33.58
			c0,0,21.4,0,28.31,0c4.98,0,6.2-4.43,6.49-6.91l0.09,0c0,0,0.01-0.32-0.02-0.82C329.17,103.24,329.16,102.93,329.16,102.93z"/>
	</g>
	<g>
		<path class="st0" d="M225.94,366.84c-75.93,0-137.71-61.78-137.71-137.71c0-75.93,61.78-137.71,137.71-137.71v19.34
			c-65.27,0-118.37,53.1-118.37,118.37s53.1,118.37,118.37,118.37s118.37-53.1,118.37-118.37h19.34
			C363.65,305.06,301.88,366.84,225.94,366.84z"/>
	</g>
</g>
</svg>
