<?xml version="1.0" encoding="utf-8"?>
<!-- Generator: Adobe Illustrator 23.0.6, SVG Export Plug-In . SVG Version: 6.00 Build 0)  -->
<svg version="1.1" id="Layer_1" xmlns="http://www.w3.org/2000/svg" xmlns:xlink="http://www.w3.org/1999/xlink" x="0px" y="0px"
	 viewBox="0 0 451.89 429.28" style="enable-background:new 0 0 451.89 429.28;" xml:space="preserve">
<style type="text/css">
	.st0{fill:#11304A;}
</style>
<g>
	<path class="st0" d="M385.82,173.43c-10.32-4.92-25.12-4.08-33.21,9.4l-0.27,0.49c-8.9,17.8-16.3,33.41-18.89,38.89l-19.14,10.94
		c-5.16-4.81-12.08-6.85-17.31-6.85h-73.01c-34.56-25.08-66.11-9.8-67.46-9.13l-45.78,27.89l-18.05-18.05l-40.83,40.83L153.9,369.88
		l40.83-40.83l-73.45-73.45l41.93-25.57c2.52-1.14,27.09-11.41,53.95,9.25l1.95,1.5H297c0.1,0,10.07,0.12,10.07,10.07
		c0,4.14-0.98,13.78-10.07,13.78h-59.34v14.48H297c12.22,0,24.55-8.74,24.55-28.26c0-1.75-0.15-3.38-0.42-4.92l23.49-13.42
		l0.97-2.08c0.09-0.18,8.67-18.56,19.56-40.35c4.65-7.47,12.21-4.63,14.44-3.57c4,1.91,6.61,5.26,5.8,7.47
		c-4.31,11.87-22.53,52.59-26.31,61.02l-60.98,50.42h-88.88v14.48h94.09l67.59-55.89l0.69-1.54c0.91-2.03,22.42-49.85,27.4-63.55
		C402.45,189.43,396.91,178.71,385.82,173.43z M153.9,349.4l-81.55-81.55l20.36-20.36l81.55,81.55L153.9,349.4z"/>
	<path class="st0" d="M268.81,153.56c13.85,0,25.11-11.26,25.11-25.11c0-13.84-11.26-25.11-25.11-25.11
		c-13.84,0-25.11,11.26-25.11,25.11C243.7,142.3,254.96,153.56,268.81,153.56z M268.81,117.82c5.86,0,10.63,4.77,10.63,10.63
		c0,5.86-4.77,10.63-10.63,10.63c-5.86,0-10.63-4.77-10.63-10.63C258.18,122.59,262.94,117.82,268.81,117.82z"/>
	<path class="st0" d="M125.77,143.02l16.07,16.07l19.16-19.16l14.93,14.93h29.04c10.6,25.74,35.56,42.65,63.83,42.65
		c38.08,0,69.05-30.98,69.05-69.05c0-38.08-30.98-69.05-69.05-69.05c-25.86,0-49.38,14.41-61.22,37.09h-97.79l-30.73,30.73
		l31.25,31.25L125.77,143.02z M115.79,110.97h95.05c3.22,0.57,6.53-1.11,7.89-4.24c8.67-19.96,28.33-32.85,50.08-32.85
		c30.09,0,54.58,24.48,54.58,54.58c0,30.09-24.48,54.58-54.58,54.58c-23.89,0-44.79-15.28-52.02-38.03
		c-1.21-3.81-5.28-5.92-9.09-4.71c-0.07,0.02-0.14,0.05-0.21,0.08h-25.55l-20.92-20.92l-19.16,19.16l-16.07-16.07L110.32,138
		l-10.78-10.78L115.79,110.97z"/>
</g>
</svg>
