<?xml version="1.0" encoding="utf-8"?>
<!-- Generator: Adobe Illustrator 23.0.6, SVG Export Plug-In . SVG Version: 6.00 Build 0)  -->
<svg version="1.1" id="Capa_1" xmlns="http://www.w3.org/2000/svg" xmlns:xlink="http://www.w3.org/1999/xlink" x="0px" y="0px"
	 viewBox="0 0 690 690" style="enable-background:new 0 0 690 690;" xml:space="preserve">
<style type="text/css">
	.st0{fill:#EAB971;}
	.st1{fill:#EBCA8C;}
	.st2{fill:#FBCB87;}
	.st3{fill:#CD8D1E;}
	.st4{fill:#D09833;}
	.st5{fill:#D2A23F;}
	.st6{fill:url(#SVGID_1_);}
	.st7{fill:#F7B600;}
	.st8{fill:#FFFFFF;}
</style>
<g>
	
		<rect x="164.7" y="356.1" transform="matrix(0.7044 -0.7098 0.7098 0.7044 -206.049 250.625)" class="st0" width="66.4" height="33.3"/>
	
		<rect x="87.9" y="321.1" transform="matrix(0.7044 -0.7098 0.7098 0.7044 -198.8024 198.0927)" class="st1" width="101.1" height="33.3"/>
	
		<rect x="12" y="284.9" transform="matrix(0.7044 -0.7098 0.7098 0.7044 -190.6789 145.2069)" class="st2" width="134" height="33.3"/>
	
		<rect x="320.8" y="594" transform="matrix(0.7044 -0.7098 0.7098 0.7044 -318.7705 455.8501)" class="st3" width="134.2" height="33.3"/>
	
		<rect x="301.8" y="535" transform="matrix(0.7044 -0.7098 0.7098 0.7044 -287.3663 413.149)" class="st4" width="101.1" height="33.3"/>
	
		<rect x="282.9" y="475" transform="matrix(0.7044 -0.7098 0.7098 0.7044 -255.3997 369.9396)" class="st5" width="67" height="33.3"/>
	
		<linearGradient id="SVGID_1_" gradientUnits="userSpaceOnUse" x1="207.5518" y1="740.4446" x2="533.6907" y2="1066.5835" gradientTransform="matrix(1 0 0 1 0 -499.9999)">
		<stop  offset="0" style="stop-color:#1F346C"/>
		<stop  offset="1" style="stop-color:#080915"/>
	</linearGradient>
	<path class="st6" d="M414.5,322.7l103.9-104.6c12.9-13,12.9-34-0.2-47l0,0c-13-12.9-34-12.9-47,0.2L367.5,275.8L138,171.1
		l-23.6,23.6L282,361.9L155.8,489.1l-65.1-33.5l-23.9,23.9l143.4,142.9l23.7-23.9l-31.4-62.2l126.6-127.7l166.1,165.6l23.6-23.9
		L414.5,322.7L414.5,322.7z"/>
</g>
<g id="g12_1_">
	<g id="g14-Clipped_1_">
		<g id="path16_1_">
		</g>
		<g id="g14_1_">
			<g transform="translate(41.333332, 25.333333)">
				<g id="g20_1_" transform="translate(1.169333, 0.545600)">
					<path id="path22_1_" class="st7" d="M552.2,124.9c-0.4,0-0.8,0-1.2,0c-3.7-0.8-5.8-3.7-7.5-6.2c-0.4-0.8-1.7-2.1-2.1-2.5l0,0
						c-0.8,0-2.1,0.4-3.3,0.8c-1.7,0.4-3.7,0.8-5.4,0.8s-2.9-0.4-4.2-1.2c-1.2-0.8-2.5-2.1-2.9-3.3l-3.3,6.2l-12.6,21.6l21.2-1.2
						l9.6,19.1l12.5-21.6l9.2-16.2v-0.8c-0.8,0.4-1.2,0.8-2.1,1.2C557.6,122.8,555.1,124.9,552.2,124.9L552.2,124.9z M600,113.2
						c-0.8,1.2-1.7,2.5-2.9,3.3c-1.2,0.8-2.5,1.2-4.2,1.2c-2.1,0-3.7-0.4-5.4-0.8c-1.2-0.4-2.5-0.8-3.3-0.8l0,0
						c-0.4,0.4-1.2,1.7-2.1,2.5c-1.7,2.5-3.7,5.4-7.5,6.2c-0.4,0-0.8,0-1.2,0c-2.9,0-5.4-1.7-7.9-3.3c-0.4-0.4-1.2-0.8-2.1-1.2v0.8
						l9.2,16.2l12.5,21.6l9.6-19.1l21.2,1.2l-12.5-21.6L600,113.2z M563,104.5c-26.6,0-47.8-21.6-47.8-47.8S536.4,8.9,563,8.9
						c26.6,0,47.8,21.6,47.8,47.8S589.2,104.5,563,104.5L563,104.5z M620.4,67c0.4-3.3,7.1-6.7,7.1-10c0-3.7-6.2-6.7-7.1-10
						c-0.8-3.7,4.2-8.7,2.9-11.6c-1.2-3.3-8.3-4.2-10-7.1c-1.7-3.3,0.8-9.6-1.2-12.1c-2.5-2.9-9.2-1.2-11.6-3.3
						c-2.9-2.5-2.1-9.2-5.4-10.8c-1.7-0.8-4.2-0.4-6.2,0.4c-2.1,0.4-4.2,1.2-5.8,0.4c-3.3-1.2-5.4-7.9-8.7-8.7H574
						c-3.3,0-7.1,5-10.4,5c-3.7,0-7.9-5.8-11.2-5c-3.7,0.8-5.4,7.5-8.7,8.7c-1.7,0.4-3.7,0-5.8-0.4c-2.5-0.8-4.6-1.2-6.2-0.4
						c-2.9,1.7-2.5,8.7-5.4,10.8c-2.9,2.5-9.6,0.8-11.6,3.3c-2.5,2.9,0.4,9.2-1.2,12.1c-1.7,2.9-8.7,3.7-10,7.1
						c-1.2,3.3,3.7,8.3,2.9,11.6c-0.4,3.3-7.1,6.7-7.1,10c0,3.7,6.2,6.7,7.1,10c0.8,3.7-4.2,8.7-2.9,11.6c1.2,3.3,8.3,4.2,10,7.1
						c1.7,2.9-0.8,9.6,1.2,12.1c2.5,2.9,9.2,1.2,11.6,3.3c2.9,2.5,2.1,9.2,5.4,10.8c1.7,0.8,4.2,0.4,6.2-0.4
						c2.1-0.4,4.2-1.2,5.8-0.4c3.3,1.2,5.4,7.9,8.7,8.7c3.3,0.4,7.5-5,11.2-5s7.9,5.8,11.2,5c3.7-0.8,5.4-7.5,8.7-8.7
						c1.7-0.4,3.7,0,5.8,0.4c2.5,0.8,4.6,1.2,6.2,0.4c3.3-1.7,2.5-8.7,5.4-10.8c2.9-2.5,9.6-0.4,11.6-3.3c2.5-2.9-0.4-9.2,1.2-12.1
						c1.6-2.9,8.7-3.7,10-7.1C624.6,75.4,619.6,70.4,620.4,67L620.4,67z M563,13.4c-24.1,0-43.7,19.6-43.7,43.7s19.6,43.3,43.7,43.3
						c24.1,0,43.7-19.6,43.7-43.7S586.7,13.4,563,13.4L563,13.4z"/>
				</g>
				<g id="g24" transform="translate(38.596399, 71.992132)">
					<polygon id="path26" class="st8" points="547.7,-11.7 529,-11.7 529,6.6 521.9,6.6 521.9,-11.7 503.2,-11.7 503.2,-19.2 
						521.9,-19.2 521.9,-37.5 529,-37.5 529,-19.2 547.7,-19.2 					"/>
				</g>
			</g>
		</g>
	</g>
</g>
</svg>
