<?xml version="1.0" encoding="utf-8"?>
<!-- Generator: Adobe Illustrator 15.1.0, SVG Export Plug-In . SVG Version: 6.00 Build 0)  -->
<!DOCTYPE svg PUBLIC "-//W3C//DTD SVG 1.1//EN" "http://www.w3.org/Graphics/SVG/1.1/DTD/svg11.dtd">
<svg version="1.1" id="Camada_1" xmlns="http://www.w3.org/2000/svg" xmlns:xlink="http://www.w3.org/1999/xlink" x="0px" y="0px"
	 width="131.322px" height="132.439px" viewBox="0 0 131.322 132.439" enable-background="new 0 0 131.322 132.439"
	 xml:space="preserve">
<title>visa-icon/selected</title>
<desc>Created with Sketch.</desc>
<g id="g12">
	<g id="g14-Clipped">
		<g id="path16">
		</g>
		<g id="g14">
			<g transform="translate(41.333332, 25.333333)">
				<g id="g20" transform="translate(1.169333, 0.545600)">
					<path id="path22" fill="#F7B600" d="M49.346,9.809c-0.1,0-0.199,0-0.332-0.033c-0.892-0.166-1.423-0.895-1.818-1.49
						c-0.133-0.199-0.366-0.496-0.463-0.595l0,0c-0.167,0-0.497,0.067-0.762,0.165c-0.397,0.099-0.86,0.231-1.291,0.231
						c-0.396,0-0.728-0.098-1.026-0.264c-0.329-0.198-0.563-0.463-0.728-0.761L42.1,8.518l-3.011,5.228l5.096-0.331l2.281,4.565
						l3.011-5.227l2.216-3.872V8.717c-0.165,0.1-0.329,0.199-0.461,0.298C50.701,9.379,50.073,9.809,49.346,9.809L49.346,9.809z
						 M60.89,7.03c-0.164,0.298-0.397,0.563-0.727,0.761c-0.298,0.165-0.628,0.264-1.025,0.264c-0.464,0-0.895-0.132-1.324-0.231
						c-0.265-0.065-0.594-0.165-0.761-0.165l0,0c-0.131,0.1-0.33,0.396-0.464,0.596c-0.429,0.595-0.925,1.323-1.818,1.488
						c-0.099,0.034-0.198,0.034-0.298,0.034c-0.728,0-1.323-0.431-1.886-0.795c-0.133-0.1-0.299-0.198-0.463-0.297v0.165
						l2.216,3.872l3.011,5.227l2.283-4.566l5.094,0.331l-3.011-5.227L60.89,7.03z M51.926,4.979
						c-6.353,0-11.514-5.162-11.514-11.513c0-6.351,5.161-11.512,11.514-11.512c6.351,0,11.512,5.161,11.512,11.512
						C63.438-0.183,58.276,4.979,51.926,4.979L51.926,4.979z M65.722-4.087c0.131-0.827,1.653-1.554,1.653-2.448
						c0-0.86-1.489-1.587-1.653-2.448c-0.165-0.86,0.991-2.051,0.727-2.845c-0.298-0.828-1.951-0.993-2.382-1.72
						c-0.43-0.761,0.232-2.284-0.297-2.912c-0.563-0.662-2.184-0.266-2.812-0.794c-0.662-0.563-0.531-2.217-1.292-2.647
						c-0.396-0.231-0.958-0.065-1.521,0.067c-0.497,0.132-1.027,0.264-1.423,0.132c-0.796-0.298-1.258-1.886-2.118-2.051
						c-0.032,0-0.098,0-0.132,0c-0.795,0-1.721,1.225-2.547,1.225c-0.86,0-1.853-1.357-2.68-1.192
						c-0.86,0.166-1.323,1.754-2.119,2.051c-0.395,0.132-0.892,0-1.422-0.132c-0.563-0.165-1.125-0.297-1.521-0.065
						c-0.729,0.429-0.63,2.083-1.29,2.646c-0.662,0.563-2.283,0.166-2.813,0.794c-0.561,0.662,0.133,2.183-0.296,2.911
						c-0.432,0.728-2.085,0.926-2.383,1.72c-0.299,0.794,0.86,1.985,0.727,2.845c-0.131,0.828-1.653,1.555-1.653,2.448
						c0,0.86,1.489,1.621,1.653,2.448c0.167,0.859-0.991,2.051-0.727,2.845c0.298,0.826,1.951,0.993,2.383,1.72
						c0.429,0.728-0.233,2.283,0.296,2.912c0.563,0.662,2.184,0.264,2.813,0.794c0.66,0.563,0.529,2.217,1.29,2.646
						c0.396,0.232,0.958,0.066,1.521-0.065c0.53-0.132,1.027-0.264,1.422-0.132c0.796,0.297,1.259,1.886,2.119,2.051
						c0.827,0.132,1.819-1.19,2.68-1.19c0.859,0,1.852,1.355,2.679,1.19c0.86-0.165,1.322-1.753,2.118-2.051
						c0.396-0.132,0.893,0,1.423,0.132c0.563,0.165,1.125,0.298,1.521,0.065c0.761-0.429,0.63-2.083,1.292-2.646
						c0.659-0.563,2.281-0.132,2.812-0.794c0.563-0.662-0.133-2.184,0.297-2.912c0.431-0.727,2.084-0.926,2.382-1.72
						C66.713-2.035,65.557-3.226,65.722-4.087L65.722-4.087z M51.926-16.955c-5.756,0-10.454,4.698-10.454,10.454
						S46.17,3.953,51.926,3.953c5.757,0,10.453-4.698,10.453-10.455S57.683-16.955,51.926-16.955L51.926-16.955z"/>
				</g>
				<g id="g24" transform="translate(38.596399, 71.992132)">
					<polygon id="path26" fill="#FFFFFF" points="19.835,-77.302 15.368,-77.302 15.368,-72.835 13.614,-72.835 13.614,-77.302 
						9.147,-77.302 9.147,-79.055 13.614,-79.055 13.614,-83.488 15.368,-83.488 15.368,-79.055 19.835,-79.055 					"/>
				</g>
			</g>
		</g>
	</g>
</g>
<g>
	<rect x="51.049" y="25.179" fill="#1A1F71" width="6.762" height="2.021"/>
	<path fill="#1A1F71" d="M53.85,76.443c1.591,0,2.887-1.286,2.887-2.864s-1.296-2.86-2.887-2.86c-1.595,0-2.89,1.282-2.89,2.86
		S52.256,76.443,53.85,76.443"/>
	<path fill="#1A1F71" d="M96.315,67.442c-4.892,0-8.858,3.933-8.858,8.784c0,4.291,3.104,7.856,7.205,8.626V104
		c0,10.999-9.022,19.947-20.113,19.947S54.432,115,54.432,104v-7.934c14.898-0.365,26.905-12.486,26.905-27.344V48.797
		c0-0.905-0.742-1.64-1.654-1.64h-4.091c-0.5-0.958-1.417-1.66-2.513-1.869V17.935c0-2.053-1.666-3.727-3.727-3.762h-31.01
		c-2.062,0.035-3.726,1.709-3.726,3.762v27.438c-1.034,0.226-1.856,0.896-2.32,1.784h-4.495c-0.914,0-1.654,0.734-1.654,1.64v19.927
		c0,14.211,10.983,25.923,24.977,27.234V104c0,12.81,10.506,23.228,23.422,23.228S97.968,116.809,97.968,104V84.852
		c4.104-0.77,7.206-4.336,7.206-8.626C105.175,71.375,101.207,67.442,96.315,67.442 M36.924,17.935c0-0.813,0.666-1.473,1.485-1.473
		h30.88c0.817,0,1.484,0.659,1.484,1.473v6.738h-33.85V17.935z M36.924,26.962h33.851V56.03c-0.319-0.922-0.687-1.688-1.111-2.161
		c0,0-2.146-1.471-4.202-1.997c0,0-3.762-0.756-5.582-2.796l-0.412-0.495l-0.174-2.417c0,0,1.027-1.313,1.586-3.232
		c0,0,1.086-0.496,0.938-2.825v-0.788c0,0-0.294-0.408-0.527,0.262c0,0,0.882-6.363-2.204-8.318c0,0-1.223-1.486-4.953-1.616
		c-3.728,0.13-4.953,1.616-4.953,1.616c-3.084,1.955-2.202,8.318-2.202,8.318c-0.237-0.67-0.528-0.262-0.528-0.262v0.788
		c-0.15,2.329,0.937,2.825,0.937,2.825c0.559,1.921,1.588,3.232,1.588,3.232l-0.585,2.912c-1.821,2.04-5.584,2.796-5.584,2.796
		c-2.057,0.525-4.202,1.997-4.202,1.997c-0.704,0.782-1.252,2.34-1.677,4.142V26.962H36.924z M65.605,57.799
		c-0.086-0.108-0.219-0.16-0.363-0.157c-0.142,0.011-0.268,0.087-0.338,0.208l-1.111,1.859l-1.522-3.021
		c-0.069-0.142-0.212-0.23-0.37-0.236c-0.158,0.003-0.304,0.076-0.384,0.211l-2.244,3.817l-2.421-2.845
		c-0.076-0.09-0.186-0.145-0.303-0.149c-0.112-0.007-0.232,0.034-0.318,0.114l-1.271,1.188c-0.612-3.26,1.531-4.47,3.154-4.47
		c1.098,0,2.11,0.578,2.58,1.462c0.466-0.884,1.46-1.462,2.571-1.462c1.603,0,3.701,1.183,3.166,4.354h-0.119L65.605,57.799z
		 M66.234,59.522c-1.229,3.641-5.542,5.793-5.542,5.793s-4.155-2.077-5.478-5.599h0.001l1.272-1.188l2.52,2.96
		c0.081,0.096,0.201,0.152,0.327,0.152c0.013,0,0.023-0.001,0.036-0.003c0.139-0.012,0.264-0.09,0.333-0.208l2.153-3.66l1.521,3.015
		c0.068,0.139,0.211,0.23,0.366,0.235c0.146-0.002,0.304-0.075,0.383-0.208l1.195-2l0.446,0.552c0.08,0.101,0.204,0.159,0.334,0.159
		H66.234z M36.924,69.416h33.851v6.739c0,0.813-0.667,1.473-1.484,1.473H38.41c-0.819,0-1.485-0.658-1.485-1.473L36.924,69.416
		L36.924,69.416z M29.458,68.723V50.438h2.854c0.464,0.876,1.281,1.538,2.307,1.831v23.886c0,2.074,1.699,3.761,3.792,3.761h30.88
		c2.091,0,3.791-1.687,3.791-3.761V52.282c1.088-0.208,1.996-0.9,2.499-1.845h2.449v18.286c0,13.278-10.895,24.081-24.285,24.081
		C40.352,92.804,29.458,82.002,29.458,68.723"/>
</g>
</svg>
