<svg xmlns="http://www.w3.org/2000/svg" width="67.96" height="53.03" viewBox="0 0 67.96 53.03"><defs><style>.a{fill:#fff;}</style></defs><g transform="translate(-230.001 -239)"><g transform="translate(230.001 239)"><path class="a" d="M92.61,74.707l-5.58-30.782a3.345,3.345,0,0,0-3.915-2.7l-49.5,9a3.313,3.313,0,0,0-2.7,3.915l.36,2.025h-3.2A3.4,3.4,0,0,0,24.7,59.541V90.818a3.4,3.4,0,0,0,3.375,3.375H78.389a3.4,3.4,0,0,0,3.375-3.375V80.108l8.146-1.485A3.427,3.427,0,0,0,92.61,74.707ZM78.569,90.818a.213.213,0,0,1-.225.225H28.03a.213.213,0,0,1-.225-.225V59.5a.213.213,0,0,1,.225-.225H78.344a.213.213,0,0,1,.225.225Zm10.756-15.3-7.606,1.4V59.5a3.4,3.4,0,0,0-3.375-3.375H34.421l-.45-2.61c0-.09,0-.135.045-.18s.09-.09.135-.09l49.549-9a.23.23,0,0,1,.225.18L89.5,75.2C89.5,75.382,89.46,75.517,89.325,75.517Z" transform="translate(-24.7 -41.163)"/><path class="a" d="M78.23,104.3,75.8,115.506h2.925L81.11,104.3Z" transform="translate(-52.803 -75.886)"/><path class="a" d="M58.621,104.3l-3.015,7.651-1.215-6.48a1.345,1.345,0,0,0-1.35-1.125H48.09l-.09.315a13.511,13.511,0,0,1,2.88.945c.45.225.54.45.675.99l2.3,8.956h3.06L61.636,104.3Z" transform="translate(-37.514 -75.886)"/><path class="a" d="M110.38,104.245a1.277,1.277,0,0,0-1.215.81l-4.365,10.4h3.06l.585-1.665h3.735l.36,1.665h2.7L112.9,104.2h-2.52Zm-1.08,7.246,1.53-4.23.9,4.23Z" transform="translate(-68.752 -75.831)"/><path class="a" d="M90.93,107.13c0-.405.405-.81,1.215-.945a5.782,5.782,0,0,1,2.88.5l.5-2.385a7.61,7.61,0,0,0-2.7-.5c-2.88,0-4.905,1.53-4.905,3.735,0,1.62,1.44,2.52,2.565,3.06s1.53.9,1.485,1.4c0,.765-.9,1.08-1.755,1.08a5.824,5.824,0,0,1-2.97-.72l-.54,2.475a8.5,8.5,0,0,0,3.24.585c3.06,0,5.04-1.53,5.04-3.825C95.026,108.615,90.885,108.435,90.93,107.13Z" transform="translate(-58.798 -75.611)"/></g></g></svg>