<svg xmlns="http://www.w3.org/2000/svg" width="28.526" height="33.405" viewBox="0 0 28.526 33.405"><defs><style>.a{fill:#1a1f71;}</style></defs><g transform="translate(132.864 214.476)"><g transform="translate(-132.864 -214.476)"><path class="a" d="M-114.788-197.176l1.783-.681a.581.581,0,0,0,.363-.652l-.485-2.522a1.9,1.9,0,0,1,.206-1.284l1.249-2.244a.581.581,0,0,0-.141-.734l-1.993-1.62a1.9,1.9,0,0,1-.667-1.115l-.486-2.523a.585.585,0,0,0-.58-.471l-2.568.04a1.885,1.885,0,0,1-1.228-.425l-1.993-1.62a.58.58,0,0,0-.366-.13.579.579,0,0,0-.38.142l-1.942,1.682a1.9,1.9,0,0,1-1.214.463l-2.568.04a.581.581,0,0,0-.564.489l-.406,2.536a1.9,1.9,0,0,1-.633,1.136l-1.941,1.681a.581.581,0,0,0-.118.737l1.319,2.2a1.9,1.9,0,0,1,.246,1.277l-.319,1.989a1.241,1.241,0,0,0,.819,1.368l1.28.443a.66.66,0,0,1,.408.84h0a.66.66,0,0,1-.839.408l-1.281-.443a2.56,2.56,0,0,1-1.69-2.825l.319-1.989a.58.58,0,0,0-.075-.39l-1.319-2.2a1.9,1.9,0,0,1,.386-2.412l1.941-1.681a.579.579,0,0,0,.193-.347l.406-2.536a1.9,1.9,0,0,1,1.847-1.6l2.568-.04a.581.581,0,0,0,.371-.142l1.941-1.681a1.9,1.9,0,0,1,2.443-.038l1.993,1.62a.6.6,0,0,0,.375.13l2.568-.04a1.9,1.9,0,0,1,1.9,1.541l.486,2.522a.581.581,0,0,0,.2.341l1.993,1.62a1.9,1.9,0,0,1,.462,2.4l-1.249,2.244a.582.582,0,0,0-.063.393l.485,2.522a1.9,1.9,0,0,1-1.188,2.135l-1.783.681a.66.66,0,0,1-.852-.381h0A.66.66,0,0,1-114.788-197.176Z" transform="translate(132.864 214.476)"/></g><g transform="translate(-124.288 -208.704)"><g transform="translate(0 0)"><path class="a" d="M-91.754-176.8a4.946,4.946,0,0,1-1.8-.438.562.562,0,0,1-.281-.7h0a.569.569,0,0,1,.776-.319,4.236,4.236,0,0,0,1.719.381c1.128,0,1.891-.651,1.891-1.557,0-.874-.62-1.414-1.8-1.891-1.621-.636-2.622-1.382-2.622-2.765a2.6,2.6,0,0,1,2.384-2.558v-1.089a.5.5,0,0,1,.5-.5h0a.5.5,0,0,1,.5.5v1.041a4.531,4.531,0,0,1,1.59.324.55.55,0,0,1,.3.705h0a.553.553,0,0,1-.734.314,3.76,3.76,0,0,0-1.486-.295c-1.224,0-1.685.731-1.685,1.383,0,.81.588,1.224,1.971,1.811,1.637.668,2.463,1.478,2.463,2.892a2.714,2.714,0,0,1-2.32,2.667,2.771,2.771,0,0,1-.384.047l-.635.04A2.978,2.978,0,0,1-91.754-176.8Z" transform="translate(93.872 188.234)"/></g></g><g transform="translate(-131.134 -197.721)"><g transform="translate(0 2.92)"><path class="a" d="M-109.738-119.472h-6.051a.66.66,0,0,1-.66-.66.66.66,0,0,1,.66-.66h6.051a1.443,1.443,0,0,0,1.295-.816l.019-.04a1.436,1.436,0,0,0-.2-1.554,1.434,1.434,0,0,0-1.09-.5h-9.545a2.89,2.89,0,0,0-2.031.827l-2.583,2.523a.66.66,0,0,1-.933-.011.66.66,0,0,1,.011-.933l2.583-2.523a4.2,4.2,0,0,1,2.953-1.2h9.545a2.751,2.751,0,0,1,2.092.962,2.756,2.756,0,0,1,.393,2.983l-.019.04A2.77,2.77,0,0,1-109.738-119.472Z" transform="translate(124.999 125.022)"/></g><g transform="translate(1.179)"><path class="a" d="M-118.977-121.649a.658.658,0,0,1-.463-.189.66.66,0,0,1-.008-.933l2.038-2.075a4.452,4.452,0,0,1,3.156-1.324h8.575a2.425,2.425,0,0,0,1.687-.679l8.26-7.933a1.285,1.285,0,0,0,.363-1.192,1.284,1.284,0,0,0-1.248-1.005h-.212a1.284,1.284,0,0,0-.909.381l-5.954,6.04a.66.66,0,0,1-.933.007.66.66,0,0,1-.007-.933l5.954-6.04a2.612,2.612,0,0,1,1.849-.774h.212a2.611,2.611,0,0,1,2.537,2.045,2.613,2.613,0,0,1-.739,2.424l-8.26,7.933a3.738,3.738,0,0,1-2.6,1.047h-8.575a3.124,3.124,0,0,0-2.215.929l-2.038,2.075A.658.658,0,0,1-118.977-121.649Z" transform="translate(119.637 138.299)"/></g></g></g></svg>