<svg xmlns="http://www.w3.org/2000/svg" xmlns:xlink="http://www.w3.org/1999/xlink" width="31.65" height="18.97" viewBox="0 0 31.65 18.97"><defs><style>.a{fill:none;}.b{fill:#1a1f71;}.c{clip-path:url(#a);}.d{fill:#142a8c;}.e{fill:#132a8d;}.f{fill:#132b8e;}.g{fill:#132b8f;}.h{fill:#132b90;}.i{fill:#132b91;}.j{fill:#132c92;}.k{fill:#132c93;}.l{fill:#132c94;}.m{fill:#122c95;}.n{fill:#122d96;}.o{fill:#122d97;}.p{fill:#122d98;}.q{fill:#252259;}.r{fill:#242259;}.s{fill:#232159;}.t{fill:#222159;}.u{fill:#212059;}.v{fill:#20205a;}.w{fill:#1e205a;}.x{fill:#1d1f5a;}.y{fill:#1c1f5a;}.z{fill:#1b1e5a;}.aa{fill:#1a1e5a;}.ab{fill:#1a1e5b;}.ac{fill:#1a1e5c;}.ad{fill:#1a1f5d;}.ae{fill:#191f5e;}.af{fill:#191f5f;}.ag{fill:#191f60;}.ah{fill:#192061;}.ai{fill:#192062;}.aj{fill:#192063;}.ak{fill:#192064;}.al{fill:#192165;}.am{fill:#182166;}.an{fill:#172370;}.ao{fill:#172471;}.ap{fill:#172472;}.aq{fill:#172473;}.ar{fill:#172474;}.as{fill:#162575;}.at{fill:#162576;}.au{fill:#162577;}.av{fill:#162578;}.aw{fill:#16267a;}.ax{fill:#16267b;}.ay{fill:#182167;}.az{fill:#182168;}.ba{fill:#182269;}.bb{fill:#18226a;}.bc{fill:#18226b;}.bd{fill:#18226c;}.be{fill:#18236d;}.bf{fill:#16267c;}.bg{fill:#16267d;}.bh{fill:#15277e;}.bi{fill:#15277f;}.bj{fill:#152780;}.bk{fill:#152781;}.bl{fill:#152882;}.bm{fill:#152883;}.bn{fill:#152884;}.bo{fill:#142885;}.bp{fill:#142986;}.bq{fill:#142987;}.br{fill:#142988;}.bs{fill:#142989;}.bt{fill:#142a8a;}.bu{fill:#142a8b;}</style><clipPath id="a"><path class="a" d="M1191.458-203.372a15.744,15.744,0,0,1,11.156,6.33l-11.654-1.092.5-5.238Zm-6.991,4.623,4.545.425.471-5.055C1184.232-202.934,1184.467-198.749,1184.467-198.749Zm6.291,2.361a.67.67,0,0,0,.608.732l2.531.236a.67.67,0,0,0,.732-.608h0a.67.67,0,0,0-.608-.732l-2.531-.236a.669.669,0,0,0-.732.608Zm-6.7,4.872a2.543,2.543,0,0,0-2.544,2.544,2.543,2.543,0,0,0,2.544,2.544,2.543,2.543,0,0,0,2.544-2.544A2.543,2.543,0,0,0,1184.062-191.516Zm20.07,0a2.542,2.542,0,0,0-2.544,2.544,2.542,2.542,0,0,0,2.544,2.544,2.543,2.543,0,0,0,2.544-2.544A2.543,2.543,0,0,0,1204.132-191.516Z" transform="translate(-1181.518 203.379)"/></clipPath></defs><g transform="translate(-1162.088 213.858)"><g transform="translate(1162.088 -213.858)"><path class="b" d="M1193.651-196.932h-2.107l-.013-.565a3.1,3.1,0,0,0-3.078-3.006,3.1,3.1,0,0,0-3.078,3.006l-.013.565h-13.9l-.013-.565a3.1,3.1,0,0,0-3.078-3.006,3.1,3.1,0,0,0-3.078,3.006l-.013.565h-1.112l-.106-.044a2.974,2.974,0,0,1-1.86-1.924c-.454-1.561.5-3.35.906-4.018a9.622,9.622,0,0,1,.156-7.283,1.908,1.908,0,0,1-.655-.989l-.151-.643.657-.064a8.663,8.663,0,0,0,1.34-.269h0l.126-.043c5.854-1.97,11.213-2.175,15.927-.61a20.412,20.412,0,0,1,8.88,5.945,4.2,4.2,0,0,1,3.814,4.2,4.216,4.216,0,0,1-.134,1.052c.765.948.694,3.157.616,4.159Zm-21.092-1.156h11.712a4.265,4.265,0,0,1,4.182-3.571,4.266,4.266,0,0,1,4.122,3.268,4.584,4.584,0,0,0-.418-2.533l-.458-.229.173-.482a3.1,3.1,0,0,0,.182-1.042,3.045,3.045,0,0,0-2.953-3.058l-.251-.008-.165-.19c-4.033-4.628-11.4-9.282-23.6-5.223l-.012.011-.157.053c-.182.051-.385.1-.6.156l.5.2-.283.564a8.5,8.5,0,0,0-.236,7.1l.118.292-.18.257c-.368.528-1.251,2.15-.914,3.3a1.713,1.713,0,0,0,.892,1.035,4.266,4.266,0,0,1,4.165-3.472A4.265,4.265,0,0,1,1172.559-198.089Z" transform="translate(-1162.088 213.858)"/><g transform="translate(3.745 2.02)"><g class="c"><rect class="d" width="0.226" height="5.088" transform="translate(20.07 11.863)"/><rect class="e" width="0.405" height="5.088" transform="translate(20.296 11.863)"/><rect class="f" width="0.405" height="5.088" transform="translate(20.702 11.863)"/><rect class="g" width="0.405" height="5.088" transform="translate(21.107 11.863)"/><rect class="h" width="0.405" height="5.088" transform="translate(21.512 11.863)"/><rect class="i" width="0.405" height="5.088" transform="translate(21.917 11.863)"/><rect class="j" width="0.405" height="5.088" transform="translate(22.322 11.863)"/><rect class="k" width="0.405" height="5.088" transform="translate(22.727 11.863)"/><rect class="l" width="0.405" height="5.088" transform="translate(23.132 11.863)"/><rect class="m" width="0.405" height="5.088" transform="translate(23.537 11.863)"/><rect class="n" width="0.405" height="5.088" transform="translate(23.943 11.863)"/><rect class="o" width="0.405" height="5.088" transform="translate(24.348 11.863)"/><rect class="p" width="0.405" height="5.088" transform="translate(24.753 11.863)"/><path class="p" d="M1312.051-136.74v0Z" transform="translate(-1286.893 153.691)"/><path class="q" d="M1181.518-141.828v0Z" transform="translate(-1181.518 153.691)"/><rect class="q" width="0.004" height="5.088" transform="translate(0 11.863)"/><rect class="r" width="0.004" height="5.088" transform="translate(0.004 11.863)"/><rect class="s" width="0.004" height="5.088" transform="translate(0.007 11.863)"/><rect class="t" width="0.004" height="5.088" transform="translate(0.011 11.863)"/><rect class="u" width="0.004" height="5.088" transform="translate(0.015 11.863)"/><rect class="v" width="0.004" height="5.088" transform="translate(0.018 11.863)"/><rect class="w" width="0.004" height="5.088" transform="translate(0.022 11.863)"/><rect class="x" width="0.004" height="5.088" transform="translate(0.026 11.863)"/><rect class="y" width="0.004" height="5.088" transform="translate(0.029 11.863)"/><rect class="z" width="0.004" height="5.088" transform="translate(0.033 11.863)"/><rect class="aa" width="0.004" height="5.088" transform="translate(0.037 11.863)"/><rect class="aa" width="0.405" height="5.088" transform="translate(0.04 11.863)"/><rect class="ab" width="0.405" height="5.088" transform="translate(0.446 11.863)"/><rect class="ac" width="0.405" height="5.088" transform="translate(0.851 11.863)"/><rect class="ad" width="0.405" height="5.088" transform="translate(1.256 11.863)"/><rect class="ae" width="0.405" height="5.088" transform="translate(1.661 11.863)"/><rect class="af" width="0.405" height="5.088" transform="translate(2.066 11.863)"/><rect class="ag" width="0.405" height="5.088" transform="translate(2.471 11.863)"/><rect class="ah" width="0.405" height="5.088" transform="translate(2.876 11.863)"/><rect class="ai" width="0.405" height="5.088" transform="translate(3.281 11.863)"/><rect class="aj" width="0.405" height="5.088" transform="translate(3.686 11.863)"/><rect class="ak" width="0.405" height="5.088" transform="translate(4.092 11.863)"/><rect class="al" width="0.405" height="5.088" transform="translate(4.497 11.863)"/><rect class="am" width="0.186" height="5.088" transform="translate(4.902 11.863)"/><rect class="an" width="0.15" height="1.648" transform="translate(9.208 6.343)"/><rect class="ao" width="0.405" height="1.648" transform="translate(9.358 6.343)"/><rect class="ap" width="0.405" height="1.648" transform="translate(9.763 6.343)"/><rect class="aq" width="0.405" height="1.648" transform="translate(10.168 6.343)"/><rect class="ar" width="0.405" height="1.648" transform="translate(10.574 6.343)"/><rect class="as" width="0.405" height="1.648" transform="translate(10.979 6.343)"/><rect class="at" width="0.405" height="1.648" transform="translate(11.384 6.343)"/><rect class="au" width="0.405" height="1.648" transform="translate(11.789 6.343)"/><rect class="av" width="0.405" height="1.648" transform="translate(12.194 6.343)"/><rect class="aw" width="0.405" height="1.648" transform="translate(12.599 6.343)"/><rect class="ax" width="0.14" height="1.648" transform="translate(13.004 6.343)"/><rect class="ag" width="0.162" height="5.055" transform="translate(2.714 0)"/><rect class="ah" width="0.405" height="5.055" transform="translate(2.876 0)"/><rect class="ai" width="0.405" height="5.055" transform="translate(3.281 0)"/><rect class="aj" width="0.405" height="5.055" transform="translate(3.686 0)"/><rect class="ak" width="0.405" height="5.055" transform="translate(4.092 0)"/><rect class="al" width="0.405" height="5.055" transform="translate(4.497 0)"/><rect class="am" width="0.405" height="5.055" transform="translate(4.902 0)"/><rect class="ay" width="0.405" height="5.055" transform="translate(5.307 0)"/><rect class="az" width="0.405" height="5.055" transform="translate(5.712 0)"/><rect class="ba" width="0.405" height="5.055" transform="translate(6.117 0)"/><rect class="bb" width="0.405" height="5.055" transform="translate(6.522 0)"/><rect class="bc" width="0.405" height="5.055" transform="translate(6.927 0)"/><rect class="bd" width="0.405" height="5.055" transform="translate(7.333 0)"/><rect class="be" width="0.228" height="5.055" transform="translate(7.738 0)"/><rect class="ao" width="0.32" height="6.337" transform="translate(9.443 0)"/><rect class="ap" width="0.405" height="6.337" transform="translate(9.763 0)"/><rect class="aq" width="0.405" height="6.337" transform="translate(10.168 0)"/><rect class="ar" width="0.405" height="6.337" transform="translate(10.574 0)"/><rect class="as" width="0.405" height="6.337" transform="translate(10.979 0)"/><rect class="at" width="0.405" height="6.337" transform="translate(11.384 0)"/><rect class="au" width="0.405" height="6.337" transform="translate(11.789 0)"/><rect class="av" width="0.405" height="6.337" transform="translate(12.194 0)"/><rect class="aw" width="0.405" height="6.337" transform="translate(12.599 0)"/><rect class="ax" width="0.405" height="6.337" transform="translate(13.004 0)"/><rect class="bf" width="0.405" height="6.337" transform="translate(13.409 0)"/><rect class="bg" width="0.405" height="6.337" transform="translate(13.815 0)"/><rect class="bh" width="0.405" height="6.337" transform="translate(14.22 0)"/><rect class="bi" width="0.405" height="6.337" transform="translate(14.625 0)"/><rect class="bj" width="0.405" height="6.337" transform="translate(15.03 0)"/><rect class="bk" width="0.405" height="6.337" transform="translate(15.435 0)"/><rect class="bl" width="0.405" height="6.337" transform="translate(15.84 0)"/><rect class="bm" width="0.405" height="6.337" transform="translate(16.245 0)"/><rect class="bn" width="0.405" height="6.337" transform="translate(16.65 0)"/><rect class="bo" width="0.405" height="6.337" transform="translate(17.055 0)"/><rect class="bp" width="0.405" height="6.337" transform="translate(17.461 0)"/><rect class="bq" width="0.405" height="6.337" transform="translate(17.866 0)"/><rect class="br" width="0.405" height="6.337" transform="translate(18.271 0)"/><rect class="bs" width="0.405" height="6.337" transform="translate(18.676 0)"/><rect class="bt" width="0.405" height="6.337" transform="translate(19.081 0)"/><rect class="bu" width="0.405" height="6.337" transform="translate(19.486 0)"/><rect class="d" width="0.405" height="6.337" transform="translate(19.891 0)"/><rect class="e" width="0.405" height="6.337" transform="translate(20.296 0)"/><rect class="f" width="0.395" height="6.337" transform="translate(20.702 0)"/></g></g></g></g></svg>