<svg xmlns="http://www.w3.org/2000/svg" width="24.347" height="24.274" viewBox="0 0 24.347 24.274"><defs><style>.a{fill:#1a1f71;}</style></defs><g transform="translate(-1389.149 213.862)"><path class="a" d="M1404.672-189.588h-6.7a1.206,1.206,0,0,1-1.2-1.205v-6.377h-6.413a1.207,1.207,0,0,1-1.206-1.205v-6.7a1.207,1.207,0,0,1,1.206-1.205h6.413v-6.377a1.206,1.206,0,0,1,1.2-1.205h6.7a1.207,1.207,0,0,1,1.205,1.205v6.377h6.413a1.206,1.206,0,0,1,1.205,1.205v6.7a1.206,1.206,0,0,1-1.205,1.205h-6.413v6.377A1.207,1.207,0,0,1,1404.672-189.588Zm-6.377-1.527h6.055V-198.7h7.619v-6.055h-7.619v-7.582h-6.055v7.582h-7.619v6.055h7.619Z" transform="translate(0 0)"/></g></svg>