<svg xmlns="http://www.w3.org/2000/svg" xmlns:xlink="http://www.w3.org/1999/xlink" width="22" height="32" viewBox="0 0 22 32"><defs><style>.a{fill:none;}.b{clip-path:url(#a);}.c{fill:#252259;}.d{fill:#242259;}.e{fill:#232159;}.f{fill:#222159;}.g{fill:#212059;}.h{fill:#20205a;}.i{fill:#1e205a;}.j{fill:#1d1f5a;}.k{fill:#1c1f5a;}.l{fill:#1b1e5a;}.m{fill:#1a1e5a;}.n{fill:#1a1e5b;}.o{fill:#1a1e5c;}.p{fill:#1a1f5d;}.q{fill:#191f5e;}.r{fill:#191f5f;}.s{fill:#191f60;}.t{fill:#192061;}.u{fill:#192062;}.v{fill:#192063;}.w{fill:#192064;}.x{fill:#192165;}.y{fill:#182166;}.z{fill:#182167;}.aa{fill:#182168;}.ab{fill:#182269;}.ac{fill:#18226a;}.ad{fill:#18226b;}.ae{fill:#18226c;}.af{fill:#18236d;}.ag{fill:#17236e;}.ah{fill:#17236f;}.ai{fill:#172370;}.aj{fill:#172471;}.ak{fill:#172472;}.al{fill:#172473;}.am{fill:#172474;}.an{fill:#162575;}.ao{fill:#162576;}.ap{fill:#162577;}.aq{fill:#162578;}.ar{fill:#16267a;}.as{fill:#16267b;}.at{fill:#16267c;}.au{fill:#16267d;}.av{fill:#15277e;}.aw{fill:#15277f;}.ax{fill:#152780;}.ay{fill:#152781;}.az{fill:#152882;}.ba{fill:#152883;}.bb{fill:#152884;}.bc{fill:#142885;}.bd{fill:#142986;}.be{fill:#142987;}.bf{fill:#142988;}.bg{fill:#142989;}.bh{fill:#142a8a;}.bi{fill:#142a8b;}.bj{fill:#142a8c;}.bk{fill:#132a8d;}.bl{fill:#132b8e;}.bm{fill:#132b8f;}.bn{fill:#132b90;}.bo{fill:#132b91;}.bp{fill:#132c92;}.bq{fill:#132c93;}.br{fill:#132c94;}.bs{fill:#122c95;}.bt{fill:#122d96;}.bu{fill:#122d97;}.bv{fill:#122d98;}.bw{clip-path:url(#b);}.bx{fill:#1a1f71;}</style><clipPath id="a"><path class="a" d="M1575.551-193.08h-2.222a.137.137,0,0,1-.137-.137V-195.3a.137.137,0,0,1,.137-.137h2.233v-2.222a.137.137,0,0,1,.137-.138h2.085a.137.137,0,0,1,.137.138v2.222h2.233a.137.137,0,0,1,.138.137v2.085a.137.137,0,0,1-.138.137h-2.233v2.222a.137.137,0,0,1-.137.137H1575.7a.137.137,0,0,1-.137-.137v-2.222Z" transform="translate(-1573.191 197.799)"/></clipPath><clipPath id="b"><path class="a" d="M1539.67-253.871v30a2,2,0,0,0,2,2h18a2,2,0,0,0,2-2v-30Zm2,2h18v24h-18Zm12,28h-6v-2h6Z" transform="translate(-1539.67 253.871)"/></clipPath></defs><g transform="translate(-1539.67 253.871)"><g transform="translate(1547.119 -241.411)"><g class="b"><path class="c" d="M1573.191-197.8v0Z" transform="translate(-1573.191 197.799)"/><rect class="c" width="0.001" height="7.079" transform="translate(0 0)"/><rect class="d" width="0.001" height="7.079" transform="translate(0.001 0)"/><rect class="e" width="0.001" height="7.079" transform="translate(0.002 0)"/><rect class="f" width="0.001" height="7.079" transform="translate(0.003 0)"/><rect class="g" width="0.001" height="7.079" transform="translate(0.004 0)"/><rect class="h" width="0.001" height="7.079" transform="translate(0.005 0)"/><rect class="i" width="0.001" height="7.079" transform="translate(0.006 0)"/><rect class="j" width="0.001" height="7.079" transform="translate(0.007 0)"/><rect class="k" width="0.001" height="7.079" transform="translate(0.008 0)"/><rect class="l" width="0.001" height="7.079" transform="translate(0.009 0)"/><rect class="m" width="0.001" height="7.079" transform="translate(0.01 0)"/><rect class="m" width="0.114" height="7.079" transform="translate(0.011 0)"/><rect class="n" width="0.114" height="7.079" transform="translate(0.126 0)"/><rect class="o" width="0.114" height="7.079" transform="translate(0.24 0)"/><rect class="p" width="0.114" height="7.079" transform="translate(0.354 0)"/><rect class="q" width="0.114" height="7.079" transform="translate(0.469 0)"/><rect class="r" width="0.114" height="7.079" transform="translate(0.583 0)"/><rect class="s" width="0.114" height="7.079" transform="translate(0.698 0)"/><rect class="t" width="0.114" height="7.079" transform="translate(0.812 0)"/><rect class="u" width="0.114" height="7.079" transform="translate(0.926 0)"/><rect class="v" width="0.114" height="7.079" transform="translate(1.041 0)"/><rect class="w" width="0.114" height="7.079" transform="translate(1.155 0)"/><rect class="x" width="0.114" height="7.079" transform="translate(1.269 0)"/><rect class="y" width="0.114" height="7.079" transform="translate(1.384 0)"/><rect class="z" width="0.114" height="7.079" transform="translate(1.498 0)"/><rect class="aa" width="0.114" height="7.079" transform="translate(1.612 0)"/><rect class="ab" width="0.114" height="7.079" transform="translate(1.727 0)"/><rect class="ac" width="0.114" height="7.079" transform="translate(1.841 0)"/><rect class="ad" width="0.114" height="7.079" transform="translate(1.955 0)"/><rect class="ae" width="0.114" height="7.079" transform="translate(2.07 0)"/><rect class="af" width="0.114" height="7.079" transform="translate(2.184 0)"/><rect class="ag" width="0.114" height="7.079" transform="translate(2.299 0)"/><rect class="ah" width="0.114" height="7.079" transform="translate(2.413 0)"/><rect class="ai" width="0.114" height="7.079" transform="translate(2.527 0)"/><rect class="aj" width="0.114" height="7.079" transform="translate(2.642 0)"/><rect class="ak" width="0.114" height="7.079" transform="translate(2.756 0)"/><rect class="al" width="0.114" height="7.079" transform="translate(2.87 0)"/><rect class="am" width="0.114" height="7.079" transform="translate(2.985 0)"/><rect class="an" width="0.114" height="7.079" transform="translate(3.099 0)"/><rect class="ao" width="0.114" height="7.079" transform="translate(3.213 0)"/><rect class="ap" width="0.114" height="7.079" transform="translate(3.328 0)"/><rect class="aq" width="0.114" height="7.079" transform="translate(3.442 0)"/><rect class="ar" width="0.114" height="7.079" transform="translate(3.556 0)"/><rect class="as" width="0.114" height="7.079" transform="translate(3.671 0)"/><rect class="at" width="0.114" height="7.079" transform="translate(3.785 0)"/><rect class="au" width="0.114" height="7.079" transform="translate(3.9 0)"/><rect class="av" width="0.114" height="7.079" transform="translate(4.014 0)"/><rect class="aw" width="0.114" height="7.079" transform="translate(4.128 0)"/><rect class="ax" width="0.114" height="7.079" transform="translate(4.243 0)"/><rect class="ay" width="0.114" height="7.079" transform="translate(4.357 0)"/><rect class="az" width="0.114" height="7.079" transform="translate(4.471 0)"/><rect class="ba" width="0.114" height="7.079" transform="translate(4.586 0)"/><rect class="bb" width="0.114" height="7.079" transform="translate(4.7 0)"/><rect class="bc" width="0.114" height="7.079" transform="translate(4.814 0)"/><rect class="bd" width="0.114" height="7.079" transform="translate(4.929 0)"/><rect class="be" width="0.114" height="7.079" transform="translate(5.043 0)"/><rect class="bf" width="0.114" height="7.079" transform="translate(5.157 0)"/><rect class="bg" width="0.114" height="7.079" transform="translate(5.272 0)"/><rect class="bh" width="0.114" height="7.079" transform="translate(5.386 0)"/><rect class="bi" width="0.114" height="7.079" transform="translate(5.501 0)"/><rect class="bj" width="0.114" height="7.079" transform="translate(5.615 0)"/><rect class="bk" width="0.114" height="7.079" transform="translate(5.729 0)"/><rect class="bl" width="0.114" height="7.079" transform="translate(5.844 0)"/><rect class="bm" width="0.114" height="7.079" transform="translate(5.958 0)"/><rect class="bn" width="0.114" height="7.079" transform="translate(6.072 0)"/><rect class="bo" width="0.114" height="7.079" transform="translate(6.187 0)"/><rect class="bp" width="0.114" height="7.079" transform="translate(6.301 0)"/><rect class="bq" width="0.114" height="7.079" transform="translate(6.415 0)"/><rect class="br" width="0.114" height="7.079" transform="translate(6.53 0)"/><rect class="bs" width="0.114" height="7.079" transform="translate(6.644 0)"/><rect class="bt" width="0.114" height="7.079" transform="translate(6.758 0)"/><rect class="bu" width="0.114" height="7.079" transform="translate(6.873 0)"/><rect class="bv" width="0.114" height="7.079" transform="translate(6.987 0)"/><path class="bv" d="M1605.148-190.72v0Z" transform="translate(-1598.046 197.799)"/></g></g><g transform="translate(1539.67 -253.871)"><g class="bw"><path class="v" d="M1575.67-121.785l.951.648h-.951Z" transform="translate(-1567.67 151.138)"/><path class="w" d="M1575.67-125.161l2.054,1.4h-1.1l-.951-.648Z" transform="translate(-1567.67 153.763)"/><path class="x" d="M1575.887-127.871l2.939,2h-1.1l-2.054-1.4v-.6Z" transform="translate(-1567.67 155.871)"/><path class="y" d="M1577.75-127.871l2.939,2h-1.1l-2.939-2Z" transform="translate(-1568.431 155.871)"/><path class="z" d="M1582.711-127.871l2.939,2h-1.1l-2.939-2Z" transform="translate(-1572.289 155.871)"/><path class="aa" d="M1587.671-127.871l2.476,1.685v.315h-.639l-2.939-2Z" transform="translate(-1576.147 155.871)"/><path class="ab" d="M1592.631-127.871l1.373.935v.75l-2.476-1.685Z" transform="translate(-1580.005 155.871)"/><path class="ac" d="M1597.592-127.871l.271.185v.75l-1.373-.935Z" transform="translate(-1583.863 155.871)"/><path class="ad" d="M1601.721-127.687l-.271-.185h.271Z" transform="translate(-1587.721 155.871)"/><path class="v" d="M1548.67-140.161l1.074.731h-1.074Z" transform="translate(-1546.67 165.43)"/><path class="w" d="M1548.67-143.537l2.177,1.481h-1.1l-1.074-.731Z" transform="translate(-1546.67 168.056)"/><path class="x" d="M1548.67-146.913l3.279,2.232h-1.1l-2.177-1.481Z" transform="translate(-1546.67 170.682)"/><path class="y" d="M1548.67-150.289l4.381,2.982h-1.1l-3.279-2.232Z" transform="translate(-1546.67 173.307)"/><path class="z" d="M1548.67-153.665l5.484,3.732h-1.1l-4.381-2.982Z" transform="translate(-1546.67 175.933)"/><path class="aa" d="M1548.67-157.041l6.586,4.482h-1.1l-5.484-3.732Z" transform="translate(-1546.67 178.559)"/><path class="ab" d="M1548.67-160.417l7.688,5.232h-1.1l-6.586-4.482Z" transform="translate(-1546.67 181.185)"/><path class="ac" d="M1548.67-163.793l8.79,5.983h-1.1l-7.688-5.232Z" transform="translate(-1546.67 183.811)"/><path class="ad" d="M1548.67-167.169l9.893,6.733h-1.1l-8.79-5.983Z" transform="translate(-1546.67 186.436)"/><path class="ae" d="M1548.67-170.545l10.995,7.483h-1.1l-9.893-6.733Z" transform="translate(-1546.67 189.062)"/><path class="af" d="M1548.67-173.921l12.1,8.233h-1.1l-10.995-7.483Z" transform="translate(-1546.67 191.688)"/><path class="ag" d="M1548.67-177.3l13.2,8.984h-1.1l-12.1-8.233Z" transform="translate(-1546.67 194.314)"/><path class="ah" d="M1548.67-180.673l14.3,9.734h-1.1l-13.2-8.984Z" transform="translate(-1546.67 196.939)"/><path class="ai" d="M1548.67-184.049l15.4,10.484h-1.1l-14.3-9.734Z" transform="translate(-1546.67 199.565)"/><path class="aj" d="M1548.67-187.425l16.506,11.234h-1.1l-15.4-10.484Z" transform="translate(-1546.67 202.191)"/><path class="ak" d="M1548.67-190.8l17.609,11.984h-1.1l-16.506-11.234Z" transform="translate(-1546.67 204.817)"/><path class="al" d="M1548.67-194.177l18,12.251v.484h-.391l-17.609-11.984Z" transform="translate(-1546.67 207.442)"/><path class="am" d="M1548.67-197.553l18,12.251v.75l-18-12.251Z" transform="translate(-1546.67 210.068)"/><path class="an" d="M1548.67-200.929l18,12.251v.75l-18-12.251Z" transform="translate(-1546.67 212.694)"/><path class="ao" d="M1548.67-204.305l18,12.251v.75l-18-12.251Z" transform="translate(-1546.67 215.32)"/><path class="ap" d="M1548.67-207.681l18,12.251v.75l-18-12.251Z" transform="translate(-1546.67 217.945)"/><path class="aq" d="M1548.67-211.057l18,12.251v.75l-18-12.251Z" transform="translate(-1546.67 220.571)"/><path class="ar" d="M1548.67-214.433l18,12.251v.75l-18-12.251Z" transform="translate(-1546.67 223.197)"/><path class="as" d="M1548.67-217.809l18,12.251v.75l-18-12.251Z" transform="translate(-1546.67 225.823)"/><path class="at" d="M1548.67-221.185l18,12.251v.75l-18-12.251Z" transform="translate(-1546.67 228.448)"/><path class="au" d="M1548.67-224.561l18,12.251v.75l-18-12.251Z" transform="translate(-1546.67 231.074)"/><path class="av" d="M1548.67-227.937l18,12.251v.75l-18-12.251Z" transform="translate(-1546.67 233.7)"/><path class="aw" d="M1548.67-231.313l18,12.251v.75l-18-12.251Z" transform="translate(-1546.67 236.326)"/><path class="ax" d="M1548.67-234.689l18,12.251v.75l-18-12.251Z" transform="translate(-1546.67 238.952)"/><path class="ay" d="M1548.67-238.065l18,12.251v.75l-18-12.251Z" transform="translate(-1546.67 241.577)"/><path class="az" d="M1548.67-241.441l18,12.251v.75l-18-12.251Z" transform="translate(-1546.67 244.203)"/><path class="ba" d="M1548.67-244.817l18,12.251v.75l-18-12.251Z" transform="translate(-1546.67 246.829)"/><path class="bb" d="M1549.754-244.871l16.915,11.513v.75l-18-12.251v-.012Z" transform="translate(-1546.67 246.871)"/><path class="bc" d="M1554.652-244.871l15.813,10.762v.75l-16.916-11.513Z" transform="translate(-1550.465 246.871)"/><path class="bd" d="M1559.612-244.871l14.711,10.012v.75l-15.813-10.762Z" transform="translate(-1554.323 246.871)"/><path class="be" d="M1564.573-244.871l13.609,9.262v.75l-14.711-10.012Z" transform="translate(-1558.182 246.871)"/><path class="bf" d="M1569.533-244.871l12.506,8.512v.75l-13.609-9.262Z" transform="translate(-1562.039 246.871)"/><path class="bg" d="M1574.493-244.871l11.4,7.762v.75l-12.506-8.512Z" transform="translate(-1565.898 246.871)"/><path class="bh" d="M1579.454-244.871l10.3,7.011v.75l-11.4-7.762Z" transform="translate(-1569.755 246.871)"/><path class="bi" d="M1584.414-244.871l9.2,6.261v.75l-10.3-7.011Z" transform="translate(-1573.613 246.871)"/><path class="bj" d="M1589.374-244.871l8.1,5.511v.75l-9.2-6.261Z" transform="translate(-1577.472 246.871)"/><path class="bk" d="M1594.334-244.871l6.995,4.761v.75l-8.1-5.511Z" transform="translate(-1581.329 246.871)"/><path class="bl" d="M1599.295-244.871l5.893,4.011v.75l-6.995-4.761Z" transform="translate(-1585.187 246.871)"/><path class="bm" d="M1604.255-244.871l4.79,3.26v.75l-5.893-4.011Z" transform="translate(-1589.045 246.871)"/><path class="bn" d="M1609.215-244.871l3.688,2.51v.75l-4.79-3.26Z" transform="translate(-1592.904 246.871)"/><path class="bo" d="M1614.176-244.871l2.586,1.76v.75l-3.688-2.51Z" transform="translate(-1596.761 246.871)"/><path class="bp" d="M1619.136-244.871l1.483,1.01v.75l-2.586-1.76Z" transform="translate(-1600.619 246.871)"/><path class="bq" d="M1624.1-244.871l.381.259v.75l-1.484-1.01Z" transform="translate(-1604.477 246.871)"/><path class="br" d="M1628.335-244.612l-.381-.259h.381Z" transform="translate(-1608.335 246.871)"/><path class="c" d="M1539.67-112.191l.758.516h-.758Z" transform="translate(-1539.67 143.676)"/><path class="c" d="M1539.67-112.222l.767.522h-.01l-.758-.516Z" transform="translate(-1539.67 143.699)"/><path class="d" d="M1539.67-112.252l.777.529h-.01l-.767-.522Z" transform="translate(-1539.67 143.723)"/><path class="e" d="M1539.67-112.283l.787.536h-.01l-.777-.529Z" transform="translate(-1539.67 143.747)"/><path class="f" d="M1539.67-112.313l.8.543h-.01l-.787-.536Z" transform="translate(-1539.67 143.771)"/><path class="g" d="M1539.67-112.344l.807.549h-.01l-.8-.543Z" transform="translate(-1539.67 143.794)"/><path class="h" d="M1539.67-112.374l.817.556h-.01l-.807-.549Z" transform="translate(-1539.67 143.818)"/><path class="i" d="M1539.67-112.4l.827.563h-.01l-.817-.556Z" transform="translate(-1539.67 143.842)"/><path class="j" d="M1539.67-112.436l.837.57h-.01l-.827-.563Z" transform="translate(-1539.67 143.866)"/><path class="k" d="M1539.67-112.466l.847.577h-.01l-.837-.57Z" transform="translate(-1539.67 143.889)"/><path class="l" d="M1539.67-112.5l.857.583h-.01l-.847-.577Z" transform="translate(-1539.67 143.913)"/><path class="m" d="M1539.67-112.527l.867.59h-.01l-.857-.583Z" transform="translate(-1539.67 143.937)"/><path class="m" d="M1539.67-115.9l1.969,1.34h-1.1l-.867-.59Z" transform="translate(-1539.67 146.563)"/><path class="n" d="M1539.67-119.279l3.072,2.091h-1.1l-1.969-1.34Z" transform="translate(-1539.67 149.188)"/><path class="o" d="M1539.67-122.655l4.174,2.841h-1.1l-3.072-2.091Z" transform="translate(-1539.67 151.814)"/><path class="p" d="M1539.67-126.031l5.276,3.591h-1.1l-4.174-2.841Z" transform="translate(-1539.67 154.44)"/><path class="q" d="M1539.67-129.407l6.379,4.341h-1.1l-5.276-3.591Z" transform="translate(-1539.67 157.066)"/><path class="r" d="M1539.67-132.783l7.481,5.092h-1.1l-6.379-4.341Z" transform="translate(-1539.67 159.691)"/><path class="s" d="M1539.67-136.159l8.583,5.842h-1.1l-7.481-5.092Z" transform="translate(-1539.67 162.317)"/><path class="t" d="M1539.67-139.535l9.685,6.592h-1.1l-8.583-5.842Z" transform="translate(-1539.67 164.943)"/><path class="u" d="M1539.67-142.911l10.788,7.342h-1.1l-9.685-6.592Z" transform="translate(-1539.67 167.569)"/><path class="v" d="M1539.67-146.287l11.89,8.092h-1.1l-10.788-7.342Z" transform="translate(-1539.67 170.194)"/><path class="w" d="M1539.67-149.663l12.992,8.843h-1.1l-11.89-8.092Z" transform="translate(-1539.67 172.82)"/><path class="x" d="M1539.67-153.039l14.095,9.593h-1.1l-12.992-8.843Z" transform="translate(-1539.67 175.446)"/><path class="y" d="M1539.67-156.415l15.2,10.343h-1.1l-14.095-9.593Z" transform="translate(-1539.67 178.072)"/><path class="z" d="M1539.67-159.791l16.3,11.093h-1.1l-15.2-10.343Z" transform="translate(-1539.67 180.697)"/><path class="aa" d="M1539.67-163.167l17.4,11.843h-1.1l-16.3-11.093Z" transform="translate(-1539.67 183.323)"/><path class="ab" d="M1539.67-166.543l18.5,12.594h-1.1l-17.4-11.843Z" transform="translate(-1539.67 185.949)"/><path class="ac" d="M1539.67-169.919l19.606,13.344h-1.1l-18.5-12.594Z" transform="translate(-1539.67 188.575)"/><path class="ad" d="M1539.67-173.295l20.708,14.094h-1.1l-19.606-13.344Z" transform="translate(-1539.67 191.201)"/><path class="ae" d="M1539.67-176.671l21.811,14.844h-1.1L1539.67-175.92Z" transform="translate(-1539.67 193.826)"/><path class="af" d="M1539.67-180.047l22,14.973v.516l-.072.105h-.118L1539.67-179.3Z" transform="translate(-1539.67 196.452)"/><path class="ag" d="M1539.67-183.423l22,14.973v.75l-22-14.973Z" transform="translate(-1539.67 199.078)"/><path class="ah" d="M1539.67-186.8l22,14.973v.75l-22-14.973Z" transform="translate(-1539.67 201.704)"/><path class="ai" d="M1539.67-190.175l22,14.973v.75l-22-14.973Z" transform="translate(-1539.67 204.329)"/><path class="aj" d="M1539.67-193.551l22,14.973v.75l-22-14.973Z" transform="translate(-1539.67 206.955)"/><path class="ak" d="M1539.67-196.927l22,14.973v.75l-22-14.973Z" transform="translate(-1539.67 209.581)"/><path class="al" d="M1539.67-200.3l22,14.973v.75l-22-14.973Z" transform="translate(-1539.67 212.207)"/><path class="am" d="M1539.67-203.678l22,14.973v.75l-22-14.973Z" transform="translate(-1539.67 214.832)"/><path class="an" d="M1539.67-207.055l22,14.973v.75l-22-14.973Z" transform="translate(-1539.67 217.458)"/><path class="ao" d="M1539.67-210.43l22,14.973v.75l-22-14.973Z" transform="translate(-1539.67 220.084)"/><path class="ap" d="M1539.67-213.806l22,14.973v.75l-22-14.973Z" transform="translate(-1539.67 222.71)"/><path class="aq" d="M1539.67-217.182l22,14.973v.75l-22-14.973Z" transform="translate(-1539.67 225.335)"/><path class="ar" d="M1539.67-220.558l22,14.973v.75l-22-14.973Z" transform="translate(-1539.67 227.961)"/><path class="as" d="M1539.67-223.934l22,14.973v.75l-22-14.973Z" transform="translate(-1539.67 230.587)"/><path class="at" d="M1539.67-227.31l22,14.973v.75l-22-14.973Z" transform="translate(-1539.67 233.213)"/><path class="au" d="M1539.67-230.686l22,14.973v.75l-22-14.973Z" transform="translate(-1539.67 235.838)"/><path class="av" d="M1539.67-234.062l22,14.973v.75l-22-14.973Z" transform="translate(-1539.67 238.464)"/><path class="aw" d="M1539.67-237.438l22,14.973v.75l-22-14.973Z" transform="translate(-1539.67 241.09)"/><path class="ax" d="M1539.67-240.814l22,14.973v.75l-22-14.973Z" transform="translate(-1539.67 243.716)"/><path class="ay" d="M1539.67-244.19l22,14.973v.75l-22-14.973Z" transform="translate(-1539.67 246.342)"/><path class="az" d="M1539.67-247.566l22,14.973v.75l-22-14.973Z" transform="translate(-1539.67 248.967)"/><path class="ba" d="M1539.67-250.942l22,14.973v.75l-22-14.973Z" transform="translate(-1539.67 251.593)"/><path class="bb" d="M1539.816-253.871,1561.67-239v.75l-22-14.973v-.651Z" transform="translate(-1539.67 253.871)"/><path class="bc" d="M1541.429-253.871l20.752,14.124v.75l-21.854-14.874Z" transform="translate(-1540.18 253.871)"/><path class="bd" d="M1546.389-253.871l19.649,13.373v.75l-20.752-14.124Z" transform="translate(-1544.038 253.871)"/><path class="be" d="M1551.349-253.871l18.547,12.623v.75l-19.649-13.373Z" transform="translate(-1547.896 253.871)"/><path class="bf" d="M1556.31-253.871,1573.754-242v.75l-18.547-12.623Z" transform="translate(-1551.755 253.871)"/><path class="bg" d="M1561.27-253.871l16.343,11.123v.75l-17.445-11.873Z" transform="translate(-1555.613 253.871)"/><path class="bh" d="M1566.23-253.871l15.24,10.373v.75l-16.343-11.123Z" transform="translate(-1559.47 253.871)"/><path class="bi" d="M1571.19-253.871l14.138,9.622v.75l-15.24-10.373Z" transform="translate(-1563.328 253.871)"/><path class="bj" d="M1576.15-253.871,1589.186-245v.75l-14.138-9.622Z" transform="translate(-1567.186 253.871)"/><path class="bk" d="M1581.111-253.871l11.933,8.122v.75l-13.036-8.872Z" transform="translate(-1571.044 253.871)"/><path class="bl" d="M1586.071-253.871,1596.9-246.5v.75l-11.933-8.122Z" transform="translate(-1574.902 253.871)"/><path class="bm" d="M1591.031-253.871l9.729,6.622v.75l-10.831-7.372Z" transform="translate(-1578.76 253.871)"/><path class="bn" d="M1595.992-253.871l8.627,5.871v.75l-9.729-6.622Z" transform="translate(-1582.619 253.871)"/><path class="bo" d="M1600.952-253.871l7.524,5.121v.75l-8.627-5.871Z" transform="translate(-1586.476 253.871)"/><path class="bp" d="M1605.912-253.871l6.422,4.371v.75l-7.524-5.121Z" transform="translate(-1590.334 253.871)"/><path class="bq" d="M1610.872-253.871l5.32,3.621v.75l-6.422-4.371Z" transform="translate(-1594.192 253.871)"/><path class="br" d="M1615.833-253.871l4.218,2.87v.75l-5.32-3.621Z" transform="translate(-1598.05 253.871)"/><path class="bs" d="M1620.793-253.871l3.115,2.12v.75l-4.218-2.87Z" transform="translate(-1601.908 253.871)"/><path class="bt" d="M1625.753-253.871l2.013,1.37v.75l-3.115-2.12Z" transform="translate(-1605.766 253.871)"/><path class="bu" d="M1630.714-253.871l.911.62v.75l-2.013-1.37Z" transform="translate(-1609.624 253.871)"/><path class="bv" d="M1635.482-253.251l-.911-.62h.911Z" transform="translate(-1613.482 253.871)"/></g></g><g transform="translate(1543.801 -244.74)"><path class="bx" d="M1565.129-199.043a6.877,6.877,0,0,1-6.869-6.869,6.877,6.877,0,0,1,6.869-6.869,6.877,6.877,0,0,1,6.869,6.869A6.877,6.877,0,0,1,1565.129-199.043Zm0-12.4a5.542,5.542,0,0,0-5.536,5.536,5.542,5.542,0,0,0,5.536,5.536,5.542,5.542,0,0,0,5.535-5.536A5.542,5.542,0,0,0,1565.129-211.448Z" transform="translate(-1558.26 212.781)"/></g></g></svg>