<svg xmlns="http://www.w3.org/2000/svg" xmlns:xlink="http://www.w3.org/1999/xlink" width="26.369" height="25.739" viewBox="0 0 26.369 25.739"><defs><style>.a{fill:none;}.b{fill:#1a1f71;}.c{clip-path:url(#a);}.d{fill:#252259;}.e{fill:#242259;}.f{fill:#232159;}.g{fill:#222159;}.h{fill:#212059;}.i{fill:#20205a;}.j{fill:#1e205a;}.k{fill:#1d1f5a;}.l{fill:#1c1f5a;}.m{fill:#1b1e5a;}.n{fill:#1a1e5a;}.o{fill:#1a1e5b;}.p{fill:#1a1e5c;}.q{fill:#1a1f5d;}.r{fill:#191f5e;}.s{fill:#191f5f;}.t{fill:#191f60;}.u{fill:#192061;}.v{fill:#192062;}.w{fill:#192063;}.x{fill:#192064;}.y{fill:#192165;}.z{fill:#182166;}.aa{fill:#182167;}.ab{fill:#182168;}.ac{fill:#182269;}.ad{fill:#18226a;}.ae{fill:#18226b;}.af{fill:#18226c;}.ag{fill:#18236d;}.ah{fill:#17236e;}.ai{fill:#17236f;}.aj{fill:#172370;}.ak{fill:#172471;}.al{fill:#172472;}.am{fill:#172473;}.an{fill:#172474;}.ao{fill:#162575;}.ap{fill:#162576;}.aq{fill:#162577;}.ar{fill:#162578;}.as{fill:#16267a;}.at{fill:#16267b;}.au{fill:#16267c;}.av{fill:#16267d;}.aw{fill:#15277e;}.ax{fill:#15277f;}.ay{fill:#152780;}.az{fill:#152781;}.ba{fill:#152882;}.bb{fill:#152883;}.bc{fill:#152884;}.bd{fill:#142885;}.be{fill:#142986;}.bf{fill:#142987;}.bg{fill:#142988;}.bh{fill:#142989;}.bi{fill:#142a8a;}.bj{fill:#142a8b;}.bk{fill:#142a8c;}.bl{fill:#132a8d;}.bm{fill:#132b8e;}.bn{fill:#132b8f;}.bo{fill:#132b90;}.bp{fill:#132b91;}.bq{fill:#132c92;}.br{fill:#132c93;}.bs{fill:#132c94;}.bt{fill:#122c95;}.bu{fill:#122d96;}.bv{fill:#122d97;}.bw{fill:#122d98;}.bx{clip-path:url(#c);}</style><clipPath id="a"><circle class="a" cx="1.593" cy="1.593" r="1.593"/></clipPath><clipPath id="c"><path class="a" d="M1777.976-179.785l-3.92-3.92-3.92,3.92v-3.325l3.92-3.92,3.92,3.92Z" transform="translate(-1770.136 187.03)"/></clipPath></defs><g transform="translate(-1719.986 243.015)"><g transform="translate(1719.986 -239.156)"><path class="b" d="M1744.222-202.912h-22.1a2.135,2.135,0,0,1-2.133-2.133v-14.947a2.136,2.136,0,0,1,2.133-2.133h22.1a2.136,2.136,0,0,1,2.133,2.133v14.947A2.135,2.135,0,0,1,1744.222-202.912Zm-22.1-18.1a1.026,1.026,0,0,0-1.024,1.025v14.947a1.026,1.026,0,0,0,1.024,1.025h22.1a1.026,1.026,0,0,0,1.025-1.025v-14.947a1.026,1.026,0,0,0-1.025-1.025Z" transform="translate(-1719.986 222.125)"/></g><g transform="translate(1728.701 -243.015)"><path class="b" d="M1775.078-238.047h-6.9a1.023,1.023,0,0,1-1.022-1.022v-2.924a1.023,1.023,0,0,1,1.022-1.022h6.9a1.023,1.023,0,0,1,1.022,1.022v2.924A1.023,1.023,0,0,1,1775.078-238.047Zm-6.809-1.108h6.722v-2.751h-6.722Z" transform="translate(-1767.161 243.015)"/></g><g transform="translate(1725.061 -220.462)"><g transform="translate(0 0)"><g class="c"><path class="d" d="M1747.46-120.934v0Z" transform="translate(-1747.46 120.934)"/><rect class="d" height="3.187"/><rect class="e" height="3.187" transform="translate(0)"/><rect class="f" height="3.187" transform="translate(0.001)"/><rect class="g" height="3.187" transform="translate(0.001)"/><rect class="h" height="3.187" transform="translate(0.002)"/><rect class="i" height="3.187" transform="translate(0.002)"/><rect class="j" height="3.187" transform="translate(0.003)"/><rect class="k" height="3.187" transform="translate(0.003)"/><rect class="l" height="3.187" transform="translate(0.004)"/><rect class="m" height="3.187" transform="translate(0.004)"/><rect class="n" height="3.187" transform="translate(0.005)"/><rect class="n" width="0.051" height="3.187" transform="translate(0.005)"/><rect class="o" width="0.051" height="3.187" transform="translate(0.056)"/><rect class="p" width="0.051" height="3.187" transform="translate(0.108)"/><rect class="q" width="0.051" height="3.187" transform="translate(0.159)"/><rect class="r" width="0.051" height="3.187" transform="translate(0.21)"/><rect class="s" width="0.051" height="3.187" transform="translate(0.262)"/><rect class="t" width="0.051" height="3.187" transform="translate(0.313)"/><rect class="u" width="0.051" height="3.187" transform="translate(0.364)"/><rect class="v" width="0.051" height="3.187" transform="translate(0.416)"/><rect class="w" width="0.051" height="3.187" transform="translate(0.467)"/><rect class="x" width="0.051" height="3.187" transform="translate(0.518)"/><rect class="y" width="0.051" height="3.187" transform="translate(0.57)"/><rect class="z" width="0.051" height="3.187" transform="translate(0.621)"/><rect class="aa" width="0.051" height="3.187" transform="translate(0.672)"/><rect class="ab" width="0.051" height="3.187" transform="translate(0.724)"/><rect class="ac" width="0.051" height="3.187" transform="translate(0.775)"/><rect class="ad" width="0.051" height="3.187" transform="translate(0.826)"/><rect class="ae" width="0.051" height="3.187" transform="translate(0.877)"/><rect class="af" width="0.051" height="3.187" transform="translate(0.929)"/><rect class="ag" width="0.051" height="3.187" transform="translate(0.98)"/><rect class="ah" width="0.051" height="3.187" transform="translate(1.031)"/><rect class="ai" width="0.051" height="3.187" transform="translate(1.083)"/><rect class="aj" width="0.051" height="3.187" transform="translate(1.134)"/><rect class="ak" width="0.051" height="3.187" transform="translate(1.185)"/><rect class="al" width="0.051" height="3.187" transform="translate(1.237)"/><rect class="am" width="0.051" height="3.187" transform="translate(1.288)"/><rect class="an" width="0.051" height="3.187" transform="translate(1.339)"/><rect class="ao" width="0.051" height="3.187" transform="translate(1.391)"/><rect class="ap" width="0.051" height="3.187" transform="translate(1.442)"/><rect class="aq" width="0.051" height="3.187" transform="translate(1.493)"/><rect class="ar" width="0.051" height="3.187" transform="translate(1.545)"/><rect class="as" width="0.051" height="3.187" transform="translate(1.596)"/><rect class="at" width="0.051" height="3.187" transform="translate(1.647)"/><rect class="au" width="0.051" height="3.187" transform="translate(1.699)"/><rect class="av" width="0.051" height="3.187" transform="translate(1.75)"/><rect class="aw" width="0.051" height="3.187" transform="translate(1.801)"/><rect class="ax" width="0.051" height="3.187" transform="translate(1.852)"/><rect class="ay" width="0.051" height="3.187" transform="translate(1.904)"/><rect class="az" width="0.051" height="3.187" transform="translate(1.955)"/><rect class="ba" width="0.051" height="3.187" transform="translate(2.006)"/><rect class="bb" width="0.051" height="3.187" transform="translate(2.058)"/><rect class="bc" width="0.051" height="3.187" transform="translate(2.109)"/><rect class="bd" width="0.051" height="3.187" transform="translate(2.16)"/><rect class="be" width="0.051" height="3.187" transform="translate(2.212)"/><rect class="bf" width="0.051" height="3.187" transform="translate(2.263)"/><rect class="bg" width="0.051" height="3.187" transform="translate(2.314)"/><rect class="bh" width="0.051" height="3.187" transform="translate(2.366)"/><rect class="bi" width="0.051" height="3.187" transform="translate(2.417)"/><rect class="bj" width="0.051" height="3.187" transform="translate(2.468)"/><rect class="bk" width="0.051" height="3.187" transform="translate(2.52)"/><rect class="bl" width="0.051" height="3.187" transform="translate(2.571)"/><rect class="bm" width="0.051" height="3.187" transform="translate(2.622)"/><rect class="bn" width="0.051" height="3.187" transform="translate(2.673)"/><rect class="bo" width="0.051" height="3.187" transform="translate(2.725)"/><rect class="bp" width="0.051" height="3.187" transform="translate(2.776)"/><rect class="bq" width="0.051" height="3.187" transform="translate(2.827)"/><rect class="br" width="0.051" height="3.187" transform="translate(2.879)"/><rect class="bs" width="0.051" height="3.187" transform="translate(2.93)"/><rect class="bt" width="0.051" height="3.187" transform="translate(2.981)"/><rect class="bu" width="0.051" height="3.187" transform="translate(3.033)"/><rect class="bv" width="0.051" height="3.187" transform="translate(3.084)"/><rect class="bw" width="0.051" height="3.187" transform="translate(3.135)"/><path class="bw" d="M1764.709-117.747v0Z" transform="translate(-1761.522 120.934)"/></g></g></g><g transform="translate(1737.738 -220.462)"><g transform="translate(0 0)"><g class="c"><path class="d" d="M1816.078-120.934v0Z" transform="translate(-1816.078 120.934)"/><rect class="d" height="3.187"/><rect class="e" height="3.187" transform="translate(0)"/><rect class="f" height="3.187" transform="translate(0.001)"/><rect class="g" height="3.187" transform="translate(0.001)"/><rect class="h" height="3.187" transform="translate(0.002)"/><rect class="i" height="3.187" transform="translate(0.002)"/><rect class="j" height="3.187" transform="translate(0.003)"/><rect class="k" height="3.187" transform="translate(0.003)"/><rect class="l" height="3.187" transform="translate(0.004)"/><rect class="m" height="3.187" transform="translate(0.004)"/><rect class="n" height="3.187" transform="translate(0.005)"/><rect class="n" width="0.051" height="3.187" transform="translate(0.005)"/><rect class="o" width="0.051" height="3.187" transform="translate(0.056)"/><rect class="p" width="0.051" height="3.187" transform="translate(0.108)"/><rect class="q" width="0.051" height="3.187" transform="translate(0.159)"/><rect class="r" width="0.051" height="3.187" transform="translate(0.21)"/><rect class="s" width="0.051" height="3.187" transform="translate(0.262)"/><rect class="t" width="0.051" height="3.187" transform="translate(0.313)"/><rect class="u" width="0.051" height="3.187" transform="translate(0.364)"/><rect class="v" width="0.051" height="3.187" transform="translate(0.416)"/><rect class="w" width="0.051" height="3.187" transform="translate(0.467)"/><rect class="x" width="0.051" height="3.187" transform="translate(0.518)"/><rect class="y" width="0.051" height="3.187" transform="translate(0.57)"/><rect class="z" width="0.051" height="3.187" transform="translate(0.621)"/><rect class="aa" width="0.051" height="3.187" transform="translate(0.672)"/><rect class="ab" width="0.051" height="3.187" transform="translate(0.724)"/><rect class="ac" width="0.051" height="3.187" transform="translate(0.775)"/><rect class="ad" width="0.051" height="3.187" transform="translate(0.826)"/><rect class="ae" width="0.051" height="3.187" transform="translate(0.877)"/><rect class="af" width="0.051" height="3.187" transform="translate(0.929)"/><rect class="ag" width="0.051" height="3.187" transform="translate(0.98)"/><rect class="ah" width="0.051" height="3.187" transform="translate(1.031)"/><rect class="ai" width="0.051" height="3.187" transform="translate(1.083)"/><rect class="aj" width="0.051" height="3.187" transform="translate(1.134)"/><rect class="ak" width="0.051" height="3.187" transform="translate(1.185)"/><rect class="al" width="0.051" height="3.187" transform="translate(1.237)"/><rect class="am" width="0.051" height="3.187" transform="translate(1.288)"/><rect class="an" width="0.051" height="3.187" transform="translate(1.339)"/><rect class="ao" width="0.051" height="3.187" transform="translate(1.391)"/><rect class="ap" width="0.051" height="3.187" transform="translate(1.442)"/><rect class="aq" width="0.051" height="3.187" transform="translate(1.493)"/><rect class="ar" width="0.051" height="3.187" transform="translate(1.545)"/><rect class="as" width="0.051" height="3.187" transform="translate(1.596)"/><rect class="at" width="0.051" height="3.187" transform="translate(1.647)"/><rect class="au" width="0.051" height="3.187" transform="translate(1.699)"/><rect class="av" width="0.051" height="3.187" transform="translate(1.75)"/><rect class="aw" width="0.051" height="3.187" transform="translate(1.801)"/><rect class="ax" width="0.051" height="3.187" transform="translate(1.852)"/><rect class="ay" width="0.051" height="3.187" transform="translate(1.904)"/><rect class="az" width="0.051" height="3.187" transform="translate(1.955)"/><rect class="ba" width="0.051" height="3.187" transform="translate(2.006)"/><rect class="bb" width="0.051" height="3.187" transform="translate(2.058)"/><rect class="bc" width="0.051" height="3.187" transform="translate(2.109)"/><rect class="bd" width="0.051" height="3.187" transform="translate(2.16)"/><rect class="be" width="0.051" height="3.187" transform="translate(2.212)"/><rect class="bf" width="0.051" height="3.187" transform="translate(2.263)"/><rect class="bg" width="0.051" height="3.187" transform="translate(2.314)"/><rect class="bh" width="0.051" height="3.187" transform="translate(2.366)"/><rect class="bi" width="0.051" height="3.187" transform="translate(2.417)"/><rect class="bj" width="0.051" height="3.187" transform="translate(2.468)"/><rect class="bk" width="0.051" height="3.187" transform="translate(2.52)"/><rect class="bl" width="0.051" height="3.187" transform="translate(2.571)"/><rect class="bm" width="0.051" height="3.187" transform="translate(2.622)"/><rect class="bn" width="0.051" height="3.187" transform="translate(2.674)"/><rect class="bo" width="0.051" height="3.187" transform="translate(2.725)"/><rect class="bp" width="0.051" height="3.187" transform="translate(2.776)"/><rect class="bq" width="0.051" height="3.187" transform="translate(2.827)"/><rect class="br" width="0.051" height="3.187" transform="translate(2.879)"/><rect class="bs" width="0.051" height="3.187" transform="translate(2.93)"/><rect class="bt" width="0.051" height="3.187" transform="translate(2.981)"/><rect class="bu" width="0.051" height="3.187" transform="translate(3.033)"/><rect class="bv" width="0.051" height="3.187" transform="translate(3.084)"/><rect class="bw" width="0.051" height="3.187" transform="translate(3.135)"/><path class="bw" d="M1833.327-117.747v0Z" transform="translate(-1830.14 120.934)"/></g></g></g><g transform="translate(1729.25 -232.673)"><g transform="translate(0 0)"><g class="bx"><path class="d" d="M1770.136-187.03v0Z" transform="translate(-1770.136 187.03)"/><rect class="d" width="0.001" height="7.245"/><rect class="e" width="0.001" height="7.245" transform="translate(0.001)"/><rect class="f" width="0.001" height="7.245" transform="translate(0.002)"/><rect class="g" width="0.001" height="7.245" transform="translate(0.003)"/><rect class="h" width="0.001" height="7.245" transform="translate(0.005)"/><rect class="i" width="0.001" height="7.245" transform="translate(0.006)"/><rect class="j" width="0.001" height="7.245" transform="translate(0.007)"/><rect class="k" width="0.001" height="7.245" transform="translate(0.008)"/><rect class="l" width="0.001" height="7.245" transform="translate(0.009)"/><rect class="m" width="0.001" height="7.245" transform="translate(0.01)"/><rect class="n" width="0.001" height="7.245" transform="translate(0.011)"/><rect class="n" width="0.126" height="7.245" transform="translate(0.013)"/><rect class="o" width="0.126" height="7.245" transform="translate(0.139)"/><rect class="p" width="0.126" height="7.245" transform="translate(0.265)"/><rect class="q" width="0.126" height="7.245" transform="translate(0.391)"/><rect class="r" width="0.126" height="7.245" transform="translate(0.518)"/><rect class="s" width="0.126" height="7.245" transform="translate(0.644)"/><rect class="t" width="0.126" height="7.245" transform="translate(0.77)"/><rect class="u" width="0.126" height="7.245" transform="translate(0.896)"/><rect class="v" width="0.126" height="7.245" transform="translate(1.023)"/><rect class="w" width="0.126" height="7.245" transform="translate(1.149)"/><rect class="x" width="0.126" height="7.245" transform="translate(1.275)"/><rect class="y" width="0.126" height="7.245" transform="translate(1.401)"/><rect class="z" width="0.126" height="7.245" transform="translate(1.528)"/><rect class="aa" width="0.126" height="7.245" transform="translate(1.654)"/><rect class="ab" width="0.126" height="7.245" transform="translate(1.78)"/><rect class="ac" width="0.126" height="7.245" transform="translate(1.906)"/><rect class="ad" width="0.126" height="7.245" transform="translate(2.033)"/><rect class="ae" width="0.126" height="7.245" transform="translate(2.159)"/><rect class="af" width="0.126" height="7.245" transform="translate(2.285)"/><rect class="ag" width="0.126" height="7.245" transform="translate(2.411)"/><rect class="ah" width="0.126" height="7.245" transform="translate(2.538)"/><rect class="ai" width="0.126" height="7.245" transform="translate(2.664)"/><rect class="aj" width="0.126" height="7.245" transform="translate(2.79)"/><rect class="ak" width="0.126" height="7.245" transform="translate(2.916)"/><rect class="al" width="0.126" height="7.245" transform="translate(3.043)"/><rect class="am" width="0.126" height="7.245" transform="translate(3.169)"/><rect class="an" width="0.126" height="7.245" transform="translate(3.295)"/><rect class="ao" width="0.126" height="7.245" transform="translate(3.421)"/><rect class="ap" width="0.126" height="7.245" transform="translate(3.548)"/><rect class="aq" width="0.126" height="7.245" transform="translate(3.674)"/><rect class="ar" width="0.126" height="7.245" transform="translate(3.8)"/><rect class="as" width="0.126" height="7.245" transform="translate(3.926)"/><rect class="at" width="0.126" height="7.245" transform="translate(4.052)"/><rect class="au" width="0.126" height="7.245" transform="translate(4.179)"/><rect class="av" width="0.126" height="7.245" transform="translate(4.305)"/><rect class="aw" width="0.126" height="7.245" transform="translate(4.431)"/><rect class="ax" width="0.126" height="7.245" transform="translate(4.557)"/><rect class="ay" width="0.126" height="7.245" transform="translate(4.684)"/><rect class="az" width="0.126" height="7.245" transform="translate(4.81)"/><rect class="ba" width="0.126" height="7.245" transform="translate(4.936)"/><rect class="bb" width="0.126" height="7.245" transform="translate(5.062)"/><rect class="bc" width="0.126" height="7.245" transform="translate(5.189)"/><rect class="bd" width="0.126" height="7.245" transform="translate(5.315)"/><rect class="be" width="0.126" height="7.245" transform="translate(5.441)"/><rect class="bf" width="0.126" height="7.245" transform="translate(5.567)"/><rect class="bg" width="0.126" height="7.245" transform="translate(5.694)"/><rect class="bh" width="0.126" height="7.245" transform="translate(5.82)"/><rect class="bi" width="0.126" height="7.245" transform="translate(5.946)"/><rect class="bj" width="0.126" height="7.245" transform="translate(6.072)"/><rect class="bk" width="0.126" height="7.245" transform="translate(6.199)"/><rect class="bl" width="0.126" height="7.245" transform="translate(6.325)"/><rect class="bm" width="0.126" height="7.245" transform="translate(6.451)"/><rect class="bn" width="0.126" height="7.245" transform="translate(6.577)"/><rect class="bo" width="0.126" height="7.245" transform="translate(6.704)"/><rect class="bp" width="0.126" height="7.245" transform="translate(6.83)"/><rect class="bq" width="0.126" height="7.245" transform="translate(6.956)"/><rect class="br" width="0.126" height="7.245" transform="translate(7.082)"/><rect class="bs" width="0.126" height="7.245" transform="translate(7.209)"/><rect class="bt" width="0.126" height="7.245" transform="translate(7.335)"/><rect class="bu" width="0.126" height="7.245" transform="translate(7.461)"/><rect class="bv" width="0.126" height="7.245" transform="translate(7.587)"/><rect class="bw" width="0.126" height="7.245" transform="translate(7.714)"/><path class="bw" d="M1812.574-179.785v0Z" transform="translate(-1804.734 187.03)"/></g></g></g></g></svg>