<svg xmlns="http://www.w3.org/2000/svg" xmlns:xlink="http://www.w3.org/1999/xlink" width="21.826" height="42.431" viewBox="0 0 21.826 42.431"><defs><style>.a{fill:none;}.b{clip-path:url(#a);}.c{fill:#162575;}.d{fill:#162576;}.e{fill:#162577;}.f{fill:#162578;}.g{fill:#16267a;}.h{fill:#16267b;}.i{fill:#16267c;}.j{fill:#16267d;}.k{fill:#15277e;}.l{fill:#15277f;}.m{fill:#152780;}.n{fill:#152781;}.o{fill:#152882;}.p{fill:#152883;}.q{fill:#152884;}.r{fill:#142885;}.s{fill:#142986;}.t{fill:#142987;}.u{fill:#142988;}.v{fill:#142989;}.w{fill:#142a8a;}.x{fill:#142a8b;}.y{fill:#142a8c;}.z{fill:#132a8d;}.aa{fill:#132b8e;}.ab{fill:#132b8f;}.ac{fill:#132b90;}.ad{fill:#252259;}.ae{fill:#242259;}.af{fill:#232159;}.ag{fill:#222159;}.ah{fill:#212059;}.ai{fill:#20205a;}.aj{fill:#1e205a;}.ak{fill:#1d1f5a;}.al{fill:#1c1f5a;}.am{fill:#1b1e5a;}.an{fill:#1a1e5a;}.ao{fill:#1a1e5b;}.ap{fill:#1a1e5c;}.aq{fill:#1a1f5d;}.ar{fill:#191f5e;}.as{fill:#191f5f;}.at{fill:#191f60;}.au{fill:#192061;}.av{fill:#192062;}.aw{fill:#192063;}.ax{fill:#192064;}.ay{fill:#192165;}.az{fill:#182166;}.ba{fill:#182167;}.bb{fill:#182168;}.bc{fill:#182269;}.bd{fill:#18226a;}.be{fill:#18226b;}.bf{fill:#18226c;}.bg{fill:#18236d;}.bh{fill:#17236e;}.bi{fill:#17236f;}.bj{fill:#172370;}.bk{fill:#172471;}.bl{fill:#172472;}.bm{fill:#172473;}.bn{fill:#172474;}.bo{fill:#132b91;}.bp{fill:#132c92;}.bq{fill:#132c93;}.br{fill:#132c94;}.bs{fill:#122c95;}.bt{fill:#122d96;}.bu{fill:#122d97;}.bv{fill:#122d98;}.bw{clip-path:url(#b);}.bx{fill:#1a1f71;}</style><clipPath id="a"><path class="a" d="M1945.7-261.129a6.323,6.323,0,0,0-6.323,6.323,6.323,6.323,0,0,0,6.323,6.323,6.323,6.323,0,0,0,6.323-6.323A6.323,6.323,0,0,0,1945.7-261.129Zm4.088,7.357-4.725,1.491v-6.95a.637.637,0,0,1,.637-.637.637.637,0,0,1,.637.637v5.213l3.068-.968a.637.637,0,0,1,.8.416A.636.636,0,0,1,1949.787-253.772Z" transform="translate(-1939.376 261.129)"/></clipPath><clipPath id="b"><path class="a" d="M1952.538-128.331l-3.044,6.421-3-6.32a5.358,5.358,0,0,0-2.275,4.383,5.368,5.368,0,0,0,5.368,5.368,5.368,5.368,0,0,0,5.368-5.368A5.36,5.36,0,0,0,1952.538-128.331Z" transform="translate(-1944.221 128.331)"/></clipPath></defs><g transform="translate(-1917.75 281.82)"><g transform="translate(1922.34 -277.428)"><g transform="translate(0 0)"><g class="b"><rect class="c" width="0.036" height="7.587" transform="translate(5.686 1.26)"/><rect class="d" width="0.204" height="7.587" transform="translate(5.722 1.26)"/><rect class="e" width="0.204" height="7.587" transform="translate(5.926 1.26)"/><rect class="f" width="0.204" height="7.587" transform="translate(6.129 1.26)"/><rect class="g" width="0.204" height="7.587" transform="translate(6.333 1.26)"/><rect class="h" width="0.204" height="7.587" transform="translate(6.537 1.26)"/><rect class="i" width="0.204" height="7.587" transform="translate(6.74 1.26)"/><rect class="j" width="0.204" height="7.587" transform="translate(6.944 1.26)"/><rect class="k" width="0.204" height="7.587" transform="translate(7.148 1.26)"/><rect class="l" width="0.204" height="7.587" transform="translate(7.351 1.26)"/><rect class="m" width="0.204" height="7.587" transform="translate(7.555 1.26)"/><rect class="n" width="0.204" height="7.587" transform="translate(7.758 1.26)"/><rect class="o" width="0.204" height="7.587" transform="translate(7.962 1.26)"/><rect class="p" width="0.204" height="7.587" transform="translate(8.166 1.26)"/><rect class="q" width="0.204" height="7.587" transform="translate(8.369 1.26)"/><rect class="r" width="0.204" height="7.587" transform="translate(8.573 1.26)"/><rect class="s" width="0.204" height="7.587" transform="translate(8.777 1.26)"/><rect class="t" width="0.204" height="7.587" transform="translate(8.98 1.26)"/><rect class="u" width="0.204" height="7.587" transform="translate(9.184 1.26)"/><rect class="v" width="0.204" height="7.587" transform="translate(9.388 1.26)"/><rect class="w" width="0.204" height="7.587" transform="translate(9.591 1.26)"/><rect class="x" width="0.204" height="7.587" transform="translate(9.795 1.26)"/><rect class="y" width="0.204" height="7.587" transform="translate(9.998 1.26)"/><rect class="z" width="0.204" height="7.587" transform="translate(10.202 1.26)"/><rect class="aa" width="0.204" height="7.587" transform="translate(10.406 1.26)"/><rect class="ab" width="0.204" height="7.587" transform="translate(10.609 1.26)"/><rect class="ac" width="0.119" height="7.587" transform="translate(10.813 1.26)"/><path class="ad" d="M1939.376-261.129v0Z" transform="translate(-1939.376 261.129)"/><rect class="ad" width="0.002" height="12.646" transform="translate(0 0)"/><rect class="ae" width="0.002" height="12.646" transform="translate(0.002 0)"/><rect class="af" width="0.002" height="12.646" transform="translate(0.004 0)"/><rect class="ag" width="0.002" height="12.646" transform="translate(0.005 0)"/><rect class="ah" width="0.002" height="12.646" transform="translate(0.007 0)"/><rect class="ai" width="0.002" height="12.646" transform="translate(0.009 0)"/><rect class="aj" width="0.002" height="12.646" transform="translate(0.011 0)"/><rect class="ak" width="0.002" height="12.646" transform="translate(0.013 0)"/><rect class="al" width="0.002" height="12.646" transform="translate(0.015 0)"/><rect class="am" width="0.002" height="12.646" transform="translate(0.017 0)"/><rect class="an" width="0.002" height="12.646" transform="translate(0.018 0)"/><rect class="an" width="0.204" height="12.646" transform="translate(0.02 0)"/><rect class="ao" width="0.204" height="12.646" transform="translate(0.224 0)"/><rect class="ap" width="0.204" height="12.646" transform="translate(0.428 0)"/><rect class="aq" width="0.204" height="12.646" transform="translate(0.631 0)"/><rect class="ar" width="0.204" height="12.646" transform="translate(0.835 0)"/><rect class="as" width="0.204" height="12.646" transform="translate(1.038 0)"/><rect class="at" width="0.204" height="12.646" transform="translate(1.242 0)"/><rect class="au" width="0.204" height="12.646" transform="translate(1.446 0)"/><rect class="av" width="0.204" height="12.646" transform="translate(1.649 0)"/><rect class="aw" width="0.204" height="12.646" transform="translate(1.853 0)"/><rect class="ax" width="0.204" height="12.646" transform="translate(2.057 0)"/><rect class="ay" width="0.204" height="12.646" transform="translate(2.26 0)"/><rect class="az" width="0.204" height="12.646" transform="translate(2.464 0)"/><rect class="ba" width="0.204" height="12.646" transform="translate(2.668 0)"/><rect class="bb" width="0.204" height="12.646" transform="translate(2.871 0)"/><rect class="bc" width="0.204" height="12.646" transform="translate(3.075 0)"/><rect class="bd" width="0.204" height="12.646" transform="translate(3.278 0)"/><rect class="be" width="0.204" height="12.646" transform="translate(3.482 0)"/><rect class="bf" width="0.204" height="12.646" transform="translate(3.686 0)"/><rect class="bg" width="0.204" height="12.646" transform="translate(3.889 0)"/><rect class="bh" width="0.204" height="12.646" transform="translate(4.093 0)"/><rect class="bi" width="0.204" height="12.646" transform="translate(4.297 0)"/><rect class="bj" width="0.204" height="12.646" transform="translate(4.5 0)"/><rect class="bk" width="0.204" height="12.646" transform="translate(4.704 0)"/><rect class="bl" width="0.204" height="12.646" transform="translate(4.908 0)"/><rect class="bm" width="0.204" height="12.646" transform="translate(5.111 0)"/><rect class="bn" width="0.204" height="12.646" transform="translate(5.315 0)"/><rect class="c" width="0.204" height="12.646" transform="translate(5.518 0)"/><rect class="d" width="0.204" height="12.646" transform="translate(5.722 0)"/><rect class="e" width="0.204" height="12.646" transform="translate(5.926 0)"/><rect class="f" width="0.204" height="12.646" transform="translate(6.129 0)"/><rect class="g" width="0.204" height="12.646" transform="translate(6.333 0)"/><rect class="h" width="0.204" height="12.646" transform="translate(6.537 0)"/><rect class="i" width="0.204" height="12.646" transform="translate(6.74 0)"/><rect class="j" width="0.204" height="12.646" transform="translate(6.944 0)"/><rect class="k" width="0.204" height="12.646" transform="translate(7.148 0)"/><rect class="l" width="0.204" height="12.646" transform="translate(7.351 0)"/><rect class="m" width="0.204" height="12.646" transform="translate(7.555 0)"/><rect class="n" width="0.204" height="12.646" transform="translate(7.758 0)"/><rect class="o" width="0.204" height="12.646" transform="translate(7.962 0)"/><rect class="p" width="0.204" height="12.646" transform="translate(8.166 0)"/><rect class="q" width="0.204" height="12.646" transform="translate(8.369 0)"/><rect class="r" width="0.204" height="12.646" transform="translate(8.573 0)"/><rect class="s" width="0.204" height="12.646" transform="translate(8.777 0)"/><rect class="t" width="0.204" height="12.646" transform="translate(8.98 0)"/><rect class="u" width="0.204" height="12.646" transform="translate(9.184 0)"/><rect class="v" width="0.204" height="12.646" transform="translate(9.388 0)"/><rect class="w" width="0.204" height="12.646" transform="translate(9.591 0)"/><rect class="x" width="0.204" height="12.646" transform="translate(9.795 0)"/><rect class="y" width="0.204" height="12.646" transform="translate(9.998 0)"/><rect class="z" width="0.204" height="12.646" transform="translate(10.202 0)"/><rect class="aa" width="0.204" height="12.646" transform="translate(10.406 0)"/><rect class="ab" width="0.204" height="12.646" transform="translate(10.609 0)"/><rect class="ac" width="0.204" height="12.646" transform="translate(10.813 0)"/><rect class="bo" width="0.204" height="12.646" transform="translate(11.017 0)"/><rect class="bp" width="0.204" height="12.646" transform="translate(11.22 0)"/><rect class="bq" width="0.204" height="12.646" transform="translate(11.424 0)"/><rect class="br" width="0.204" height="12.646" transform="translate(11.628 0)"/><rect class="bs" width="0.204" height="12.646" transform="translate(11.831 0)"/><rect class="bt" width="0.204" height="12.646" transform="translate(12.035 0)"/><rect class="bu" width="0.204" height="12.646" transform="translate(12.238 0)"/><rect class="bv" width="0.204" height="12.646" transform="translate(12.442 0)"/><path class="bv" d="M1998.951-248.483v0Z" transform="translate(-1986.305 261.129)"/></g></g></g><g transform="translate(1923.369 -249.24)"><g transform="translate(0 0)"><g class="bw"><path class="ad" d="M1944.221-128.331v0Z" transform="translate(-1944.221 128.331)"/><rect class="ad" width="0.002" height="9.851" transform="translate(0 0)"/><rect class="ae" width="0.002" height="9.851" transform="translate(0.001 0)"/><rect class="af" width="0.002" height="9.851" transform="translate(0.003 0)"/><rect class="ag" width="0.002" height="9.851" transform="translate(0.005 0)"/><rect class="ah" width="0.002" height="9.851" transform="translate(0.006 0)"/><rect class="ai" width="0.002" height="9.851" transform="translate(0.008 0)"/><rect class="aj" width="0.002" height="9.851" transform="translate(0.009 0)"/><rect class="ak" width="0.002" height="9.851" transform="translate(0.011 0)"/><rect class="al" width="0.002" height="9.851" transform="translate(0.012 0)"/><rect class="am" width="0.002" height="9.851" transform="translate(0.014 0)"/><rect class="an" width="0.002" height="9.851" transform="translate(0.016 0)"/><rect class="an" width="0.173" height="9.851" transform="translate(0.017 0)"/><rect class="ao" width="0.173" height="9.851" transform="translate(0.19 0)"/><rect class="ap" width="0.173" height="9.851" transform="translate(0.363 0)"/><rect class="aq" width="0.173" height="9.851" transform="translate(0.536 0)"/><rect class="ar" width="0.173" height="9.851" transform="translate(0.709 0)"/><rect class="as" width="0.173" height="9.851" transform="translate(0.882 0)"/><rect class="at" width="0.173" height="9.851" transform="translate(1.054 0)"/><rect class="au" width="0.173" height="9.851" transform="translate(1.227 0)"/><rect class="av" width="0.173" height="9.851" transform="translate(1.4 0)"/><rect class="aw" width="0.173" height="9.851" transform="translate(1.573 0)"/><rect class="ax" width="0.173" height="9.851" transform="translate(1.746 0)"/><rect class="ay" width="0.173" height="9.851" transform="translate(1.919 0)"/><rect class="az" width="0.173" height="9.851" transform="translate(2.092 0)"/><rect class="ba" width="0.173" height="9.851" transform="translate(2.265 0)"/><rect class="bb" width="0.173" height="9.851" transform="translate(2.437 0)"/><rect class="bc" width="0.173" height="9.851" transform="translate(2.61 0)"/><rect class="bd" width="0.173" height="9.851" transform="translate(2.783 0)"/><rect class="be" width="0.173" height="9.851" transform="translate(2.956 0)"/><rect class="bf" width="0.173" height="9.851" transform="translate(3.129 0)"/><rect class="bg" width="0.173" height="9.851" transform="translate(3.302 0)"/><rect class="bh" width="0.173" height="9.851" transform="translate(3.475 0)"/><rect class="bi" width="0.173" height="9.851" transform="translate(3.648 0)"/><rect class="bj" width="0.173" height="9.851" transform="translate(3.821 0)"/><rect class="bk" width="0.173" height="9.851" transform="translate(3.993 0)"/><rect class="bl" width="0.173" height="9.851" transform="translate(4.166 0)"/><rect class="bm" width="0.173" height="9.851" transform="translate(4.339 0)"/><rect class="bn" width="0.173" height="9.851" transform="translate(4.512 0)"/><rect class="c" width="0.173" height="9.851" transform="translate(4.685 0)"/><rect class="d" width="0.173" height="9.851" transform="translate(4.858 0)"/><rect class="e" width="0.173" height="9.851" transform="translate(5.031 0)"/><rect class="f" width="0.173" height="9.851" transform="translate(5.204 0)"/><rect class="g" width="0.173" height="9.851" transform="translate(5.376 0)"/><rect class="h" width="0.173" height="9.851" transform="translate(5.549 0)"/><rect class="i" width="0.173" height="9.851" transform="translate(5.722 0)"/><rect class="j" width="0.173" height="9.851" transform="translate(5.895 0)"/><rect class="k" width="0.173" height="9.851" transform="translate(6.068 0)"/><rect class="l" width="0.173" height="9.851" transform="translate(6.241 0)"/><rect class="m" width="0.173" height="9.851" transform="translate(6.414 0)"/><rect class="n" width="0.173" height="9.851" transform="translate(6.587 0)"/><rect class="o" width="0.173" height="9.851" transform="translate(6.76 0)"/><rect class="p" width="0.173" height="9.851" transform="translate(6.932 0)"/><rect class="q" width="0.173" height="9.851" transform="translate(7.105 0)"/><rect class="r" width="0.173" height="9.851" transform="translate(7.278 0)"/><rect class="s" width="0.173" height="9.851" transform="translate(7.451 0)"/><rect class="t" width="0.173" height="9.851" transform="translate(7.624 0)"/><rect class="u" width="0.173" height="9.851" transform="translate(7.797 0)"/><rect class="v" width="0.173" height="9.851" transform="translate(7.97 0)"/><rect class="w" width="0.173" height="9.851" transform="translate(8.143 0)"/><rect class="x" width="0.173" height="9.851" transform="translate(8.315 0)"/><rect class="y" width="0.173" height="9.851" transform="translate(8.488 0)"/><rect class="z" width="0.173" height="9.851" transform="translate(8.661 0)"/><rect class="aa" width="0.173" height="9.851" transform="translate(8.834 0)"/><rect class="ab" width="0.173" height="9.851" transform="translate(9.007 0)"/><rect class="ac" width="0.173" height="9.851" transform="translate(9.18 0)"/><rect class="bo" width="0.173" height="9.851" transform="translate(9.353 0)"/><rect class="bp" width="0.173" height="9.851" transform="translate(9.526 0)"/><rect class="bq" width="0.173" height="9.851" transform="translate(9.699 0)"/><rect class="br" width="0.173" height="9.851" transform="translate(9.871 0)"/><rect class="bs" width="0.173" height="9.851" transform="translate(10.044 0)"/><rect class="bt" width="0.173" height="9.851" transform="translate(10.217 0)"/><rect class="bu" width="0.173" height="9.851" transform="translate(10.39 0)"/><rect class="bv" width="0.173" height="9.851" transform="translate(10.563 0)"/><path class="bv" d="M1994.8-118.48v0Z" transform="translate(-1984.063 128.331)"/></g></g></g><g transform="translate(1917.75 -281.82)"><path class="bx" d="M1928.663-245.29l-9.84-20.75a11.1,11.1,0,0,1,.56-10.557,10.807,10.807,0,0,1,8.877-5.217c.267-.009.537-.009.8,0a10.808,10.808,0,0,1,8.878,5.217,11.1,11.1,0,0,1,.56,10.557h0Zm0-35.256c-.12,0-.24,0-.359.006a9.415,9.415,0,0,0-7.832,4.607,9.825,9.825,0,0,0-.5,9.348l8.689,18.323,8.688-18.323a9.826,9.826,0,0,0-.5-9.349,9.415,9.415,0,0,0-7.833-4.607C1928.9-280.545,1928.783-280.547,1928.663-280.547Z" transform="translate(-1917.75 281.82)"/></g></g></svg>