<svg xmlns="http://www.w3.org/2000/svg" xmlns:xlink="http://www.w3.org/1999/xlink" width="26.781" height="27.458" viewBox="0 0 26.781 27.458"><defs><style>.a{fill:none;}.b{clip-path:url(#a);}.c{fill:#252259;}.d{fill:#242259;}.e{fill:#232159;}.f{fill:#222159;}.g{fill:#212059;}.h{fill:#20205a;}.i{fill:#1e205a;}.j{fill:#1d1f5a;}.k{fill:#1c1f5a;}.l{fill:#1b1e5a;}.m{fill:#1a1e5a;}.n{fill:#1a1e5b;}.o{fill:#1a1e5c;}.p{fill:#1a1f5d;}.q{fill:#191f5e;}.r{fill:#191f5f;}.s{fill:#191f60;}.t{fill:#192061;}.u{fill:#192062;}.v{fill:#192063;}.w{fill:#192064;}.x{fill:#192165;}.y{fill:#182166;}.z{fill:#182167;}.aa{fill:#182168;}.ab{fill:#182269;}.ac{fill:#18226a;}.ad{fill:#18226b;}.ae{fill:#18226c;}.af{fill:#18236d;}.ag{fill:#17236e;}.ah{fill:#17236f;}.ai{fill:#172370;}.aj{fill:#172471;}.ak{fill:#172472;}.al{fill:#172473;}.am{fill:#172474;}.an{fill:#162575;}.ao{fill:#162576;}.ap{fill:#162577;}.aq{fill:#162578;}.ar{fill:#16267a;}.as{fill:#16267b;}.at{fill:#16267c;}.au{fill:#16267d;}.av{fill:#15277e;}.aw{fill:#15277f;}.ax{fill:#152780;}.ay{fill:#152781;}.az{fill:#152882;}.ba{fill:#152883;}.bb{fill:#152884;}.bc{fill:#142885;}.bd{fill:#142986;}.be{fill:#142987;}.bf{fill:#142988;}.bg{fill:#142989;}.bh{fill:#142a8a;}.bi{fill:#142a8b;}.bj{fill:#142a8c;}.bk{fill:#132a8d;}.bl{fill:#132b8e;}.bm{fill:#132b8f;}.bn{fill:#132b90;}.bo{fill:#132b91;}.bp{fill:#132c92;}.bq{fill:#132c93;}.br{fill:#132c94;}.bs{fill:#122c95;}.bt{fill:#122d96;}.bu{fill:#122d97;}.bv{fill:#122d98;}.bw{fill:#1a1f71;}.bx{clip-path:url(#b);}</style><clipPath id="a"><path class="a" d="M2232.721-251.665a.67.67,0,0,1-.114-.029l-.37.769h-1.424l.706-1.481-.706-1.481h1.424l.37.8a.769.769,0,0,1,.114,0h1.839l-1.424-2.961h1.424l1.424,2.961h2.284a.712.712,0,0,1,.712.712.712.712,0,0,1-.712.712h-2.284l-1.424,2.961h-1.424l1.424-2.961Z" transform="translate(-2230.813 256.05)"/></clipPath><clipPath id="b"><path class="a" d="M2184.219-200.02a7.055,7.055,0,0,0-5-2.107l-.051-.006a7.1,7.1,0,0,0-7.085,7.045,7.039,7.039,0,0,0,2.045,5.023,6.983,6.983,0,0,0,5,2.107h.046a7.032,7.032,0,0,0,4.368-1.515c.005-.006.017-.011.022-.017a7.1,7.1,0,0,0,2.7-5.507A7.028,7.028,0,0,0,2184.219-200.02Zm-3.11,7.563a7.185,7.185,0,0,1-1.11,1.6c-.518.587-.98,1.19-.5,1.97-1.515-.12-.905-2.136-1.236-3.047-.205-.57-.991-.706-1.094-1.3a11.265,11.265,0,0,0-.211-1.623c-.017-.006-.017-.011,0-.017-.319-.4-1.208-.5-1.743-.649-.461-.131-.473-.45-.7-.831-.012-.017-.479-.883-.553-1.02a.572.572,0,0,0-.507-.4,6.342,6.342,0,0,1,5.559-3.594.439.439,0,0,0-.177.353c.011.45.6.678.814.854.592.507.068,1.156-.029,1.327-.347.6-1.287.792-1.9.94-.37.085-1.76.051-1.84.695a.61.61,0,0,0,.421.689c1.179.348.684,1.151.7,1.617a3.276,3.276,0,0,1,1.663-.165c.667.382,1.475.3,2.1.735C2181.667-193.693,2181.627-193.471,2181.109-192.457Zm1.429-7.182c-.234-.194.029-.433.273-.592a6.209,6.209,0,0,1,.865.735,6.286,6.286,0,0,1,1.754,3.485,1.747,1.747,0,0,0-.376-.085c-.695-.063-.148-.792-.285-1.373-.137-.6-1.134-.82-1.76-.945S2182.914-199.325,2182.538-199.638Zm.78,9.369a1.654,1.654,0,0,1,0-.376c.057-.427.353-.575.473-.974.04-.131.165-1.082.262-1.344a.779.779,0,0,1,.928-.461,1.041,1.041,0,0,0,.234,0l.057.051A6.323,6.323,0,0,1,2183.319-190.27Z" transform="translate(-2172.082 202.133)"/></clipPath></defs><g transform="translate(-2133.007 256.05)"><g transform="translate(2147.181 -256.05)"><g transform="translate(0)"><g class="b"><path class="c" d="M2230.813-256.05v0Z" transform="translate(-2230.813 256.05)"/><rect class="c" width="0.001" height="7.347" transform="translate(0 0)"/><rect class="d" width="0.001" height="7.347" transform="translate(0.001 0)"/><rect class="e" width="0.001" height="7.347" transform="translate(0.002 0)"/><rect class="f" width="0.001" height="7.347" transform="translate(0.004 0)"/><rect class="g" width="0.001" height="7.347" transform="translate(0.005 0)"/><rect class="h" width="0.001" height="7.347" transform="translate(0.006 0)"/><rect class="i" width="0.001" height="7.347" transform="translate(0.007 0)"/><rect class="j" width="0.001" height="7.347" transform="translate(0.008 0)"/><rect class="k" width="0.001" height="7.347" transform="translate(0.01 0)"/><rect class="l" width="0.001" height="7.347" transform="translate(0.011 0)"/><rect class="m" width="0.001" height="7.347" transform="translate(0.012 0)"/><rect class="m" width="0.132" height="7.347" transform="translate(0.013 0)"/><rect class="n" width="0.132" height="7.347" transform="translate(0.145 0)"/><rect class="o" width="0.132" height="7.347" transform="translate(0.276 0)"/><rect class="p" width="0.132" height="7.347" transform="translate(0.408 0)"/><rect class="q" width="0.132" height="7.347" transform="translate(0.539 0)"/><rect class="r" width="0.132" height="7.347" transform="translate(0.671 0)"/><rect class="s" width="0.132" height="7.347" transform="translate(0.802 0)"/><rect class="t" width="0.132" height="7.347" transform="translate(0.934 0)"/><rect class="u" width="0.132" height="7.347" transform="translate(1.065 0)"/><rect class="v" width="0.132" height="7.347" transform="translate(1.197 0)"/><rect class="w" width="0.132" height="7.347" transform="translate(1.328 0)"/><rect class="x" width="0.132" height="7.347" transform="translate(1.46 0)"/><rect class="y" width="0.132" height="7.347" transform="translate(1.591 0)"/><rect class="z" width="0.132" height="7.347" transform="translate(1.723 0)"/><rect class="aa" width="0.132" height="7.347" transform="translate(1.854 0)"/><rect class="ab" width="0.132" height="7.347" transform="translate(1.986 0)"/><rect class="ac" width="0.132" height="7.347" transform="translate(2.117 0)"/><rect class="ad" width="0.132" height="7.347" transform="translate(2.249 0)"/><rect class="ae" width="0.132" height="7.347" transform="translate(2.38 0)"/><rect class="af" width="0.132" height="7.347" transform="translate(2.512 0)"/><rect class="ag" width="0.132" height="7.347" transform="translate(2.643 0)"/><rect class="ah" width="0.132" height="7.347" transform="translate(2.775 0)"/><rect class="ai" width="0.132" height="7.347" transform="translate(2.906 0)"/><rect class="aj" width="0.132" height="7.347" transform="translate(3.038 0)"/><rect class="ak" width="0.132" height="7.347" transform="translate(3.169 0)"/><rect class="al" width="0.132" height="7.347" transform="translate(3.301 0)"/><rect class="am" width="0.132" height="7.347" transform="translate(3.432 0)"/><rect class="an" width="0.132" height="7.347" transform="translate(3.564 0)"/><rect class="ao" width="0.132" height="7.347" transform="translate(3.695 0)"/><rect class="ap" width="0.132" height="7.347" transform="translate(3.827 0)"/><rect class="aq" width="0.132" height="7.347" transform="translate(3.959 0)"/><rect class="ar" width="0.132" height="7.347" transform="translate(4.09 0)"/><rect class="as" width="0.132" height="7.347" transform="translate(4.222 0)"/><rect class="at" width="0.132" height="7.347" transform="translate(4.353 0)"/><rect class="au" width="0.132" height="7.347" transform="translate(4.485 0)"/><rect class="av" width="0.132" height="7.347" transform="translate(4.616 0)"/><rect class="aw" width="0.132" height="7.347" transform="translate(4.748 0)"/><rect class="ax" width="0.132" height="7.347" transform="translate(4.879 0)"/><rect class="ay" width="0.132" height="7.347" transform="translate(5.011 0)"/><rect class="az" width="0.132" height="7.347" transform="translate(5.142 0)"/><rect class="ba" width="0.132" height="7.347" transform="translate(5.274 0)"/><rect class="bb" width="0.132" height="7.347" transform="translate(5.405 0)"/><rect class="bc" width="0.132" height="7.347" transform="translate(5.537 0)"/><rect class="bd" width="0.132" height="7.347" transform="translate(5.668 0)"/><rect class="be" width="0.132" height="7.347" transform="translate(5.8 0)"/><rect class="bf" width="0.132" height="7.347" transform="translate(5.931 0)"/><rect class="bg" width="0.132" height="7.347" transform="translate(6.063 0)"/><rect class="bh" width="0.132" height="7.347" transform="translate(6.194 0)"/><rect class="bi" width="0.132" height="7.347" transform="translate(6.326 0)"/><rect class="bj" width="0.132" height="7.347" transform="translate(6.457 0)"/><rect class="bk" width="0.132" height="7.347" transform="translate(6.589 0)"/><rect class="bl" width="0.132" height="7.347" transform="translate(6.72 0)"/><rect class="bm" width="0.132" height="7.347" transform="translate(6.852 0)"/><rect class="bn" width="0.132" height="7.347" transform="translate(6.983 0)"/><rect class="bo" width="0.132" height="7.347" transform="translate(7.115 0)"/><rect class="bp" width="0.132" height="7.347" transform="translate(7.246 0)"/><rect class="bq" width="0.132" height="7.347" transform="translate(7.378 0)"/><rect class="br" width="0.132" height="7.347" transform="translate(7.509 0)"/><rect class="bs" width="0.132" height="7.347" transform="translate(7.641 0)"/><rect class="bt" width="0.132" height="7.347" transform="translate(7.772 0)"/><rect class="bu" width="0.132" height="7.347" transform="translate(7.904 0)"/><rect class="bv" width="0.132" height="7.347" transform="translate(8.035 0)"/><path class="bv" d="M2287.167-248.7v0Z" transform="translate(-2279 256.05)"/></g></g></g><g transform="translate(2133.007 -254.024)"><path class="bw" d="M2145.72-216.64a12.734,12.734,0,0,1-12.713-12.725,12.722,12.722,0,0,1,12.708-12.708c.052,0,.108,0,.158,0l.082,0h.435v3.25l-.478-.048c-.035,0-.136,0-.2,0a9.517,9.517,0,0,0-9.5,9.515,9.523,9.523,0,0,0,9.509,9.515,9.542,9.542,0,0,0,9.5-9.345l.007-.428h3.2l-.006.44A12.75,12.75,0,0,1,2145.72-216.64Zm-.2-24.562a11.852,11.852,0,0,0-11.643,11.837,11.863,11.863,0,0,0,11.844,11.855,11.88,11.88,0,0,0,11.824-11.233h-1.461a10.3,10.3,0,0,1-3.08,6.79,10.316,10.316,0,0,1-7.277,2.982,10.393,10.393,0,0,1-10.378-10.384,10.388,10.388,0,0,1,10.172-10.382Z" transform="translate(-2133.007 242.073)"/></g><g transform="translate(2138.67 -248.236)"><g class="bx"><rect class="bj" width="0.221" height="3.195" transform="translate(11.22 8.668)"/><rect class="bk" width="0.228" height="3.195" transform="translate(11.441 8.668)"/><rect class="bl" width="0.228" height="3.195" transform="translate(11.669 8.668)"/><rect class="bm" width="0.228" height="3.195" transform="translate(11.898 8.668)"/><rect class="bn" width="0.228" height="3.195" transform="translate(12.126 8.668)"/><rect class="bo" width="0.228" height="3.195" transform="translate(12.354 8.668)"/><rect class="bp" width="0.228" height="3.195" transform="translate(12.583 8.668)"/><rect class="bq" width="0.228" height="3.195" transform="translate(12.811 8.668)"/><rect class="br" width="0.151" height="3.195" transform="translate(13.039 8.668)"/><rect class="be" width="0.076" height="4.22" transform="translate(10.223 1.902)"/><rect class="bf" width="0.228" height="4.22" transform="translate(10.299 1.902)"/><rect class="bg" width="0.228" height="4.22" transform="translate(10.527 1.902)"/><rect class="bh" width="0.228" height="4.22" transform="translate(10.756 1.902)"/><rect class="bi" width="0.228" height="4.22" transform="translate(10.984 1.902)"/><rect class="bj" width="0.228" height="4.22" transform="translate(11.213 1.902)"/><rect class="bk" width="0.228" height="4.22" transform="translate(11.441 1.902)"/><rect class="bl" width="0.228" height="4.22" transform="translate(11.669 1.902)"/><rect class="bm" width="0.228" height="4.22" transform="translate(11.898 1.902)"/><rect class="bn" width="0.228" height="4.22" transform="translate(12.126 1.902)"/><rect class="bo" width="0.228" height="4.22" transform="translate(12.354 1.902)"/><rect class="bp" width="0.228" height="4.22" transform="translate(12.583 1.902)"/><rect class="bq" width="0.228" height="4.22" transform="translate(12.811 1.902)"/><rect class="br" width="0.228" height="4.22" transform="translate(13.039 1.902)"/><rect class="bs" width="0.082" height="4.22" transform="translate(13.268 1.902)"/><rect class="r" width="0.02" height="12.489" transform="translate(1.373 0.757)"/><rect class="s" width="0.228" height="12.489" transform="translate(1.393 0.757)"/><rect class="t" width="0.228" height="12.489" transform="translate(1.621 0.757)"/><rect class="u" width="0.228" height="12.489" transform="translate(1.85 0.757)"/><rect class="v" width="0.228" height="12.489" transform="translate(2.078 0.757)"/><rect class="w" width="0.228" height="12.489" transform="translate(2.306 0.757)"/><rect class="x" width="0.228" height="12.489" transform="translate(2.535 0.757)"/><rect class="y" width="0.228" height="12.489" transform="translate(2.763 0.757)"/><rect class="z" width="0.228" height="12.489" transform="translate(2.991 0.757)"/><rect class="aa" width="0.228" height="12.489" transform="translate(3.22 0.757)"/><rect class="ab" width="0.228" height="12.489" transform="translate(3.448 0.757)"/><rect class="ac" width="0.228" height="12.489" transform="translate(3.677 0.757)"/><rect class="ad" width="0.228" height="12.489" transform="translate(3.905 0.757)"/><rect class="ae" width="0.228" height="12.489" transform="translate(4.133 0.757)"/><rect class="af" width="0.228" height="12.489" transform="translate(4.362 0.757)"/><rect class="ag" width="0.228" height="12.489" transform="translate(4.59 0.757)"/><rect class="ah" width="0.228" height="12.489" transform="translate(4.818 0.757)"/><rect class="ai" width="0.228" height="12.489" transform="translate(5.047 0.757)"/><rect class="aj" width="0.228" height="12.489" transform="translate(5.275 0.757)"/><rect class="ak" width="0.228" height="12.489" transform="translate(5.503 0.757)"/><rect class="al" width="0.228" height="12.489" transform="translate(5.732 0.757)"/><rect class="am" width="0.228" height="12.489" transform="translate(5.96 0.757)"/><rect class="an" width="0.228" height="12.489" transform="translate(6.189 0.757)"/><rect class="ao" width="0.228" height="12.489" transform="translate(6.417 0.757)"/><rect class="ap" width="0.228" height="12.489" transform="translate(6.645 0.757)"/><rect class="aq" width="0.228" height="12.489" transform="translate(6.874 0.757)"/><rect class="ar" width="0.228" height="12.489" transform="translate(7.102 0.757)"/><rect class="as" width="0.228" height="12.489" transform="translate(7.33 0.757)"/><rect class="at" width="0.228" height="12.489" transform="translate(7.559 0.757)"/><rect class="au" width="0.228" height="12.489" transform="translate(7.787 0.757)"/><rect class="av" width="0.228" height="12.489" transform="translate(8.015 0.757)"/><rect class="aw" width="0.228" height="12.489" transform="translate(8.244 0.757)"/><rect class="ax" width="0.228" height="12.489" transform="translate(8.472 0.757)"/><rect class="ay" width="0.228" height="12.489" transform="translate(8.701 0.757)"/><rect class="az" width="0.228" height="12.489" transform="translate(8.929 0.757)"/><rect class="ba" width="0.228" height="12.489" transform="translate(9.157 0.757)"/><rect class="bb" width="0.199" height="12.489" transform="translate(9.386 0.757)"/><rect class="c" width="0.011" height="14.175" transform="translate(-0.011 0)"/><rect class="c" width="0.002" height="14.175" transform="translate(0 0)"/><rect class="d" width="0.002" height="14.175" transform="translate(0.002 0)"/><rect class="e" width="0.002" height="14.175" transform="translate(0.004 0)"/><rect class="f" width="0.002" height="14.175" transform="translate(0.006 0)"/><rect class="g" width="0.002" height="14.175" transform="translate(0.008 0)"/><rect class="h" width="0.002" height="14.175" transform="translate(0.01 0)"/><rect class="i" width="0.002" height="14.175" transform="translate(0.012 0)"/><rect class="j" width="0.002" height="14.175" transform="translate(0.014 0)"/><rect class="k" width="0.002" height="14.175" transform="translate(0.017 0)"/><rect class="l" width="0.002" height="14.175" transform="translate(0.019 0)"/><rect class="m" width="0.002" height="14.175" transform="translate(0.021 0)"/><rect class="m" width="0.228" height="14.175" transform="translate(0.023 0)"/><rect class="n" width="0.228" height="14.175" transform="translate(0.251 0)"/><rect class="o" width="0.228" height="14.175" transform="translate(0.479 0)"/><rect class="p" width="0.228" height="14.175" transform="translate(0.708 0)"/><rect class="q" width="0.228" height="14.175" transform="translate(0.936 0)"/><rect class="r" width="0.228" height="14.175" transform="translate(1.165 0)"/><rect class="s" width="0.228" height="14.175" transform="translate(1.393 0)"/><rect class="t" width="0.228" height="14.175" transform="translate(1.621 0)"/><rect class="u" width="0.228" height="14.175" transform="translate(1.85 0)"/><rect class="v" width="0.228" height="14.175" transform="translate(2.078 0)"/><rect class="w" width="0.228" height="14.175" transform="translate(2.306 0)"/><rect class="x" width="0.228" height="14.175" transform="translate(2.535 0)"/><rect class="y" width="0.228" height="14.175" transform="translate(2.763 0)"/><rect class="z" width="0.228" height="14.175" transform="translate(2.991 0)"/><rect class="aa" width="0.228" height="14.175" transform="translate(3.22 0)"/><rect class="ab" width="0.228" height="14.175" transform="translate(3.448 0)"/><rect class="ac" width="0.228" height="14.175" transform="translate(3.677 0)"/><rect class="ad" width="0.228" height="14.175" transform="translate(3.905 0)"/><rect class="ae" width="0.228" height="14.175" transform="translate(4.133 0)"/><rect class="af" width="0.228" height="14.175" transform="translate(4.362 0)"/><rect class="ag" width="0.228" height="14.175" transform="translate(4.59 0)"/><rect class="ah" width="0.228" height="14.175" transform="translate(4.818 0)"/><rect class="ai" width="0.228" height="14.175" transform="translate(5.047 0)"/><rect class="aj" width="0.228" height="14.175" transform="translate(5.275 0)"/><rect class="ak" width="0.228" height="14.175" transform="translate(5.503 0)"/><rect class="al" width="0.228" height="14.175" transform="translate(5.732 0)"/><rect class="am" width="0.228" height="14.175" transform="translate(5.96 0)"/><rect class="an" width="0.228" height="14.175" transform="translate(6.189 0)"/><rect class="ao" width="0.228" height="14.175" transform="translate(6.417 0)"/><rect class="ap" width="0.228" height="14.175" transform="translate(6.645 0)"/><rect class="aq" width="0.228" height="14.175" transform="translate(6.874 0)"/><rect class="ar" width="0.228" height="14.175" transform="translate(7.102 0)"/><rect class="as" width="0.228" height="14.175" transform="translate(7.33 0)"/><rect class="at" width="0.228" height="14.175" transform="translate(7.559 0)"/><rect class="au" width="0.228" height="14.175" transform="translate(7.787 0)"/><rect class="av" width="0.228" height="14.175" transform="translate(8.015 0)"/><rect class="aw" width="0.228" height="14.175" transform="translate(8.244 0)"/><rect class="ax" width="0.228" height="14.175" transform="translate(8.472 0)"/><rect class="ay" width="0.228" height="14.175" transform="translate(8.701 0)"/><rect class="az" width="0.228" height="14.175" transform="translate(8.929 0)"/><rect class="ba" width="0.228" height="14.175" transform="translate(9.157 0)"/><rect class="bb" width="0.228" height="14.175" transform="translate(9.386 0)"/><rect class="bc" width="0.228" height="14.175" transform="translate(9.614 0)"/><rect class="bd" width="0.228" height="14.175" transform="translate(9.842 0)"/><rect class="be" width="0.228" height="14.175" transform="translate(10.071 0)"/><rect class="bf" width="0.228" height="14.175" transform="translate(10.299 0)"/><rect class="bg" width="0.228" height="14.175" transform="translate(10.527 0)"/><rect class="bh" width="0.228" height="14.175" transform="translate(10.756 0)"/><rect class="bi" width="0.228" height="14.175" transform="translate(10.984 0)"/><rect class="bj" width="0.228" height="14.175" transform="translate(11.213 0)"/><rect class="bk" width="0.228" height="14.175" transform="translate(11.441 0)"/><rect class="bl" width="0.228" height="14.175" transform="translate(11.669 0)"/><rect class="bm" width="0.228" height="14.175" transform="translate(11.898 0)"/><rect class="bn" width="0.228" height="14.175" transform="translate(12.126 0)"/><rect class="bo" width="0.228" height="14.175" transform="translate(12.354 0)"/><rect class="bp" width="0.228" height="14.175" transform="translate(12.583 0)"/><rect class="bq" width="0.228" height="14.175" transform="translate(12.811 0)"/><rect class="br" width="0.228" height="14.175" transform="translate(13.039 0)"/><rect class="bs" width="0.228" height="14.175" transform="translate(13.268 0)"/><rect class="bt" width="0.228" height="14.175" transform="translate(13.496 0)"/><rect class="bu" width="0.228" height="14.175" transform="translate(13.724 0)"/><rect class="bv" width="0.228" height="14.175" transform="translate(13.953 0)"/><rect class="bv" width="0.011" height="14.175" transform="translate(14.181 0)"/></g></g><g transform="translate(2154.211 -246.334)"><g transform="translate(0)"><path class="bw" d="M2284.9-185.073h-1.674l-1.1-1.18-1.121,1.18h-1.678l2-2.041-1.786-1.893h1.649l.883.937.091.1.078-.078.962-.957h1.6l-1.848,1.877Z" transform="translate(-2279.32 189.007)"/></g></g></g></svg>