<svg xmlns="http://www.w3.org/2000/svg" width="25.486" height="23" viewBox="0 0 25.486 23"><defs><style>.a{fill:#1a1f71;}</style></defs><g transform="translate(-2376.094 245.294)"><path class="a" d="M2401.442-238.691l-2.4-5.691a1.487,1.487,0,0,0-1.622-.891l-7.031,1.181a5.372,5.372,0,0,0-3.439,2.105l-3.482,4.689h-4.9a2.472,2.472,0,0,0-2.469,2.469v10.065a2.472,2.472,0,0,0,2.469,2.469h16.287a2.472,2.472,0,0,0,2.469-2.469v-9.074l3.58-2.78A1.761,1.761,0,0,0,2401.442-238.691Zm-22.878,2.381h12.063l-1.7,1.817h-11.849v-.335A1.483,1.483,0,0,1,2378.563-236.31Zm-1.481,2.8h10.927a2.559,2.559,0,0,0-.651,2.143c.005.031.013.061.02.092h-10.3Zm19.25,8.742a1.483,1.483,0,0,1-1.482,1.482h-16.287a1.483,1.483,0,0,1-1.481-1.482v-5.519h10.723a2.53,2.53,0,0,0,2.062,1.054h.646a2.555,2.555,0,0,0,1.559-.534l4.26-3.307ZM2392.9-237.3l.442-.473a.494.494,0,0,0-.024-.7.494.494,0,0,0-.7.024l-1.071,1.147h-6.854l3.045-4.1a4.389,4.389,0,0,1,2.81-1.72l7.031-1.181a.5.5,0,0,1,.549.3l2.4,5.691a.772.772,0,0,1-.237.909l-2.988,2.319-.975.757-4.866,3.778a1.562,1.562,0,0,1-.953.327h-.646a1.548,1.548,0,0,1-1.534-1.3,1.565,1.565,0,0,1,.4-1.31l3.247-3.479Z" transform="translate(0 0)"/></g></svg>