<svg xmlns="http://www.w3.org/2000/svg" width="28" height="25.833" viewBox="0 0 28 25.833"><defs><style>.a{fill:#1a1f71;}</style></defs><g transform="translate(-2619.002 219.385)"><g transform="translate(2619.002 -210.95)"><g transform="translate(0 3.051)"><path class="a" d="M2634.948-163.607h-6.323a.69.69,0,0,1-.689-.689.69.69,0,0,1,.689-.689h6.323a1.508,1.508,0,0,0,1.353-.852l.021-.044a1.5,1.5,0,0,0-.215-1.621,1.5,1.5,0,0,0-1.139-.524h-9.974a3.022,3.022,0,0,0-2.122.864l-2.7,2.636a.69.69,0,0,1-.975-.012.69.69,0,0,1,.011-.975l2.7-2.636a4.392,4.392,0,0,1,3.085-1.257h9.974a2.874,2.874,0,0,1,2.186,1.005,2.881,2.881,0,0,1,.411,3.118l-.022.044A2.893,2.893,0,0,1,2634.948-163.607Z" transform="translate(-2619.002 169.407)"/></g><g transform="translate(1.232 0)"><path class="a" d="M2625.053-165.285a.687.687,0,0,1-.483-.2.689.689,0,0,1-.008-.975l2.129-2.168a4.653,4.653,0,0,1,3.3-1.383h8.96a2.536,2.536,0,0,0,1.764-.71l8.631-8.29a1.342,1.342,0,0,0,.38-1.245,1.342,1.342,0,0,0-1.3-1.051h-.222a1.341,1.341,0,0,0-.95.4l-6.222,6.311a.69.69,0,0,1-.975.007.69.69,0,0,1-.007-.975l6.221-6.311a2.729,2.729,0,0,1,1.932-.808h.222a2.729,2.729,0,0,1,2.651,2.137,2.73,2.73,0,0,1-.772,2.533l-8.631,8.29a3.907,3.907,0,0,1-2.719,1.094h-8.96a3.263,3.263,0,0,0-2.314.971l-2.13,2.168A.688.688,0,0,1,2625.053-165.285Z" transform="translate(-2624.364 182.683)"/></g></g><g transform="translate(2627.842 -214.544)"><g transform="translate(0 0)"><path class="a" d="M2660.472-193.063h-1.538v-1.8h-1.468v-1.664h1.468v-1.791h1.538v1.791h1.468v1.664h-1.468Z" transform="translate(-2657.466 198.323)"/></g></g><g transform="translate(2622.023 -219.385)"><g transform="translate(0 0)"><path class="a" d="M2635.153-214.125h-1.538v-1.8h-1.468v-1.664h1.468v-1.791h1.538v1.791h1.468v1.664h-1.468Z" transform="translate(-2632.147 219.385)"/></g></g><g transform="translate(2633.641 -219.385)"><g transform="translate(0 0)"><path class="a" d="M2685.707-214.125h-1.538v-1.8H2682.7v-1.664h1.468v-1.791h1.538v1.791h1.468v1.664h-1.468Z" transform="translate(-2682.7 219.385)"/></g></g></g></svg>