<svg xmlns="http://www.w3.org/2000/svg" width="22" height="32.708" viewBox="0 0 22 32.708"><defs><style>.a{fill:#1a1f71;}</style></defs><g transform="translate(-2819.41 241.419)"><g transform="translate(2819.41 -241.419)"><g transform="translate(6.2 7.094)"><path class="a" d="M2852.659-204.044h-.015c-.066.267-.136.583-.217.854l-.352,1.126h1.175l-.359-1.123C2852.8-203.469,2852.728-203.779,2852.659-204.044Z" transform="translate(-2852.075 204.044)"/></g><path class="a" d="M2830.41-241.419c-4.167,3.489-11,3.247-11,3.247v16.126a4.184,4.184,0,0,0,.658,2.252l2.091,3.272a.323.323,0,0,0,.595-.174v-8.6h15.313v8.6a.323.323,0,0,0,.595.174l2.091-3.272a4.182,4.182,0,0,0,.658-2.252v-16.126S2834.577-237.93,2830.41-241.419Zm-3.075,10.993-.412-1.289h-1.448l-.389,1.289h-.861l1.463-4.56h1.061l1.481,4.56Zm4-3.86h-1.314v3.86h-.833v-3.86h-1.3v-.7h3.45Zm4.447,3.86-.088-1.86c-.028-.589-.058-1.3-.054-1.918h-.019c-.151.559-.341,1.174-.538,1.751l-.669,1.973h-.641l-.6-1.946c-.178-.585-.341-1.2-.461-1.778h-.015c-.02.6-.047,1.326-.082,1.946l-.1,1.832h-.776l.3-4.56h1.094l.594,1.831c.164.539.31,1.08.419,1.588h.02c.122-.5.279-1.055.456-1.592l.632-1.828h1.081l.262,4.56Z" transform="translate(-2819.41 241.419)"/></g><g transform="translate(2824.692 -211.724)"><rect class="a" width="11.436" height="1.115" transform="translate(0)"/></g><g transform="translate(2824.692 -209.826)"><rect class="a" width="11.436" height="1.115" transform="translate(0 0)"/></g><g transform="translate(2824.692 -224.177)"><path class="a" d="M2856.9-150.574a4.543,4.543,0,0,1,.323,1.688,4.318,4.318,0,0,1-4.229,4.4,4.318,4.318,0,0,1-4.229-4.4,4.543,4.543,0,0,1,.323-1.688h-1.847v11.145h11.436v-11.145Z" transform="translate(-2847.24 150.574)"/></g><g transform="translate(2827.792 -223.635)"><path class="a" d="M2868.807-146.033a2.262,2.262,0,0,1-.2.825.257.257,0,0,1-.32.129h0a.26.26,0,0,1-.146-.355,1.941,1.941,0,0,0,.174-.787c0-.516-.3-.866-.713-.866s-.648.284-.866.822c-.291.742-.633,1.2-1.266,1.2a1.192,1.192,0,0,1-1.171-1.091h-.5a.229.229,0,0,1-.229-.229h0a.229.229,0,0,1,.229-.229h.477a2.069,2.069,0,0,1,.148-.728.252.252,0,0,1,.323-.136h0a.253.253,0,0,1,.144.336,1.72,1.72,0,0,0-.135.68c0,.56.335.771.633.771.371,0,.56-.269.829-.9.306-.749.677-1.128,1.324-1.128a1.243,1.243,0,0,1,1.221,1.062,1.286,1.286,0,0,1,.021.176l.018.291A1.321,1.321,0,0,1,2868.807-146.033Z" transform="translate(-2863.572 147.72)"/></g></g></svg>