<svg xmlns="http://www.w3.org/2000/svg" xmlns:xlink="http://www.w3.org/1999/xlink" width="23.146" height="33.405" viewBox="0 0 23.146 33.405"><defs><style>.a{fill:none;}.b{fill:#1a1f71;}.c{clip-path:url(#a);}.d{fill:#252259;}.e{fill:#242259;}.f{fill:#232159;}.g{fill:#222159;}.h{fill:#212059;}.i{fill:#20205a;}.j{fill:#1e205a;}.k{fill:#1d1f5a;}.l{fill:#1c1f5a;}.m{fill:#1b1e5a;}.n{fill:#1a1e5a;}.o{fill:#1a1e5b;}.p{fill:#1a1e5c;}.q{fill:#1a1f5d;}.r{fill:#191f5e;}.s{fill:#191f5f;}.t{fill:#191f60;}.u{fill:#192061;}.v{fill:#192062;}.w{fill:#192063;}.x{fill:#192064;}.y{fill:#192165;}.z{fill:#182166;}.aa{fill:#182167;}.ab{fill:#182168;}.ac{fill:#182269;}.ad{fill:#18226a;}.ae{fill:#18226b;}.af{fill:#18226c;}.ag{fill:#18236d;}.ah{fill:#17236e;}.ai{fill:#17236f;}.aj{fill:#172370;}.ak{fill:#172471;}.al{fill:#172472;}.am{fill:#172473;}.an{fill:#172474;}.ao{fill:#162575;}.ap{fill:#162576;}.aq{fill:#162577;}.ar{fill:#162578;}.as{fill:#16267a;}.at{fill:#16267b;}.au{fill:#16267c;}.av{fill:#16267d;}.aw{fill:#15277e;}.ax{fill:#15277f;}.ay{fill:#152780;}.az{fill:#152781;}.ba{fill:#152882;}.bb{fill:#152883;}.bc{fill:#152884;}.bd{fill:#142885;}.be{fill:#142986;}.bf{fill:#142987;}.bg{fill:#142988;}.bh{fill:#142989;}.bi{fill:#142a8a;}.bj{fill:#142a8b;}.bk{fill:#142a8c;}.bl{fill:#132a8d;}.bm{fill:#132b8e;}.bn{fill:#132b8f;}.bo{fill:#132b90;}.bp{fill:#132b91;}.bq{fill:#132c92;}.br{fill:#132c93;}.bs{fill:#132c94;}.bt{fill:#122c95;}.bu{fill:#122d96;}.bv{fill:#122d97;}.bw{fill:#122d98;}</style><clipPath id="a"><path class="a" d="M-271.93-135.037l-3.707-2.7-3.707,2.7,1.415-4.366-3.707-2.7h4.584l1.415-4.36,1.415,4.36h4.584l-3.707,2.7Z" transform="translate(281.636 146.466)"/></clipPath></defs><g transform="translate(308.396 222.97)"><g transform="translate(-308.396 -214.824)"><path class="b" d="M-285.25-158.6H-308.4V-183.86h23.146Zm-21.9-1.25H-286.5V-182.61h-20.646Z" transform="translate(308.396 183.86)"/></g><g transform="translate(-304.691 -212.937)"><g transform="translate(1.869 5.903)"><g class="c"><path class="d" d="M-281.636-146.466v0Z" transform="translate(281.636 146.466)"/><rect class="d" width="0.002" height="11.428"/><rect class="e" width="0.002" height="11.428" transform="translate(0.002)"/><rect class="f" width="0.002" height="11.428" transform="translate(0.003)"/><rect class="g" width="0.002" height="11.428" transform="translate(0.005)"/><rect class="h" width="0.002" height="11.428" transform="translate(0.007)"/><rect class="i" width="0.002" height="11.428" transform="translate(0.009)"/><rect class="j" width="0.002" height="11.428" transform="translate(0.01)"/><rect class="k" width="0.002" height="11.428" transform="translate(0.012)"/><rect class="l" width="0.002" height="11.428" transform="translate(0.014)"/><rect class="m" width="0.002" height="11.428" transform="translate(0.016)"/><rect class="n" width="0.002" height="11.428" transform="translate(0.017)"/><rect class="n" width="0.193" height="11.428" transform="translate(0.019)"/><rect class="o" width="0.193" height="11.428" transform="translate(0.212)"/><rect class="p" width="0.193" height="11.428" transform="translate(0.406)"/><rect class="q" width="0.193" height="11.428" transform="translate(0.599)"/><rect class="r" width="0.193" height="11.428" transform="translate(0.792)"/><rect class="s" width="0.193" height="11.428" transform="translate(0.985)"/><rect class="t" width="0.193" height="11.428" transform="translate(1.178)"/><rect class="u" width="0.193" height="11.428" transform="translate(1.372)"/><rect class="v" width="0.193" height="11.428" transform="translate(1.565)"/><rect class="w" width="0.193" height="11.428" transform="translate(1.758)"/><rect class="x" width="0.193" height="11.428" transform="translate(1.951)"/><rect class="y" width="0.193" height="11.428" transform="translate(2.144)"/><rect class="z" width="0.193" height="11.428" transform="translate(2.338)"/><rect class="aa" width="0.193" height="11.428" transform="translate(2.531)"/><rect class="ab" width="0.193" height="11.428" transform="translate(2.724)"/><rect class="ac" width="0.193" height="11.428" transform="translate(2.917)"/><rect class="ad" width="0.193" height="11.428" transform="translate(3.111)"/><rect class="ae" width="0.193" height="11.428" transform="translate(3.304)"/><rect class="af" width="0.193" height="11.428" transform="translate(3.497)"/><rect class="ag" width="0.193" height="11.428" transform="translate(3.69)"/><rect class="ah" width="0.193" height="11.428" transform="translate(3.883)"/><rect class="ai" width="0.193" height="11.428" transform="translate(4.077)"/><rect class="aj" width="0.193" height="11.428" transform="translate(4.27)"/><rect class="ak" width="0.193" height="11.428" transform="translate(4.463)"/><rect class="al" width="0.193" height="11.428" transform="translate(4.656)"/><rect class="am" width="0.193" height="11.428" transform="translate(4.849)"/><rect class="an" width="0.193" height="11.428" transform="translate(5.043)"/><rect class="ao" width="0.193" height="11.428" transform="translate(5.236)"/><rect class="ap" width="0.193" height="11.428" transform="translate(5.429)"/><rect class="aq" width="0.193" height="11.428" transform="translate(5.622)"/><rect class="ar" width="0.193" height="11.428" transform="translate(5.815)"/><rect class="as" width="0.193" height="11.428" transform="translate(6.009)"/><rect class="at" width="0.193" height="11.428" transform="translate(6.202)"/><rect class="au" width="0.193" height="11.428" transform="translate(6.395)"/><rect class="av" width="0.193" height="11.428" transform="translate(6.588)"/><rect class="aw" width="0.193" height="11.428" transform="translate(6.781)"/><rect class="ax" width="0.193" height="11.428" transform="translate(6.975)"/><rect class="ay" width="0.193" height="11.428" transform="translate(7.168)"/><rect class="az" width="0.193" height="11.428" transform="translate(7.361)"/><rect class="ba" width="0.193" height="11.428" transform="translate(7.554)"/><rect class="bb" width="0.193" height="11.428" transform="translate(7.747)"/><rect class="bc" width="0.193" height="11.428" transform="translate(7.941)"/><rect class="bd" width="0.193" height="11.428" transform="translate(8.134)"/><rect class="be" width="0.193" height="11.428" transform="translate(8.327)"/><rect class="bf" width="0.193" height="11.428" transform="translate(8.52)"/><rect class="bg" width="0.193" height="11.428" transform="translate(8.714)"/><rect class="bh" width="0.193" height="11.428" transform="translate(8.907)"/><rect class="bi" width="0.193" height="11.428" transform="translate(9.1)"/><rect class="bj" width="0.193" height="11.428" transform="translate(9.293)"/><rect class="bk" width="0.193" height="11.428" transform="translate(9.486)"/><rect class="bl" width="0.193" height="11.428" transform="translate(9.68)"/><rect class="bm" width="0.193" height="11.428" transform="translate(9.873)"/><rect class="bn" width="0.193" height="11.428" transform="translate(10.066)"/><rect class="bo" width="0.193" height="11.428" transform="translate(10.259)"/><rect class="bp" width="0.193" height="11.428" transform="translate(10.452)"/><rect class="bq" width="0.193" height="11.428" transform="translate(10.646)"/><rect class="br" width="0.193" height="11.428" transform="translate(10.839)"/><rect class="bs" width="0.193" height="11.428" transform="translate(11.032)"/><rect class="bt" width="0.193" height="11.428" transform="translate(11.225)"/><rect class="bu" width="0.193" height="11.428" transform="translate(11.418)"/><rect class="bv" width="0.193" height="11.428" transform="translate(11.612)"/><rect class="bw" width="0.193" height="11.428" transform="translate(11.805)"/><path class="bw" d="M-224.035-135.038v0Z" transform="translate(236.033 146.466)"/></g></g><g transform="translate(0 0)"><circle class="b" cx="1.312" cy="1.312" r="1.312"/></g><g transform="translate(13.112 0)"><circle class="b" cx="1.312" cy="1.312" r="1.312"/></g></g><g transform="translate(-303.93 -222.97)"><g transform="translate(0 0)"><path class="b" d="M-273.284-211.049a.544.544,0,0,1-.544-.544v-4.277a6.022,6.022,0,0,0-6.018-6.012,6.022,6.022,0,0,0-6.018,6.012v4.277a.544.544,0,0,1-.544.544.544.544,0,0,1-.544-.544v-4.277a7.114,7.114,0,0,1,7.107-7.1,7.114,7.114,0,0,1,7.107,7.1v4.277A.544.544,0,0,1-273.284-211.049Z" transform="translate(286.953 222.97)"/></g></g></g></svg>