<svg xmlns="http://www.w3.org/2000/svg" xmlns:xlink="http://www.w3.org/1999/xlink" width="34.598" height="30.482" viewBox="0 0 34.598 30.482"><defs><style>.a{fill:none;}.b{fill:#1a1f71;}.c{clip-path:url(#a);}.d{fill:#252259;}.e{fill:#242259;}.f{fill:#232159;}.g{fill:#222159;}.h{fill:#212059;}.i{fill:#20205a;}.j{fill:#1e205a;}.k{fill:#1d1f5a;}.l{fill:#1c1f5a;}.m{fill:#1b1e5a;}.n{fill:#1a1e5a;}.o{fill:#1a1e5b;}.p{fill:#1a1e5c;}.q{fill:#1a1f5d;}.r{fill:#191f5e;}.s{fill:#191f5f;}.t{fill:#191f60;}.u{fill:#192061;}.v{fill:#192062;}.w{fill:#192063;}.x{fill:#192064;}.y{fill:#192165;}.z{fill:#182166;}.aa{fill:#182167;}.ab{fill:#182168;}.ac{fill:#182269;}.ad{fill:#18226a;}.ae{fill:#18226b;}.af{fill:#18226c;}.ag{fill:#18236d;}.ah{fill:#17236e;}.ai{fill:#17236f;}.aj{fill:#172370;}.ak{fill:#172471;}.al{fill:#172472;}.am{fill:#172473;}.an{fill:#172474;}.ao{fill:#162575;}.ap{fill:#162576;}.aq{fill:#162577;}.ar{fill:#162578;}.as{fill:#16267a;}.at{fill:#16267b;}.au{fill:#16267c;}.av{fill:#16267d;}.aw{fill:#15277e;}.ax{fill:#15277f;}.ay{fill:#152780;}.az{fill:#152781;}.ba{fill:#152882;}.bb{fill:#152883;}.bc{fill:#152884;}.bd{fill:#142885;}.be{fill:#142986;}.bf{fill:#142987;}.bg{fill:#142988;}.bh{fill:#142989;}.bi{fill:#142a8a;}.bj{fill:#142a8b;}.bk{fill:#142a8c;}.bl{fill:#132a8d;}.bm{fill:#132b8e;}.bn{fill:#132b8f;}.bo{fill:#132b90;}.bp{fill:#132b91;}.bq{fill:#132c92;}.br{fill:#132c93;}.bs{fill:#132c94;}.bt{fill:#122c95;}.bu{fill:#122d96;}.bv{fill:#122d97;}.bw{fill:#122d98;}.bx{clip-path:url(#b);}</style><clipPath id="a"><path class="a" d="M3007.8-174.981l.852.852,1.053-1.053-.852-.852a.713.713,0,0,0-1,.055.722.722,0,0,0-.055,1m2.908-2.908.853.852,1.053-1.053-.853-.852a.713.713,0,0,0-1,.055.718.718,0,0,0-.056,1m2.909-2.908.852.852,1.053-1.053-.853-.852a.713.713,0,0,0-1,.055.723.723,0,0,0-.055,1m2.908-2.908.853.852,1.053-1.053-.852-.852a.713.713,0,0,0-1,.055.718.718,0,0,0-.055,1m2.908-2.908.853.852,1-1-.853-.852a.681.681,0,0,0-.973.03.69.69,0,0,0-.03.973m-17.189,3.751a5.278,5.278,0,0,1,.807-1.058,3.966,3.966,0,0,1,2.763-1.178c2.517-.11,5.084-.1,7.762-.17l-3.706,3.706a1.255,1.255,0,0,1-1.023.251c-1.8-.386-4.8-1.118-6.6-1.549m17.731,18.6c-1.2-4.272-1.915-8.545-3.009-12.867l6.1-6.1s-.712,10.109-.812,14.632A4.688,4.688,0,0,1,3019.972-164.26Z" transform="translate(-3002.241 187.808)"/></clipPath><clipPath id="b"><path class="a" d="M3090.32-204.395l-1.419-1.419a5.96,5.96,0,0,1,4.684-1.845Z" transform="translate(-3088.901 207.667)"/></clipPath></defs><g transform="translate(-2976.78 217.511)"><g transform="translate(2976.78 -217.511)"><path class="b" d="M2985.093-190.55a5.379,5.379,0,0,1-3.355-1.519l-4.518-4.518a1.63,1.63,0,0,1-.192-1.981,2.01,2.01,0,0,1,.277-.339,2.329,2.329,0,0,1,2.448-.454c1.2.37,2.48.775,3.759,1.233.826.3,1.213.135,1.571-.222l16.427-16.428a8.355,8.355,0,0,1,6.455-2.727,5.489,5.489,0,0,1,1.976.579l.112.066a2.073,2.073,0,0,1,.935,3.167,25.252,25.252,0,0,1-3.314,4.48l-3.524,3.583a.89.89,0,0,1-.1.126l-8.033,8.033a41.465,41.465,0,0,1-6.828,5.5,9.008,9.008,0,0,1-4.076,1.419Zm-6.263-7.56a.729.729,0,0,0-.534.194.671.671,0,0,0-.093.111c-.02.04-.04.18.008.227l4.518,4.518a4.088,4.088,0,0,0,2.362,1.109h.007a7.558,7.558,0,0,0,3.33-1.2,40.772,40.772,0,0,0,6.585-5.3l8.088-8.108,3.565-3.625a24.215,24.215,0,0,0,3.092-4.177c.427-.8.218-.923-.406-1.284l-.132-.077a4.25,4.25,0,0,0-1.331-.382,7,7,0,0,0-5.388,2.319l-16.427,16.427a2.664,2.664,0,0,1-3.033.55c-1.253-.448-2.519-.848-3.7-1.213A1.751,1.751,0,0,0,2978.83-198.11Z" transform="translate(-2976.78 217.511)"/></g><g transform="translate(2982.724 -210.576)"><g transform="translate(0 0)"><g class="c"><path class="d" d="M3065.3-93.611l1.554,1.554H3065.3Z" transform="translate(-3050.575 115.604)"/><path class="d" d="M3065.3-93.627l1.558,1.558h0l-1.554-1.554Z" transform="translate(-3050.575 115.616)"/><path class="e" d="M3065.3-93.643l1.562,1.562h0l-1.558-1.558Z" transform="translate(-3050.575 115.628)"/><path class="f" d="M3065.3-93.658l1.565,1.566h0l-1.562-1.562Z" transform="translate(-3050.575 115.64)"/><path class="g" d="M3065.3-93.674l1.569,1.569h0L3065.3-93.67Z" transform="translate(-3050.575 115.652)"/><path class="h" d="M3065.3-93.69l1.573,1.573h0l-1.569-1.569Z" transform="translate(-3050.575 115.664)"/><path class="i" d="M3065.3-93.706l1.577,1.577h0L3065.3-93.7Z" transform="translate(-3050.575 115.676)"/><path class="j" d="M3065.3-93.721l1.58,1.58h0l-1.577-1.577Z" transform="translate(-3050.575 115.689)"/><path class="k" d="M3065.3-93.737l1.584,1.584h0l-1.58-1.58Z" transform="translate(-3050.575 115.701)"/><path class="l" d="M3065.3-93.753l1.587,1.588h0l-1.584-1.584Z" transform="translate(-3050.575 115.713)"/><path class="m" d="M3065.3-93.769l1.591,1.591h0l-1.587-1.588Z" transform="translate(-3050.575 115.725)"/><path class="n" d="M3065.3-93.785l1.595,1.595h0l-1.591-1.591Z" transform="translate(-3050.575 115.737)"/><path class="n" d="M3065.3-95.528l2,2h-.407l-1.595-1.595Z" transform="translate(-3050.575 117.073)"/><path class="o" d="M3065.3-97.271l2.409,2.409h-.407l-2-2Z" transform="translate(-3050.575 118.409)"/><path class="p" d="M3065.3-99.014l2.816,2.816h-.407l-2.409-2.409Z" transform="translate(-3050.575 119.745)"/><path class="q" d="M3065.3-100.757l3.223,3.223h-.407l-2.816-2.816Z" transform="translate(-3050.575 121.081)"/><path class="r" d="M3065.3-102.5l3.63,3.63h-.407l-3.223-3.223Z" transform="translate(-3050.575 122.417)"/><path class="s" d="M3065.3-104.243l4.037,4.037h-.407l-3.63-3.63Z" transform="translate(-3050.575 123.754)"/><path class="t" d="M3065.3-105.986l4.4,4.4-.041.041h-.324l-4.037-4.037Z" transform="translate(-3050.575 125.09)"/><path class="u" d="M3065.3-107.729l4.606,4.606-.2.2-4.4-4.4Z" transform="translate(-3050.575 126.426)"/><path class="v" d="M3065.3-109.472l4.809,4.809-.2.2-4.606-4.606Z" transform="translate(-3050.575 127.762)"/><path class="w" d="M3065.3-111.215l5.013,5.013-.2.2-4.809-4.809Z" transform="translate(-3050.575 129.098)"/><path class="x" d="M3065.3-112.958l5.216,5.216-.2.2-5.013-5.013Z" transform="translate(-3050.575 130.434)"/><path class="y" d="M3065.3-114.7l5.42,5.42-.2.2-5.216-5.216Z" transform="translate(-3050.575 131.77)"/><path class="z" d="M3065.3-116.445l5.624,5.623-.2.2-5.42-5.42Z" transform="translate(-3050.575 133.106)"/><path class="aa" d="M3065.3-118.188l5.827,5.827-.2.2-5.624-5.623Z" transform="translate(-3050.575 134.443)"/><path class="ab" d="M3065.3-119.931l6.03,6.03-.2.2-5.827-5.827Z" transform="translate(-3050.575 135.779)"/><path class="ac" d="M3065.3-121.674l6.1,6.1v.262l-.072.072-6.03-6.03Z" transform="translate(-3050.575 137.115)"/><path class="ad" d="M3065.3-123.417l6.1,6.1v.407l-6.1-6.1Z" transform="translate(-3050.575 138.451)"/><path class="ae" d="M3065.3-125.16l6.1,6.1v.407l-6.1-6.1Z" transform="translate(-3050.575 139.787)"/><path class="af" d="M3065.3-126.9l6.1,6.1v.407l-6.1-6.1Z" transform="translate(-3050.575 141.123)"/><path class="ag" d="M3065.3-128.646l6.1,6.1v.407l-6.1-6.1Z" transform="translate(-3050.575 142.459)"/><path class="ah" d="M3065.3-130.389l6.1,6.1v.407l-6.1-6.1Z" transform="translate(-3050.575 143.795)"/><path class="ai" d="M3065.3-132.132l6.1,6.1v.407l-6.1-6.1Z" transform="translate(-3050.575 145.131)"/><path class="aj" d="M3065.3-133.876l6.1,6.1v.407l-6.1-6.1Z" transform="translate(-3050.575 146.468)"/><path class="ak" d="M3065.3-135.619l6.1,6.1v.407l-6.1-6.1Z" transform="translate(-3050.575 147.804)"/><path class="al" d="M3065.3-137.362l6.1,6.1v.407l-6.1-6.1Z" transform="translate(-3050.575 149.14)"/><path class="am" d="M3065.3-139.1l6.1,6.1v.407l-6.1-6.1Z" transform="translate(-3050.575 150.476)"/><path class="an" d="M3065.3-140.848l6.1,6.1v.407l-6.1-6.1Z" transform="translate(-3050.575 151.812)"/><path class="ao" d="M3065.3-142.591l6.1,6.1v.407l-6.1-6.1Z" transform="translate(-3050.575 153.148)"/><path class="ap" d="M3065.3-144.334l6.1,6.1v.407l-6.1-6.1Z" transform="translate(-3050.575 154.484)"/><path class="aq" d="M3065.3-145.346l.138-.138,5.964,5.964v.407l-6.1-6.1Z" transform="translate(-3050.575 155.366)"/><path class="ar" d="M3065.89-146.153l.2-.2,5.761,5.761v.407Z" transform="translate(-3051.03 156.034)"/><path class="as" d="M3066.762-147.024l.2-.2,5.557,5.557v.407Z" transform="translate(-3051.698 156.702)"/><path class="at" d="M3067.633-147.9l.2-.2,5.354,5.354v.407Z" transform="translate(-3052.366 157.37)"/><path class="au" d="M3068.5-148.767l.2-.2,5.15,5.15v.407Z" transform="translate(-3053.034 158.038)"/><path class="av" d="M3069.376-149.639l.2-.2,4.947,4.947v.407Z" transform="translate(-3053.702 158.706)"/><path class="aw" d="M3070.248-150.51l.2-.2,4.743,4.743v.407Z" transform="translate(-3054.37 159.374)"/><path class="ax" d="M3071.12-151.382l.2-.2,4.54,4.54v.407Z" transform="translate(-3055.038 160.042)"/><path class="ay" d="M3071.991-152.253l.2-.2,4.336,4.336v.407Z" transform="translate(-3055.706 160.711)"/><path class="az" d="M3072.863-153.125l.2-.2,4.133,4.133v.407Z" transform="translate(-3056.374 161.379)"/><path class="ba" d="M3073.734-154l.2-.2,3.929,3.929v.407Z" transform="translate(-3057.042 162.047)"/><path class="bb" d="M3074.605-154.868l.2-.2,3.726,3.726v.407Z" transform="translate(-3057.71 162.715)"/><path class="bc" d="M3075.477-155.74l.2-.2,3.522,3.522v.407Z" transform="translate(-3058.378 163.383)"/><path class="bd" d="M3076.349-156.611l.2-.2,3.319,3.319v.407Z" transform="translate(-3059.046 164.051)"/><path class="be" d="M3077.22-157.483l.2-.2,3.115,3.115v.407Z" transform="translate(-3059.714 164.719)"/><path class="bf" d="M3078.092-158.354l.2-.2,2.912,2.912v.407Z" transform="translate(-3060.382 165.387)"/><path class="bg" d="M3078.963-159.226l.2-.2,2.708,2.708v.407Z" transform="translate(-3061.05 166.055)"/><path class="bh" d="M3079.835-160.1l.2-.2,2.5,2.5v.407Z" transform="translate(-3061.719 166.723)"/><path class="bi" d="M3080.707-160.969l.2-.2,2.3,2.3v.407Z" transform="translate(-3062.386 167.391)"/><path class="bj" d="M3081.578-161.84l.2-.2,2.1,2.1v.407Z" transform="translate(-3063.054 168.059)"/><path class="bk" d="M3082.45-162.712l.2-.2,1.894,1.895v.407Z" transform="translate(-3063.723 168.727)"/><path class="bl" d="M3083.321-163.583l.2-.2,1.691,1.691v.407Z" transform="translate(-3064.391 169.395)"/><path class="bm" d="M3084.192-164.455l.2-.2,1.488,1.488v.407Z" transform="translate(-3065.058 170.063)"/><path class="bn" d="M3085.064-165.326l.2-.2,1.284,1.284v.407Z" transform="translate(-3065.727 170.731)"/><path class="bo" d="M3085.936-166.2l.2-.2,1.081,1.081v.407Z" transform="translate(-3066.395 171.399)"/><path class="bp" d="M3086.807-167.07l.2-.2.877.877v.407Z" transform="translate(-3067.063 172.067)"/><path class="bq" d="M3087.679-167.941l.2-.2.673.674v.407Z" transform="translate(-3067.731 172.736)"/><path class="br" d="M3088.551-168.188l.013-.013h.381l.28.28v.407Z" transform="translate(-3068.399 172.779)"/><path class="bs" d="M3090.517-167.921l-.28-.28h.28Z" transform="translate(-3069.692 172.779)"/><path class="o" d="M3002.241-160.327l.147.147h-.147Z" transform="translate(-3002.241 166.744)"/><path class="p" d="M3002.241-162.071l.554.554h-.407l-.147-.147Z" transform="translate(-3002.241 168.08)"/><path class="q" d="M3002.241-163.814l.961.961h-.407l-.554-.554Z" transform="translate(-3002.241 169.416)"/><path class="r" d="M3002.241-165.557l1.368,1.368h-.407l-.961-.961Z" transform="translate(-3002.241 170.752)"/><path class="s" d="M3002.241-167.3l1.775,1.775h-.407l-1.368-1.368Z" transform="translate(-3002.241 172.088)"/><path class="t" d="M3002.241-169.043l2.182,2.182h-.407l-1.775-1.775Z" transform="translate(-3002.241 173.424)"/><path class="u" d="M3002.241-170.632l.029-.029,2.56,2.56h-.407l-2.182-2.182Z" transform="translate(-3002.241 174.664)"/><path class="v" d="M3002.366-171.329l.2-.2,2.763,2.763h-.407Z" transform="translate(-3002.337 175.332)"/><path class="w" d="M3003.237-172.2l.2-.2,2.967,2.967H3006Z" transform="translate(-3003.005 176)"/><path class="x" d="M3004.109-173.072l.2-.2,3.17,3.17h-.407Z" transform="translate(-3003.673 176.668)"/><path class="y" d="M3004.981-173.944l.2-.2,3.374,3.374h-.407Z" transform="translate(-3004.341 177.337)"/><path class="z" d="M3005.852-174.815l.2-.2,3.578,3.577h-.407Z" transform="translate(-3005.009 178.005)"/><path class="aa" d="M3006.724-175.687l.2-.2,3.781,3.781h-.407Z" transform="translate(-3005.677 178.673)"/><path class="ab" d="M3007.6-176.558l.2-.2,3.984,3.984h-.407Z" transform="translate(-3006.345 179.341)"/><path class="ac" d="M3008.467-176.9l.042-.042h.323l4.026,4.027h-.407Z" transform="translate(-3007.013 179.479)"/><path class="ad" d="M3010.436-176.942l4.027,4.027h-.407l-4.026-4.027Z" transform="translate(-3008.211 179.479)"/><path class="ae" d="M3012.179-176.942l4.027,4.027h-.407l-4.027-4.027Z" transform="translate(-3009.547 179.479)"/><path class="af" d="M3013.922-176.942l4.027,4.027h-.407l-4.027-4.027Z" transform="translate(-3010.883 179.479)"/><path class="ag" d="M3015.666-176.942l4.026,4.027h-.407l-4.027-4.027Z" transform="translate(-3012.219 179.479)"/><path class="ah" d="M3017.408-176.942l4.027,4.027h-.407L3017-176.942Z" transform="translate(-3013.555 179.479)"/><path class="ai" d="M3019.152-176.942l3.866,3.866-.16.16h-.087l-4.026-4.027Z" transform="translate(-3014.891 179.479)"/><path class="aj" d="M3020.895-176.942l3.663,3.663-.2.2-3.866-3.866Z" transform="translate(-3016.228 179.479)"/><path class="ak" d="M3022.637-176.942l3.459,3.459-.2.2-3.663-3.663Z" transform="translate(-3017.563 179.479)"/><path class="al" d="M3024.381-176.942l3.256,3.256-.2.2-3.459-3.459Z" transform="translate(-3018.9 179.479)"/><path class="am" d="M3026.124-176.942l3.052,3.052-.2.2-3.256-3.256Z" transform="translate(-3020.236 179.479)"/><path class="an" d="M3027.867-176.942l2.849,2.849-.2.2-3.052-3.052Z" transform="translate(-3021.572 179.479)"/><path class="ao" d="M3029.61-176.942l2.645,2.645-.2.2-2.849-2.849Z" transform="translate(-3022.908 179.479)"/><path class="ap" d="M3031.353-176.942l2.442,2.442-.2.2-2.646-2.645Z" transform="translate(-3024.244 179.479)"/><path class="aq" d="M3033.1-176.942l2.239,2.239-.2.2-2.442-2.442Z" transform="translate(-3025.581 179.479)"/><path class="ar" d="M3034.839-176.942l2.035,2.035-.2.2-2.239-2.239Z" transform="translate(-3026.916 179.479)"/><path class="as" d="M3036.582-176.942l1.832,1.832-.2.2-2.035-2.035Z" transform="translate(-3028.252 179.479)"/><path class="at" d="M3038.326-176.942l1.628,1.628-.2.2-1.832-1.832Z" transform="translate(-3029.588 179.479)"/><path class="au" d="M3040.069-176.942l1.425,1.425-.2.2-1.628-1.628Z" transform="translate(-3030.925 179.479)"/><path class="av" d="M3041.812-176.942l1.221,1.221-.2.2-1.424-1.425Z" transform="translate(-3032.261 179.479)"/><path class="aw" d="M3043.555-176.942l1.018,1.018-.2.2-1.221-1.221Z" transform="translate(-3033.597 179.479)"/><path class="ax" d="M3045.3-176.942l.814.814-.2.2-1.018-1.018Z" transform="translate(-3034.933 179.479)"/><path class="ay" d="M3047.041-176.942l.561.561v.1l-.154.154-.814-.814Z" transform="translate(-3036.269 179.479)"/><path class="az" d="M3048.784-176.942l.154.154v.407l-.561-.561Z" transform="translate(-3037.605 179.479)"/><path class="ba" d="M3050.274-176.789l-.154-.154h.154Z" transform="translate(-3038.941 179.479)"/><path class="bp" d="M3074.769-180.183l.265.265h-.265Z" transform="translate(-3057.835 181.963)"/><path class="bq" d="M3074.769-181.926l.672.672h-.407l-.265-.265Z" transform="translate(-3057.835 183.299)"/><path class="br" d="M3074.769-183.669l1.079,1.079h-.407l-.672-.672Z" transform="translate(-3057.835 184.635)"/><path class="bs" d="M3074.769-185.412l1.486,1.486h-.407l-1.079-1.079Z" transform="translate(-3057.835 185.971)"/><path class="bt" d="M3074.769-187.155l1.831,1.831-.062.062h-.282l-1.486-1.486Z" transform="translate(-3057.835 187.308)"/><path class="bu" d="M3074.953-188.111l1.85,1.85-.2.2-1.831-1.831v-.223Z" transform="translate(-3057.835 188.04)"/><path class="bv" d="M3075.964-188.111l1.52,1.52v.253l-.077.077-1.85-1.85Z" transform="translate(-3058.439 188.04)"/><path class="bw" d="M3077.707-188.111,3078.82-187v.407l-1.52-1.52Z" transform="translate(-3059.775 188.04)"/><path class="bw" d="M3080.156-187l-1.113-1.113h1.113Z" transform="translate(-3061.111 188.04)"/><path class="bb" d="M3062.313-168.236l.384.384h-.384Z" transform="translate(-3048.287 172.806)"/><path class="bc" d="M3062.313-169.979l.791.791h-.407l-.384-.384Z" transform="translate(-3048.287 174.142)"/><path class="bd" d="M3062.313-171.723l1.2,1.2h-.407l-.791-.791Z" transform="translate(-3048.287 175.478)"/><path class="be" d="M3062.313-173.466l1.6,1.605h-.407l-1.2-1.2Z" transform="translate(-3048.287 176.814)"/><path class="bf" d="M3062.313-175.209l1.89,1.89-.122.122h-.164l-1.6-1.605Z" transform="translate(-3048.287 178.15)"/><path class="bg" d="M3062.565-175.869l1.841,1.841-.2.2-1.89-1.89v-.154Z" transform="translate(-3048.287 178.656)"/><path class="bh" d="M3063.8-175.869l1.5,1.5v.272l-.067.067-1.841-1.841Z" transform="translate(-3049.117 178.656)"/><path class="bi" d="M3065.546-175.869l1.094,1.094v.407l-1.5-1.5Z" transform="translate(-3050.453 178.656)"/><path class="bj" d="M3067.289-175.869l.687.687v.407l-1.094-1.094Z" transform="translate(-3051.79 178.656)"/><path class="bk" d="M3069.032-175.869l.28.28v.407l-.687-.687Z" transform="translate(-3053.126 178.656)"/><path class="bl" d="M3070.648-175.588l-.281-.28h.281Z" transform="translate(-3054.462 178.656)"/><path class="am" d="M3049.855-154.547l.1.1h-.1Z" transform="translate(-3038.739 162.313)"/><path class="an" d="M3049.855-156.29l.5.5h-.407l-.1-.1Z" transform="translate(-3038.739 163.649)"/><path class="ao" d="M3049.855-158.033l.911.91h-.407l-.5-.5Z" transform="translate(-3038.739 164.985)"/><path class="ap" d="M3049.855-159.776l1.317,1.317h-.407l-.911-.91Z" transform="translate(-3038.739 166.321)"/><path class="aq" d="M3049.855-161.519l1.725,1.724h-.407l-1.317-1.317Z" transform="translate(-3038.739 167.657)"/><path class="ar" d="M3049.855-163.262l1.95,1.95-.181.181h-.044l-1.725-1.724Z" transform="translate(-3038.739 168.993)"/><path class="as" d="M3050.228-163.412l1.781,1.781-.2.2-1.95-1.95v-.035Z" transform="translate(-3038.739 169.108)"/><path class="at" d="M3051.856-163.412l1.382,1.382v.391l-.008.008-1.781-1.781Z" transform="translate(-3039.96 169.108)"/><path class="au" d="M3053.6-163.412l.975.975v.407l-1.382-1.382Z" transform="translate(-3041.296 169.108)"/><path class="av" d="M3055.342-163.412l.568.568v.407l-.975-.975Z" transform="translate(-3042.632 169.108)"/><path class="aw" d="M3057.085-163.412l.161.161v.407l-.568-.568Z" transform="translate(-3043.969 169.108)"/><path class="ax" d="M3058.583-163.251l-.161-.161h.161Z" transform="translate(-3045.305 169.108)"/><path class="y" d="M3037.4-142.6l.215.216h-.215Z" transform="translate(-3029.19 153.155)"/><path class="z" d="M3037.4-144.343l.623.623h-.407l-.215-.216Z" transform="translate(-3029.19 154.491)"/><path class="aa" d="M3037.4-146.087l1.029,1.03h-.407l-.623-.623Z" transform="translate(-3029.19 155.828)"/><path class="ab" d="M3037.4-147.83l1.437,1.437h-.407l-1.029-1.03Z" transform="translate(-3029.19 157.164)"/><path class="ac" d="M3037.4-149.573l1.806,1.806-.038.037h-.332l-1.437-1.437Z" transform="translate(-3029.19 158.5)"/><path class="ad" d="M3037.483-150.955l1.926,1.925-.2.2-1.806-1.806v-.323Z" transform="translate(-3029.19 159.559)"/><path class="ae" d="M3038.167-150.955l1.67,1.67v.1l-.152.152-1.926-1.925Z" transform="translate(-3029.466 159.559)"/><path class="af" d="M3039.909-150.955l1.263,1.263v.407l-1.67-1.67Z" transform="translate(-3030.803 159.559)"/><path class="ag" d="M3041.653-150.955l.856.856v.407l-1.263-1.263Z" transform="translate(-3032.139 159.559)"/><path class="ah" d="M3043.4-150.955l.449.449v.407l-.856-.856Z" transform="translate(-3033.475 159.559)"/><path class="ai" d="M3045.139-150.955l.042.042v.407l-.449-.449Z" transform="translate(-3034.811 159.559)"/><path class="aj" d="M3046.517-150.913l-.042-.042h.042Z" transform="translate(-3036.147 159.559)"/><path class="d" d="M3024.942-133.967l1.108,1.108h-1.108Z" transform="translate(-3019.642 146.537)"/><path class="d" d="M3024.942-133.982l1.112,1.112h0l-1.108-1.108Z" transform="translate(-3019.642 146.549)"/><path class="e" d="M3024.942-134l1.116,1.116h0l-1.112-1.112Z" transform="translate(-3019.642 146.562)"/><path class="f" d="M3024.942-134.014l1.119,1.119h0l-1.116-1.116Z" transform="translate(-3019.642 146.574)"/><path class="g" d="M3024.942-134.03l1.123,1.123h0l-1.119-1.119Z" transform="translate(-3019.642 146.586)"/><path class="h" d="M3024.942-134.045l1.127,1.127h0l-1.123-1.123Z" transform="translate(-3019.642 146.598)"/><path class="i" d="M3024.942-134.061l1.13,1.13h0l-1.127-1.127Z" transform="translate(-3019.642 146.61)"/><path class="j" d="M3024.942-134.077l1.134,1.134h0l-1.13-1.13Z" transform="translate(-3019.642 146.622)"/><path class="k" d="M3024.942-134.093l1.138,1.138h0l-1.134-1.134Z" transform="translate(-3019.642 146.634)"/><path class="l" d="M3024.942-134.109l1.142,1.141h0l-1.138-1.138Z" transform="translate(-3019.642 146.646)"/><path class="m" d="M3024.942-134.124l1.145,1.145h0l-1.142-1.141Z" transform="translate(-3019.642 146.658)"/><path class="n" d="M3024.942-134.14l1.149,1.149h0l-1.145-1.145Z" transform="translate(-3019.642 146.67)"/><path class="n" d="M3024.942-135.883l1.556,1.556h-.407l-1.149-1.149Z" transform="translate(-3019.642 148.006)"/><path class="o" d="M3024.942-137.626l1.866,1.866-.1.1h-.213l-1.556-1.556Z" transform="translate(-3019.642 149.343)"/><path class="p" d="M3025.146-138.5l1.866,1.866-.2.2-1.866-1.866v-.2Z" transform="translate(-3019.642 150.011)"/><path class="q" d="M3026.22-138.5l1.551,1.551v.223l-.092.092-1.866-1.866Z" transform="translate(-3020.31 150.011)"/><path class="r" d="M3027.963-138.5l1.144,1.144v.407l-1.551-1.551Z" transform="translate(-3021.646 150.011)"/><path class="s" d="M3029.706-138.5l.737.737v.407L3029.3-138.5Z" transform="translate(-3022.982 150.011)"/><path class="t" d="M3031.449-138.5l.33.33v.407l-.737-.737Z" transform="translate(-3024.318 150.011)"/><path class="u" d="M3033.115-138.168l-.33-.33h.33Z" transform="translate(-3025.654 150.011)"/></g></g></g><g transform="translate(3002.958 -215.212)"><g transform="translate(0)"><g class="bx"><path class="d" d="M3088.9-199.73l1.419,1.419H3088.9Z" transform="translate(-3088.901 201.583)"/><path class="d" d="M3088.9-199.734l1.42,1.42h0l-1.419-1.419Z" transform="translate(-3088.901 201.586)"/><path class="e" d="M3088.9-199.738l1.421,1.421h0l-1.42-1.42Z" transform="translate(-3088.901 201.589)"/><path class="f" d="M3088.9-199.742l1.422,1.422h0l-1.421-1.421Z" transform="translate(-3088.901 201.592)"/><path class="g" d="M3088.9-199.746l1.423,1.423h0l-1.422-1.422Z" transform="translate(-3088.901 201.595)"/><path class="h" d="M3088.9-199.75l1.424,1.424h0l-1.423-1.423Z" transform="translate(-3088.901 201.598)"/><path class="i" d="M3088.9-199.754l1.425,1.425h0l-1.424-1.424Z" transform="translate(-3088.901 201.601)"/><path class="j" d="M3088.9-199.758l1.426,1.426h0l-1.425-1.425Z" transform="translate(-3088.901 201.605)"/><path class="k" d="M3088.9-199.762l1.427,1.427h0l-1.426-1.426Z" transform="translate(-3088.901 201.608)"/><path class="l" d="M3088.9-199.766l1.427,1.428h0l-1.427-1.427Z" transform="translate(-3088.901 201.611)"/><path class="m" d="M3088.9-199.77l1.428,1.429h0l-1.427-1.428Z" transform="translate(-3088.901 201.614)"/><path class="n" d="M3088.9-199.774l1.43,1.43h0l-1.428-1.429Z" transform="translate(-3088.901 201.617)"/><path class="n" d="M3088.9-200.225l1.535,1.535h-.105l-1.43-1.43Z" transform="translate(-3088.901 201.962)"/><path class="o" d="M3088.9-200.675l1.64,1.64h-.1l-1.535-1.535Z" transform="translate(-3088.901 202.307)"/><path class="p" d="M3088.9-201.125l1.745,1.745h-.1l-1.64-1.64Z" transform="translate(-3088.901 202.653)"/><path class="q" d="M3088.9-201.576l1.85,1.85h-.105l-1.745-1.745Z" transform="translate(-3088.901 202.998)"/><path class="r" d="M3088.9-202.026l1.955,1.955h-.105l-1.85-1.85Z" transform="translate(-3088.901 203.343)"/><path class="s" d="M3088.9-202.476l2.06,2.06h-.1l-1.955-1.955Z" transform="translate(-3088.901 203.688)"/><path class="t" d="M3088.9-202.7l.043-.043,2.079,2.079-.043.043h-.019l-2.06-2.06Z" transform="translate(-3088.901 203.892)"/><rect class="u" width="0.074" height="2.941" transform="translate(0.043 1.15) rotate(-45)"/><rect class="v" width="0.074" height="2.941" transform="translate(0.096 1.097) rotate(-45)"/><rect class="w" width="0.074" height="2.941" transform="translate(0.148 1.045) rotate(-45)"/><rect class="x" width="0.074" height="2.941" transform="translate(0.201 0.992) rotate(-45)"/><rect class="y" width="0.074" height="2.941" transform="translate(0.253 0.94) rotate(-45)"/><rect class="z" width="0.074" height="2.941" transform="translate(0.306 0.887) rotate(-45)"/><rect class="aa" width="0.074" height="2.941" transform="translate(0.358 0.834) rotate(-45)"/><rect class="ab" width="0.074" height="2.941" transform="translate(0.411 0.782) rotate(-45)"/><rect class="ac" width="0.074" height="2.941" transform="translate(0.464 0.729) rotate(-45)"/><rect class="ad" width="0.074" height="2.941" transform="translate(0.516 0.677) rotate(-45)"/><rect class="ae" width="0.074" height="2.941" transform="translate(0.569 0.624) rotate(-45)"/><rect class="af" width="0.074" height="2.941" transform="translate(0.621 0.572) rotate(-45)"/><rect class="ag" width="0.074" height="2.941" transform="translate(0.674 0.519) rotate(-45)"/><rect class="ah" width="0.074" height="2.941" transform="translate(0.726 0.466) rotate(-45)"/><rect class="ai" width="0.074" height="2.941" transform="translate(0.779 0.414) rotate(-45)"/><rect class="aj" width="0.074" height="2.941" transform="translate(0.832 0.361) rotate(-45)"/><rect class="ak" width="0.074" height="2.941" transform="translate(0.884 0.309) rotate(-45)"/><rect class="al" width="0.074" height="2.941" transform="translate(0.937 0.256) rotate(-45)"/><rect class="am" width="0.074" height="2.941" transform="translate(0.989 0.204) rotate(-45)"/><rect class="an" width="0.074" height="2.941" transform="translate(1.042 0.151) rotate(-45)"/><rect class="ao" width="0.074" height="2.941" transform="translate(1.094 0.098) rotate(-45)"/><rect class="ap" width="0.074" height="2.941" transform="translate(1.147 0.046) rotate(-45)"/><rect class="aq" width="0.074" height="2.941" transform="translate(1.2 -0.007) rotate(-45)"/><path class="ar" d="M3094.264-208l.023-.023h.059l2.05,2.05-.052.053Z" transform="translate(-3093.012 207.937)"/><path class="as" d="M3094.72-208.02l2,2-.053.053-2.05-2.05Z" transform="translate(-3093.281 207.937)"/><path class="at" d="M3095.17-208.02l1.945,1.945-.053.053-2-2Z" transform="translate(-3093.626 207.937)"/><path class="au" d="M3095.62-208.02l1.893,1.892-.052.053-1.945-1.945Z" transform="translate(-3093.971 207.937)"/><path class="av" d="M3096.07-208.02l1.84,1.84-.052.053-1.893-1.892Z" transform="translate(-3094.316 207.937)"/><path class="aw" d="M3096.521-208.02l1.787,1.787-.052.053-1.84-1.84Z" transform="translate(-3094.661 207.937)"/><path class="ax" d="M3096.971-208.02l1.735,1.735-.053.053-1.787-1.787Z" transform="translate(-3095.006 207.937)"/><path class="ay" d="M3097.422-208.02l1.682,1.682-.052.053-1.735-1.735Z" transform="translate(-3095.352 207.937)"/><path class="az" d="M3097.872-208.02l1.63,1.63-.052.053-1.682-1.682Z" transform="translate(-3095.697 207.937)"/><path class="ba" d="M3098.322-208.02l1.577,1.577-.052.053-1.63-1.63Z" transform="translate(-3096.042 207.937)"/><path class="bb" d="M3098.772-208.02l1.524,1.524-.053.053-1.577-1.577Z" transform="translate(-3096.387 207.937)"/><path class="bc" d="M3099.223-208.02l1.472,1.472-.052.053-1.524-1.524Z" transform="translate(-3096.732 207.937)"/><path class="bd" d="M3099.673-208.02l1.419,1.419-.052.053-1.472-1.472Z" transform="translate(-3097.077 207.937)"/><path class="be" d="M3100.123-208.02l1.367,1.367-.053.053-1.419-1.419Z" transform="translate(-3097.422 207.937)"/><path class="bf" d="M3100.574-208.02l1.314,1.314-.053.053-1.367-1.367Z" transform="translate(-3097.768 207.937)"/><path class="bg" d="M3101.024-208.02l1.261,1.262-.052.053-1.314-1.314Z" transform="translate(-3098.113 207.937)"/><path class="bh" d="M3101.474-208.02l1.209,1.209-.052.053-1.261-1.262Z" transform="translate(-3098.458 207.937)"/><path class="bi" d="M3101.925-208.02l1.156,1.156-.053.053-1.209-1.209Z" transform="translate(-3098.803 207.937)"/><path class="bj" d="M3102.375-208.02l1.1,1.1-.052.053-1.156-1.156Z" transform="translate(-3099.148 207.937)"/><path class="bk" d="M3102.825-208.02l1.051,1.051-.052.053-1.1-1.1Z" transform="translate(-3099.493 207.937)"/><path class="bl" d="M3103.275-208.02l1,1-.052.053-1.051-1.051Z" transform="translate(-3099.839 207.937)"/><path class="bm" d="M3103.726-208.02l.946.946-.053.053-1-1Z" transform="translate(-3100.184 207.937)"/><path class="bn" d="M3104.176-208.02l.894.894-.053.053-.946-.946Z" transform="translate(-3100.529 207.937)"/><path class="bo" d="M3104.626-208.02l.841.841-.052.053-.894-.894Z" transform="translate(-3100.874 207.937)"/><path class="bp" d="M3105.077-208.02l.789.788-.053.053-.841-.841Z" transform="translate(-3101.219 207.937)"/><path class="bq" d="M3105.527-208.02l.721.721v.03l-.038.038-.789-.788Z" transform="translate(-3101.565 207.937)"/><path class="br" d="M3105.977-208.02l.616.616v.105l-.721-.721Z" transform="translate(-3101.91 207.937)"/><path class="bs" d="M3106.427-208.02l.511.511v.105l-.616-.616Z" transform="translate(-3102.255 207.937)"/><path class="bt" d="M3106.878-208.02l.406.406v.105l-.511-.511Z" transform="translate(-3102.6 207.937)"/><path class="bu" d="M3107.328-208.02l.3.3v.105l-.406-.406Z" transform="translate(-3102.945 207.937)"/><path class="bv" d="M3107.778-208.02l.2.2v.105l-.3-.3Z" transform="translate(-3103.29 207.937)"/><path class="bw" d="M3108.229-208.02l.09.09v.105l-.2-.2Z" transform="translate(-3103.635 207.937)"/><path class="bw" d="M3108.664-207.93l-.09-.09h.09Z" transform="translate(-3103.98 207.937)"/></g></g></g></g></svg>