<svg xmlns="http://www.w3.org/2000/svg" width="22" height="35.158" viewBox="0 0 22 35.158"><defs><style>.a{fill:#1a1f71;}</style></defs><g transform="translate(-18.964 184.579)"><g transform="translate(18.964 -184.579)"><path class="a" d="M29.964-162.579a11.013,11.013,0,0,1-11-11,11.013,11.013,0,0,1,11-11,11.012,11.012,0,0,1,11,11A11.012,11.012,0,0,1,29.964-162.579Zm0-20.183a9.194,9.194,0,0,0-9.183,9.183,9.194,9.194,0,0,0,9.183,9.183,9.193,9.193,0,0,0,9.183-9.183A9.193,9.193,0,0,0,29.964-182.762Z" transform="translate(-18.964 184.579)"/></g><g transform="translate(24.26 -177.976)"><path class="a" d="M41.284-152.23,36.662-157.8a.909.909,0,0,1,.118-1.279.909.909,0,0,1,1.279.119l3.072,3.7,4.794-7.115a.909.909,0,0,1,1.261-.246.909.909,0,0,1,.246,1.261Z" transform="translate(-36.453 162.773)"/></g><g transform="translate(19.029 -166.182)"><path class="a" d="M33.346-107.067l-3.263-11.421-2.736,8.774-2.384-6.427-5.783,4.365,4.282-11.556a.757.757,0,0,1,.973-.447.757.757,0,0,1,.447.973L22.4-116.1l3.278-2.474,1.548,4.173,2.043-6.551a.877.877,0,0,1,.854-.62.878.878,0,0,1,.839.64l2.575,9.013,1.362-3.667,3.068,1.923-3.387-8.614A.757.757,0,0,1,35-123.26a.757.757,0,0,1,.981.428l5.069,12.893-5.388-3.377Z" transform="translate(-19.179 123.827)"/></g></g></svg>