<svg xmlns="http://www.w3.org/2000/svg" xmlns:xlink="http://www.w3.org/1999/xlink" width="25.828" height="25.08" viewBox="0 0 25.828 25.08"><defs><style>.a{fill:none;}.b{fill:#1a1f71;}.c{clip-path:url(#a);}.d{fill:#252259;}.e{fill:#242259;}.f{fill:#232159;}.g{fill:#222159;}.h{fill:#212059;}.i{fill:#20205a;}.j{fill:#1e205a;}.k{fill:#1d1f5a;}.l{fill:#1c1f5a;}.m{fill:#1b1e5a;}.n{fill:#1a1e5a;}.o{fill:#1a1e5b;}.p{fill:#1a1e5c;}.q{fill:#1a1f5d;}.r{fill:#191f5e;}.s{fill:#191f5f;}.t{fill:#191f60;}.u{fill:#192061;}.v{fill:#192062;}.w{fill:#192063;}.x{fill:#192064;}.y{fill:#192165;}.z{fill:#182166;}.aa{fill:#182167;}.ab{fill:#182168;}.ac{fill:#182269;}.ad{fill:#18226a;}.ae{fill:#18226b;}.af{fill:#18226c;}.ag{fill:#18236d;}.ah{fill:#17236e;}.ai{fill:#17236f;}.aj{fill:#172370;}.ak{fill:#172471;}.al{fill:#172472;}.am{fill:#172473;}.an{fill:#172474;}.ao{fill:#162575;}.ap{fill:#162576;}.aq{fill:#162577;}.ar{fill:#162578;}.as{fill:#16267a;}.at{fill:#16267b;}.au{fill:#16267c;}.av{fill:#16267d;}.aw{fill:#15277e;}.ax{fill:#15277f;}.ay{fill:#152780;}.az{fill:#152781;}.ba{fill:#152882;}.bb{fill:#152883;}.bc{fill:#152884;}.bd{fill:#142885;}.be{fill:#142986;}.bf{fill:#142987;}.bg{fill:#142988;}.bh{fill:#142989;}.bi{fill:#142a8a;}.bj{fill:#142a8b;}.bk{fill:#142a8c;}.bl{fill:#132a8d;}.bm{fill:#132b8e;}.bn{fill:#132b8f;}.bo{fill:#132b90;}.bp{fill:#132b91;}.bq{fill:#132c92;}.br{fill:#132c93;}.bs{fill:#132c94;}.bt{fill:#122c95;}.bu{fill:#122d96;}.bv{fill:#122d97;}.bw{fill:#122d98;}</style><clipPath id="a"><circle class="a" cx="1.614" cy="1.614" r="1.614"/></clipPath></defs><g transform="translate(-149.706 205.254)"><g transform="translate(151.669 -195.003)"><g transform="translate(0 2.601)"><path class="b" d="M173.318-134.7h-5.389a.588.588,0,0,1-.588-.588.588.588,0,0,1,.588-.588h5.389a1.285,1.285,0,0,0,1.153-.726l.017-.035a1.279,1.279,0,0,0-.182-1.385,1.278,1.278,0,0,0-.971-.446h-8.5a2.574,2.574,0,0,0-1.808.737l-2.3,2.247a.588.588,0,0,1-.831-.01.588.588,0,0,1,.01-.831l2.3-2.247a3.742,3.742,0,0,1,2.63-1.071h8.5a2.451,2.451,0,0,1,1.863.857,2.455,2.455,0,0,1,.35,2.657l-.017.035A2.466,2.466,0,0,1,173.318-134.7Z" transform="translate(-159.727 139.646)"/></g><g transform="translate(1.05)"><path class="b" d="M165.677-138.093a.586.586,0,0,1-.412-.168.588.588,0,0,1-.007-.831l1.815-1.847a3.964,3.964,0,0,1,2.811-1.179h7.637a2.16,2.16,0,0,0,1.5-.6l7.356-7.066a1.145,1.145,0,0,0,.324-1.062,1.144,1.144,0,0,0-1.111-.9H185.4a1.144,1.144,0,0,0-.81.339l-5.3,5.379a.587.587,0,0,1-.831.006.588.588,0,0,1-.006-.831l5.3-5.379a2.327,2.327,0,0,1,1.647-.689h.189a2.325,2.325,0,0,1,2.26,1.821,2.328,2.328,0,0,1-.658,2.159l-7.357,7.066a3.33,3.33,0,0,1-2.317.933h-7.637a2.782,2.782,0,0,0-1.973.827l-1.815,1.847A.586.586,0,0,1,165.677-138.093Z" transform="translate(-165.089 152.922)"/></g></g><g transform="translate(149.706 -205.254)"><path class="b" d="M165.216-193.845a5.707,5.707,0,0,1-5.062-3.072H157.4l-.933-1.493-.649.944a.864.864,0,0,1-.66.375.868.868,0,0,1-.7-.287l-1.079-1.2-1.01,1.212a.869.869,0,0,1-.638.312.867.867,0,0,1-.658-.269l-1.024-1.076a1.235,1.235,0,0,1-.029-1.662l1.311-1.475a1.512,1.512,0,0,1,1.128-.507h7.632a5.679,5.679,0,0,1,5.131-3.207,5.711,5.711,0,0,1,5.7,5.7A5.711,5.711,0,0,1,165.216-193.845Zm-7.168-4.248h2.861l.154.352a4.531,4.531,0,0,0,4.153,2.719,4.534,4.534,0,0,0,4.529-4.529,4.534,4.534,0,0,0-4.529-4.529,4.511,4.511,0,0,0-4.2,2.838l-.148.367-.669,0h-7.743a.335.335,0,0,0-.25.112l-1.311,1.475a.051.051,0,0,0,0,.07l.787.826,1.017-1.221a.868.868,0,0,1,.652-.312.872.872,0,0,1,.663.289l1.055,1.178.693-1.008a.867.867,0,0,1,.735-.376.866.866,0,0,1,.718.408Z" transform="translate(-149.706 205.254)"/><g transform="translate(13.896 4.09)"><g class="c"><path class="d" d="M220.645-184.373v0Z" transform="translate(-220.645 184.373)"/><rect class="d" height="3.228"/><rect class="e" height="3.228" transform="translate(0)"/><rect class="f" height="3.228" transform="translate(0.001)"/><rect class="g" height="3.228" transform="translate(0.001)"/><rect class="h" height="3.228" transform="translate(0.002)"/><rect class="i" height="3.228" transform="translate(0.002)"/><rect class="j" height="3.228" transform="translate(0.003)"/><rect class="k" height="3.228" transform="translate(0.003)"/><rect class="l" height="3.228" transform="translate(0.004)"/><rect class="m" height="3.228" transform="translate(0.004)"/><rect class="n" height="3.228" transform="translate(0.005)"/><rect class="n" width="0.052" height="3.228" transform="translate(0.005)"/><rect class="o" width="0.052" height="3.228" transform="translate(0.057)"/><rect class="p" width="0.052" height="3.228" transform="translate(0.109)"/><rect class="q" width="0.052" height="3.228" transform="translate(0.161)"/><rect class="r" width="0.052" height="3.228" transform="translate(0.213)"/><rect class="s" width="0.052" height="3.228" transform="translate(0.265)"/><rect class="t" width="0.052" height="3.228" transform="translate(0.317)"/><rect class="u" width="0.052" height="3.228" transform="translate(0.369)"/><rect class="v" width="0.052" height="3.228" transform="translate(0.421)"/><rect class="w" width="0.052" height="3.228" transform="translate(0.473)"/><rect class="x" width="0.052" height="3.228" transform="translate(0.525)"/><rect class="y" width="0.052" height="3.228" transform="translate(0.577)"/><rect class="z" width="0.052" height="3.228" transform="translate(0.629)"/><rect class="aa" width="0.052" height="3.228" transform="translate(0.681)"/><rect class="ab" width="0.052" height="3.228" transform="translate(0.733)"/><rect class="ac" width="0.052" height="3.228" transform="translate(0.785)"/><rect class="ad" width="0.052" height="3.228" transform="translate(0.837)"/><rect class="ae" width="0.052" height="3.228" transform="translate(0.889)"/><rect class="af" width="0.052" height="3.228" transform="translate(0.941)"/><rect class="ag" width="0.052" height="3.228" transform="translate(0.993)"/><rect class="ah" width="0.052" height="3.228" transform="translate(1.045)"/><rect class="ai" width="0.052" height="3.228" transform="translate(1.097)"/><rect class="aj" width="0.052" height="3.228" transform="translate(1.149)"/><rect class="ak" width="0.052" height="3.228" transform="translate(1.201)"/><rect class="al" width="0.052" height="3.228" transform="translate(1.253)"/><rect class="am" width="0.052" height="3.228" transform="translate(1.305)"/><rect class="an" width="0.052" height="3.228" transform="translate(1.357)"/><rect class="ao" width="0.052" height="3.228" transform="translate(1.409)"/><rect class="ap" width="0.052" height="3.228" transform="translate(1.461)"/><rect class="aq" width="0.052" height="3.228" transform="translate(1.513)"/><rect class="ar" width="0.052" height="3.228" transform="translate(1.565)"/><rect class="as" width="0.052" height="3.228" transform="translate(1.617)"/><rect class="at" width="0.052" height="3.228" transform="translate(1.669)"/><rect class="au" width="0.052" height="3.228" transform="translate(1.721)"/><rect class="av" width="0.052" height="3.228" transform="translate(1.773)"/><rect class="aw" width="0.052" height="3.228" transform="translate(1.825)"/><rect class="ax" width="0.052" height="3.228" transform="translate(1.877)"/><rect class="ay" width="0.052" height="3.228" transform="translate(1.929)"/><rect class="az" width="0.052" height="3.228" transform="translate(1.981)"/><rect class="ba" width="0.052" height="3.228" transform="translate(2.033)"/><rect class="bb" width="0.052" height="3.228" transform="translate(2.085)"/><rect class="bc" width="0.052" height="3.228" transform="translate(2.137)"/><rect class="bd" width="0.052" height="3.228" transform="translate(2.189)"/><rect class="be" width="0.052" height="3.228" transform="translate(2.241)"/><rect class="bf" width="0.052" height="3.228" transform="translate(2.293)"/><rect class="bg" width="0.052" height="3.228" transform="translate(2.345)"/><rect class="bh" width="0.052" height="3.228" transform="translate(2.397)"/><rect class="bi" width="0.052" height="3.228" transform="translate(2.449)"/><rect class="bj" width="0.052" height="3.228" transform="translate(2.501)"/><rect class="bk" width="0.052" height="3.228" transform="translate(2.553)"/><rect class="bl" width="0.052" height="3.228" transform="translate(2.605)"/><rect class="bm" width="0.052" height="3.228" transform="translate(2.657)"/><rect class="bn" width="0.052" height="3.228" transform="translate(2.708)"/><rect class="bo" width="0.052" height="3.228" transform="translate(2.76)"/><rect class="bp" width="0.052" height="3.228" transform="translate(2.812)"/><rect class="bq" width="0.052" height="3.228" transform="translate(2.864)"/><rect class="br" width="0.052" height="3.228" transform="translate(2.916)"/><rect class="bs" width="0.052" height="3.228" transform="translate(2.968)"/><rect class="bt" width="0.052" height="3.228" transform="translate(3.02)"/><rect class="bu" width="0.052" height="3.228" transform="translate(3.072)"/><rect class="bv" width="0.052" height="3.228" transform="translate(3.124)"/><rect class="bw" width="0.052" height="3.228" transform="translate(3.176)"/><path class="bw" d="M237.126-181.145v0Z" transform="translate(-233.898 184.373)"/></g></g></g></g></svg>