<svg xmlns="http://www.w3.org/2000/svg" width="24.636" height="24.232" viewBox="0 0 24.636 24.232"><defs><style>.a,.b{fill:#1a1f71;}.b{fill-rule:evenodd;}</style></defs><g transform="translate(-296.921 217.476)"><g transform="translate(296.921 -217.476)"><g transform="translate(0 0.505)"><path class="a" d="M301.51-191.2a.8.8,0,0,1-.442-.134.8.8,0,0,1-.358-.667v-1.372l-3.789-1.424v-14.474a1.828,1.828,0,0,1,.959-1.632l6.129-3.23.6-.537a1.018,1.018,0,0,1,1.418.063l3.808,4.083v15.877l-8.013,3.383A.8.8,0,0,1,301.51-191.2Zm.387-2.57v1.186l6.75-2.85v-14.622l-3.373-3.616-.581.522-6.26,3.3a.653.653,0,0,0-.325.581v13.652l2.6.978v-10.957a.594.594,0,0,1,.594-.594.593.593,0,0,1,.594.594v11.8C301.9-193.783,301.9-193.774,301.9-193.765Z" transform="translate(-296.921 214.922)"/></g><g transform="translate(6.837 1.197)"><path class="a" d="M334.981-205.508q-.049,0-.1,0a1.259,1.259,0,0,1-1.009-.674l-2.328-4.368a.594.594,0,0,1,.245-.8.594.594,0,0,1,.8.245l2.328,4.368a.079.079,0,0,0,.057.049c.008,0,.027,0,.051-.031l1.122-1.473a.593.593,0,0,1,.832-.112.594.594,0,0,1,.113.832l-1.122,1.473A1.247,1.247,0,0,1,334.981-205.508Z" transform="translate(-331.475 211.426)"/></g><g transform="translate(10.106 9.478)"><path class="b" d="M348.415-167.518h0a.431.431,0,0,0,.415-.445v-1.163a.431.431,0,0,0-.415-.445h0a.431.431,0,0,0-.415.445v1.163A.431.431,0,0,0,348.415-167.518Z" transform="translate(-348 169.571)"/></g><g transform="translate(10.106 13.16)"><path class="b" d="M348.415-148.909h0a.431.431,0,0,0,.415-.445v-1.163a.431.431,0,0,0-.415-.445h0a.431.431,0,0,0-.415.445v1.163A.431.431,0,0,0,348.415-148.909Z" transform="translate(-348 150.962)"/></g><g transform="translate(10.106 16.83)"><path class="b" d="M348.415-130.361h0a.431.431,0,0,0,.415-.445v-1.163a.431.431,0,0,0-.415-.445h0a.431.431,0,0,0-.415.445v1.163A.431.431,0,0,0,348.415-130.361Z" transform="translate(-348 132.414)"/></g><g transform="translate(3.789 22.952)"><path class="a" d="M324.6-100.289h-7.937a.594.594,0,0,1-.594-.594.594.594,0,0,1,.594-.594H324.6a.594.594,0,0,1,.594.594A.594.594,0,0,1,324.6-100.289Z" transform="translate(-316.071 101.476)"/></g><g transform="translate(7.797)"><path class="a" d="M336.919-215.953a.594.594,0,0,1-.591-.543.594.594,0,0,1,.541-.642l3.93-.336a.593.593,0,0,1,.642.541.594.594,0,0,1-.541.642l-3.929.336Z" transform="translate(-336.326 217.476)"/></g></g><g transform="translate(308.644 -217.476)"><g transform="translate(0 0.505)"><path class="a" d="M364.378-191.253a.917.917,0,0,1-.357-.072l-7.852-3.315v-15.877l3.808-4.083a1.019,1.019,0,0,1,1.418-.063l.6.537,6.129,3.23a1.828,1.828,0,0,1,.959,1.632v14.474l-3.789,1.424v1.2a.914.914,0,0,1-.41.764A.914.914,0,0,1,364.378-191.253Zm-7.021-4.175,6.75,2.85v-1.186c0-.009,0-.018,0-.028v-11.8a.594.594,0,0,1,.594-.594.594.594,0,0,1,.594.594v10.957l2.6-.978v-13.652a.654.654,0,0,0-.326-.581l-6.26-3.3-.581-.522-3.373,3.616Z" transform="translate(-356.169 214.921)"/></g><g transform="translate(0.335 1.197)"><path class="a" d="M360.1-205.508a1.247,1.247,0,0,1-.992-.5l-1.122-1.473a.594.594,0,0,1,.112-.832.594.594,0,0,1,.832.112l1.122,1.473c.025.033.044.032.051.031a.079.079,0,0,0,.057-.049l2.328-4.368a.594.594,0,0,1,.8-.245.594.594,0,0,1,.245.8l-2.328,4.368a1.259,1.259,0,0,1-1.009.674C360.162-205.509,360.129-205.508,360.1-205.508Z" transform="translate(-357.86 211.426)"/></g><g transform="translate(1.976 9.478)"><path class="b" d="M366.573-167.518h0a.431.431,0,0,1-.415-.445v-1.163a.431.431,0,0,1,.415-.445h0a.431.431,0,0,1,.415.445v1.163A.431.431,0,0,1,366.573-167.518Z" transform="translate(-366.158 169.571)"/></g><g transform="translate(1.976 13.16)"><path class="b" d="M366.573-148.909h0a.431.431,0,0,1-.415-.445v-1.163a.431.431,0,0,1,.415-.445h0a.431.431,0,0,1,.415.445v1.163A.431.431,0,0,1,366.573-148.909Z" transform="translate(-366.158 150.962)"/></g><g transform="translate(1.976 16.83)"><path class="b" d="M366.573-130.361h0a.431.431,0,0,1-.415-.445v-1.163a.431.431,0,0,1,.415-.445h0a.431.431,0,0,1,.415.445v1.163A.431.431,0,0,1,366.573-130.361Z" transform="translate(-366.158 132.414)"/></g><g transform="translate(0 22.952)"><path class="a" d="M364.7-100.289h-7.937a.594.594,0,0,1-.594-.594.594.594,0,0,1,.594-.594H364.7a.594.594,0,0,1,.594.594A.594.594,0,0,1,364.7-100.289Z" transform="translate(-356.169 101.476)"/></g><path class="a" d="M360.693-215.953l-.051,0-3.929-.336a.594.594,0,0,1-.541-.642.591.591,0,0,1,.642-.541l3.93.336a.594.594,0,0,1,.541.642A.594.594,0,0,1,360.693-215.953Z" transform="translate(-356.169 217.475)"/></g></g></svg>