<svg xmlns="http://www.w3.org/2000/svg" xmlns:xlink="http://www.w3.org/1999/xlink" width="33.322" height="23" viewBox="0 0 33.322 23"><defs><style>.a{fill:none;}.b{fill:#1a1f71;}.c{clip-path:url(#a);}.d{fill:#1a1f5d;}.e{fill:#191f5e;}.f{fill:#191f5f;}.g{fill:#191f60;}.h{fill:#192061;}.i{fill:#192062;}.j{fill:#192063;}.k{fill:#192064;}.l{fill:#192165;}.m{fill:#182166;}.n{fill:#182167;}.o{fill:#182168;}.p{fill:#182269;}.q{fill:#18226a;}.r{fill:#18226b;}.s{fill:#18226c;}.t{fill:#18236d;}.u{fill:#17236e;}.v{fill:#17236f;}.w{fill:#172370;}.x{fill:#172471;}.y{fill:#172472;}.z{fill:#172473;}.aa{fill:#172474;}.ab{fill:#162575;}.ac{fill:#162576;}.ad{fill:#162577;}.ae{fill:#162578;}.af{fill:#16267a;}.ag{fill:#16267b;}.ah{fill:#16267c;}.ai{fill:#16267d;}.aj{fill:#15277e;}.ak{fill:#15277f;}.al{fill:#152780;}.am{fill:#152781;}.an{fill:#152882;}.ao{fill:#152883;}.ap{fill:#152884;}.aq{fill:#142885;}.ar{fill:#142986;}.as{fill:#142987;}.at{fill:#142988;}.au{fill:#142989;}.av{fill:#142a8a;}.aw{fill:#142a8b;}.ax{fill:#142a8c;}.ay{fill:#132a8d;}.az{fill:#132b8e;}.ba{fill:#132b8f;}.bb{fill:#132b90;}.bc{fill:#132b91;}.bd{fill:#132c92;}.be{fill:#132c93;}.bf{fill:#132c94;}.bg{fill:#122c95;}.bh{fill:#122d96;}.bi{fill:#122d97;}.bj{fill:#122d98;}.bk{fill:#252259;}.bl{fill:#242259;}.bm{fill:#232159;}.bn{fill:#222159;}.bo{fill:#212059;}.bp{fill:#20205a;}.bq{fill:#1e205a;}.br{fill:#1d1f5a;}.bs{fill:#1c1f5a;}.bt{fill:#1b1e5a;}.bu{fill:#1a1e5a;}.bv{fill:#1a1e5b;}.bw{fill:#1a1e5c;}.bx{clip-path:url(#b);}</style><clipPath id="a"><path class="a" d="M644.144-201.214v1.066h1.316v-1.066a.63.63,0,0,0-.658-.589.639.639,0,0,0-.658.589m3.635,0v1.066H649.1v-1.066a.63.63,0,0,0-.658-.589.634.634,0,0,0-.658.589m3.635,0v1.066h1.316v-1.066a.63.63,0,0,0-.658-.589.639.639,0,0,0-.658.589m3.635,0v1.066h1.316v-1.066a.63.63,0,0,0-.658-.589.634.634,0,0,0-.658.589m3.635,0v1.066h1.253v-1.066a.6.6,0,0,0-.627-.589.61.61,0,0,0-.627.589m-13.086-8.4a4.676,4.676,0,0,1,1.166-.157,3.506,3.506,0,0,1,2.463.99c1.642,1.5,3.24,3.115,4.957,4.744h-4.631a1.109,1.109,0,0,1-.8-.483c-.884-1.366-2.3-3.7-3.159-5.1m-.545,22.706c1.918-3.422,4.143-6.537,6.161-9.921h7.627s-6.762,5.872-9.652,8.636A4.143,4.143,0,0,1,645.053-186.906Z" transform="translate(-644.144 209.769)"/></clipPath><clipPath id="b"><path class="a" d="M735.872-169.361v-1.773a5.267,5.267,0,0,1,4.08,1.773Z" transform="translate(-735.872 171.134)"/></clipPath></defs><g transform="translate(-607.126 209.769)"><g transform="translate(607.126 -208.796)"><path class="b" d="M619.227-192.466a37.088,37.088,0,0,1-7.51-.831,7.963,7.963,0,0,1-3.434-1.661,4.745,4.745,0,0,1-1.156-3.055v-5.647a1.441,1.441,0,0,1,1.118-1.358,1.8,1.8,0,0,1,.384-.038,2.06,2.06,0,0,1,1.814,1.246c.517.979,1.066,2.036,1.579,3.119.331.7.674.843,1.12.843h20.531a7.375,7.375,0,0,1,5.738,2.33,4.839,4.839,0,0,1,.872,1.6l.029.111a1.832,1.832,0,0,1-1.4,2.564,22.291,22.291,0,0,1-4.871.729l-4.44.037a.816.816,0,0,1-.144.013H619.227Zm10.149-1.231Zm-20.747-10.121a.586.586,0,0,0-.128.011c-.037.012-.137.087-.137.147v5.647a3.6,3.6,0,0,0,.788,2.173,6.679,6.679,0,0,0,2.829,1.333,36.015,36.015,0,0,0,7.43.8l10.121-.013,4.493-.038a21.364,21.364,0,0,0,4.543-.678c.768-.234.713-.441.549-1.057l-.034-.131a3.744,3.744,0,0,0-.593-1.07,6.2,6.2,0,0,0-4.816-1.918H613.141a2.355,2.355,0,0,1-2.24-1.552c-.5-1.061-1.044-2.1-1.554-3.071C609.207-203.5,608.968-203.817,608.629-203.817Z" transform="translate(-607.126 205.055)"/></g><g transform="translate(614.764 -209.769)"><g class="c"><rect class="d" width="0.134" height="10.353" transform="translate(0.909 12.942)"/><rect class="e" width="0.254" height="10.353" transform="translate(1.043 12.942)"/><rect class="f" width="0.254" height="10.353" transform="translate(1.297 12.942)"/><rect class="g" width="0.254" height="10.353" transform="translate(1.551 12.942)"/><rect class="h" width="0.254" height="10.353" transform="translate(1.806 12.942)"/><rect class="i" width="0.254" height="10.353" transform="translate(2.06 12.942)"/><rect class="j" width="0.254" height="10.353" transform="translate(2.314 12.942)"/><rect class="k" width="0.254" height="10.353" transform="translate(2.569 12.942)"/><rect class="l" width="0.254" height="10.353" transform="translate(2.823 12.942)"/><rect class="m" width="0.254" height="10.353" transform="translate(3.077 12.942)"/><rect class="n" width="0.254" height="10.353" transform="translate(3.332 12.942)"/><rect class="o" width="0.254" height="10.353" transform="translate(3.586 12.942)"/><rect class="p" width="0.254" height="10.353" transform="translate(3.84 12.942)"/><rect class="q" width="0.254" height="10.353" transform="translate(4.095 12.942)"/><rect class="r" width="0.254" height="10.353" transform="translate(4.349 12.942)"/><rect class="s" width="0.254" height="10.353" transform="translate(4.603 12.942)"/><rect class="t" width="0.254" height="10.353" transform="translate(4.858 12.942)"/><rect class="u" width="0.254" height="10.353" transform="translate(5.112 12.942)"/><rect class="v" width="0.254" height="10.353" transform="translate(5.366 12.942)"/><rect class="w" width="0.254" height="10.353" transform="translate(5.621 12.942)"/><rect class="x" width="0.254" height="10.353" transform="translate(5.875 12.942)"/><rect class="y" width="0.254" height="10.353" transform="translate(6.129 12.942)"/><rect class="z" width="0.254" height="10.353" transform="translate(6.384 12.942)"/><rect class="aa" width="0.254" height="10.353" transform="translate(6.638 12.942)"/><rect class="ab" width="0.254" height="10.353" transform="translate(6.892 12.942)"/><rect class="ac" width="0.254" height="10.353" transform="translate(7.146 12.942)"/><rect class="ad" width="0.254" height="10.353" transform="translate(7.401 12.942)"/><rect class="ae" width="0.254" height="10.353" transform="translate(7.655 12.942)"/><rect class="af" width="0.254" height="10.353" transform="translate(7.909 12.942)"/><rect class="ag" width="0.254" height="10.353" transform="translate(8.164 12.942)"/><rect class="ah" width="0.254" height="10.353" transform="translate(8.418 12.942)"/><rect class="ai" width="0.254" height="10.353" transform="translate(8.672 12.942)"/><rect class="aj" width="0.254" height="10.353" transform="translate(8.927 12.942)"/><rect class="ak" width="0.254" height="10.353" transform="translate(9.181 12.942)"/><rect class="al" width="0.254" height="10.353" transform="translate(9.435 12.942)"/><rect class="am" width="0.254" height="10.353" transform="translate(9.69 12.942)"/><rect class="an" width="0.254" height="10.353" transform="translate(9.944 12.942)"/><rect class="ao" width="0.254" height="10.353" transform="translate(10.198 12.942)"/><rect class="ap" width="0.254" height="10.353" transform="translate(10.453 12.942)"/><rect class="aq" width="0.254" height="10.353" transform="translate(10.707 12.942)"/><rect class="ar" width="0.254" height="10.353" transform="translate(10.961 12.942)"/><rect class="as" width="0.254" height="10.353" transform="translate(11.216 12.942)"/><rect class="at" width="0.254" height="10.353" transform="translate(11.47 12.942)"/><rect class="au" width="0.254" height="10.353" transform="translate(11.724 12.942)"/><rect class="av" width="0.254" height="10.353" transform="translate(11.979 12.942)"/><rect class="aw" width="0.254" height="10.353" transform="translate(12.233 12.942)"/><rect class="ax" width="0.254" height="10.353" transform="translate(12.487 12.942)"/><rect class="ay" width="0.254" height="10.353" transform="translate(12.742 12.942)"/><rect class="az" width="0.254" height="10.353" transform="translate(12.996 12.942)"/><rect class="ba" width="0.254" height="10.353" transform="translate(13.25 12.942)"/><rect class="bb" width="0.254" height="10.353" transform="translate(13.505 12.942)"/><rect class="bc" width="0.254" height="10.353" transform="translate(13.759 12.942)"/><rect class="bd" width="0.254" height="10.353" transform="translate(14.013 12.942)"/><rect class="be" width="0.254" height="10.353" transform="translate(14.268 12.942)"/><rect class="bf" width="0.175" height="10.353" transform="translate(14.522 12.942)"/><rect class="f" width="0.097" height="5.735" transform="translate(1.454 0)"/><rect class="g" width="0.254" height="5.735" transform="translate(1.551 0)"/><rect class="h" width="0.254" height="5.735" transform="translate(1.806 0)"/><rect class="i" width="0.254" height="5.735" transform="translate(2.06 0)"/><rect class="j" width="0.254" height="5.735" transform="translate(2.314 0)"/><rect class="k" width="0.254" height="5.735" transform="translate(2.569 0)"/><rect class="l" width="0.254" height="5.735" transform="translate(2.823 0)"/><rect class="m" width="0.254" height="5.735" transform="translate(3.077 0)"/><rect class="n" width="0.254" height="5.735" transform="translate(3.332 0)"/><rect class="o" width="0.254" height="5.735" transform="translate(3.586 0)"/><rect class="p" width="0.254" height="5.735" transform="translate(3.84 0)"/><rect class="q" width="0.254" height="5.735" transform="translate(4.095 0)"/><rect class="r" width="0.254" height="5.735" transform="translate(4.349 0)"/><rect class="s" width="0.254" height="5.735" transform="translate(4.603 0)"/><rect class="t" width="0.254" height="5.735" transform="translate(4.858 0)"/><rect class="u" width="0.254" height="5.735" transform="translate(5.112 0)"/><rect class="v" width="0.254" height="5.735" transform="translate(5.366 0)"/><rect class="w" width="0.254" height="5.735" transform="translate(5.621 0)"/><rect class="x" width="0.254" height="5.735" transform="translate(5.875 0)"/><rect class="y" width="0.254" height="5.735" transform="translate(6.129 0)"/><rect class="z" width="0.254" height="5.735" transform="translate(6.384 0)"/><rect class="aa" width="0.254" height="5.735" transform="translate(6.638 0)"/><rect class="ab" width="0.254" height="5.735" transform="translate(6.892 0)"/><rect class="ac" width="0.254" height="5.735" transform="translate(7.146 0)"/><rect class="ad" width="0.254" height="5.735" transform="translate(7.401 0)"/><rect class="ae" width="0.254" height="5.735" transform="translate(7.655 0)"/><rect class="af" width="0.254" height="5.735" transform="translate(7.909 0)"/><rect class="ag" width="0.254" height="5.735" transform="translate(8.164 0)"/><rect class="ah" width="0.254" height="5.735" transform="translate(8.418 0)"/><rect class="ai" width="0.254" height="5.735" transform="translate(8.672 0)"/><rect class="aj" width="0.254" height="5.735" transform="translate(8.927 0)"/><rect class="ak" width="0.254" height="5.735" transform="translate(9.181 0)"/><rect class="al" width="0.254" height="5.735" transform="translate(9.435 0)"/><rect class="am" width="0.254" height="5.735" transform="translate(9.69 0)"/><rect class="an" width="0.096" height="5.735" transform="translate(9.944 0)"/><rect class="bf" width="0.236" height="1.655" transform="translate(14.54 7.966)"/><rect class="bg" width="0.254" height="1.655" transform="translate(14.776 7.966)"/><rect class="bh" width="0.254" height="1.655" transform="translate(15.031 7.966)"/><rect class="bi" width="0.254" height="1.655" transform="translate(15.285 7.966)"/><rect class="bj" width="0.254" height="1.655" transform="translate(15.539 7.966)"/><path class="bj" d="M720.685-169.51v0Z" transform="translate(-704.891 179.131)"/><rect class="aq" width="0.056" height="1.655" transform="translate(10.905 7.966)"/><rect class="ar" width="0.254" height="1.655" transform="translate(10.961 7.966)"/><rect class="as" width="0.254" height="1.655" transform="translate(11.216 7.966)"/><rect class="at" width="0.254" height="1.655" transform="translate(11.47 7.966)"/><rect class="au" width="0.254" height="1.655" transform="translate(11.724 7.966)"/><rect class="av" width="0.243" height="1.655" transform="translate(11.979 7.966)"/><rect class="ac" width="0.131" height="1.655" transform="translate(7.27 7.966)"/><rect class="ad" width="0.254" height="1.655" transform="translate(7.401 7.966)"/><rect class="ae" width="0.254" height="1.655" transform="translate(7.655 7.966)"/><rect class="af" width="0.254" height="1.655" transform="translate(7.909 7.966)"/><rect class="ag" width="0.254" height="1.655" transform="translate(8.164 7.966)"/><rect class="ah" width="0.168" height="1.655" transform="translate(8.418 7.966)"/><rect class="o" width="0.205" height="1.655" transform="translate(3.635 7.966)"/><rect class="p" width="0.254" height="1.655" transform="translate(3.84 7.966)"/><rect class="q" width="0.254" height="1.655" transform="translate(4.095 7.966)"/><rect class="r" width="0.254" height="1.655" transform="translate(4.349 7.966)"/><rect class="s" width="0.254" height="1.655" transform="translate(4.603 7.966)"/><rect class="t" width="0.094" height="1.655" transform="translate(4.858 7.966)"/><path class="bk" d="M644.144-171.165v0Z" transform="translate(-644.144 179.131)"/><rect class="bk" width="0.002" height="1.655" transform="translate(0 7.966)"/><rect class="bl" width="0.002" height="1.655" transform="translate(0.002 7.966)"/><rect class="bm" width="0.002" height="1.655" transform="translate(0.005 7.966)"/><rect class="bn" width="0.002" height="1.655" transform="translate(0.007 7.966)"/><rect class="bo" width="0.002" height="1.655" transform="translate(0.009 7.966)"/><rect class="bp" width="0.002" height="1.655" transform="translate(0.012 7.966)"/><rect class="bq" width="0.002" height="1.655" transform="translate(0.014 7.966)"/><rect class="br" width="0.002" height="1.655" transform="translate(0.016 7.966)"/><rect class="bs" width="0.002" height="1.655" transform="translate(0.019 7.966)"/><rect class="bt" width="0.002" height="1.655" transform="translate(0.021 7.966)"/><rect class="bu" width="0.002" height="1.655" transform="translate(0.023 7.966)"/><rect class="bu" width="0.254" height="1.655" transform="translate(0.025 7.966)"/><rect class="bv" width="0.254" height="1.655" transform="translate(0.28 7.966)"/><rect class="bw" width="0.254" height="1.655" transform="translate(0.534 7.966)"/><rect class="d" width="0.254" height="1.655" transform="translate(0.788 7.966)"/><rect class="e" width="0.254" height="1.655" transform="translate(1.043 7.966)"/><rect class="f" width="0.019" height="1.655" transform="translate(1.297 7.966)"/></g></g><g transform="translate(633.691 -201.797)"><g class="bx"><path class="bk" d="M735.872-171.134v0Z" transform="translate(-735.872 171.134)"/><rect class="bk" width="0.001" height="1.774" transform="translate(0 0)"/><rect class="bl" width="0.001" height="1.774" transform="translate(0.001 0)"/><rect class="bm" width="0.001" height="1.774" transform="translate(0.001 0)"/><rect class="bn" width="0.001" height="1.774" transform="translate(0.002 0)"/><rect class="bo" width="0.001" height="1.774" transform="translate(0.002 0)"/><rect class="bp" width="0.001" height="1.774" transform="translate(0.003 0)"/><rect class="bq" width="0.001" height="1.774" transform="translate(0.004 0)"/><rect class="br" width="0.001" height="1.774" transform="translate(0.004 0)"/><rect class="bs" width="0.001" height="1.774" transform="translate(0.005 0)"/><rect class="bt" width="0.001" height="1.774" transform="translate(0.005 0)"/><rect class="bu" width="0.001" height="1.774" transform="translate(0.006 0)"/><rect class="bu" width="0.066" height="1.774" transform="translate(0.006 0)"/><rect class="bv" width="0.066" height="1.774" transform="translate(0.072 0)"/><rect class="bw" width="0.066" height="1.774" transform="translate(0.138 0)"/><rect class="d" width="0.066" height="1.774" transform="translate(0.204 0)"/><rect class="e" width="0.066" height="1.774" transform="translate(0.269 0)"/><rect class="f" width="0.066" height="1.774" transform="translate(0.335 0)"/><rect class="g" width="0.066" height="1.774" transform="translate(0.401 0)"/><rect class="h" width="0.066" height="1.774" transform="translate(0.466 0)"/><rect class="i" width="0.066" height="1.774" transform="translate(0.532 0)"/><rect class="j" width="0.066" height="1.774" transform="translate(0.598 0)"/><rect class="k" width="0.066" height="1.774" transform="translate(0.663 0)"/><rect class="l" width="0.066" height="1.774" transform="translate(0.729 0)"/><rect class="m" width="0.066" height="1.774" transform="translate(0.795 0)"/><rect class="n" width="0.066" height="1.774" transform="translate(0.861 0)"/><rect class="o" width="0.066" height="1.774" transform="translate(0.926 0)"/><rect class="p" width="0.066" height="1.774" transform="translate(0.992 0)"/><rect class="q" width="0.066" height="1.774" transform="translate(1.058 0)"/><rect class="r" width="0.066" height="1.774" transform="translate(1.123 0)"/><rect class="s" width="0.066" height="1.774" transform="translate(1.189 0)"/><rect class="t" width="0.066" height="1.774" transform="translate(1.255 0)"/><rect class="u" width="0.066" height="1.774" transform="translate(1.32 0)"/><rect class="v" width="0.066" height="1.774" transform="translate(1.386 0)"/><rect class="w" width="0.066" height="1.774" transform="translate(1.452 0)"/><rect class="x" width="0.066" height="1.774" transform="translate(1.518 0)"/><rect class="y" width="0.066" height="1.774" transform="translate(1.583 0)"/><rect class="z" width="0.066" height="1.774" transform="translate(1.649 0)"/><rect class="aa" width="0.066" height="1.774" transform="translate(1.715 0)"/><rect class="ab" width="0.066" height="1.774" transform="translate(1.78 0)"/><rect class="ac" width="0.066" height="1.774" transform="translate(1.846 0)"/><rect class="ad" width="0.066" height="1.774" transform="translate(1.912 0)"/><rect class="ae" width="0.066" height="1.774" transform="translate(1.977 0)"/><rect class="af" width="0.066" height="1.774" transform="translate(2.043 0)"/><rect class="ag" width="0.066" height="1.774" transform="translate(2.109 0)"/><rect class="ah" width="0.066" height="1.774" transform="translate(2.175 0)"/><rect class="ai" width="0.066" height="1.774" transform="translate(2.24 0)"/><rect class="aj" width="0.066" height="1.774" transform="translate(2.306 0)"/><rect class="ak" width="0.066" height="1.774" transform="translate(2.372 0)"/><rect class="al" width="0.066" height="1.774" transform="translate(2.437 0)"/><rect class="am" width="0.066" height="1.774" transform="translate(2.503 0)"/><rect class="an" width="0.066" height="1.774" transform="translate(2.569 0)"/><rect class="ao" width="0.066" height="1.774" transform="translate(2.634 0)"/><rect class="ap" width="0.066" height="1.774" transform="translate(2.7 0)"/><rect class="aq" width="0.066" height="1.774" transform="translate(2.766 0)"/><rect class="ar" width="0.066" height="1.774" transform="translate(2.832 0)"/><rect class="as" width="0.066" height="1.774" transform="translate(2.897 0)"/><rect class="at" width="0.066" height="1.774" transform="translate(2.963 0)"/><rect class="au" width="0.066" height="1.774" transform="translate(3.029 0)"/><rect class="av" width="0.066" height="1.774" transform="translate(3.094 0)"/><rect class="aw" width="0.066" height="1.774" transform="translate(3.16 0)"/><rect class="ax" width="0.066" height="1.774" transform="translate(3.226 0)"/><rect class="ay" width="0.066" height="1.774" transform="translate(3.291 0)"/><rect class="az" width="0.066" height="1.774" transform="translate(3.357 0)"/><rect class="ba" width="0.066" height="1.774" transform="translate(3.423 0)"/><rect class="bb" width="0.066" height="1.774" transform="translate(3.489 0)"/><rect class="bc" width="0.066" height="1.774" transform="translate(3.554 0)"/><rect class="bd" width="0.066" height="1.774" transform="translate(3.62 0)"/><rect class="be" width="0.066" height="1.774" transform="translate(3.686 0)"/><rect class="bf" width="0.066" height="1.774" transform="translate(3.751 0)"/><rect class="bg" width="0.066" height="1.774" transform="translate(3.817 0)"/><rect class="bh" width="0.066" height="1.774" transform="translate(3.883 0)"/><rect class="bi" width="0.066" height="1.774" transform="translate(3.948 0)"/><rect class="bj" width="0.066" height="1.774" transform="translate(4.014 0)"/><path class="bj" d="M755.645-169.361v0Z" transform="translate(-751.565 171.134)"/></g></g></g></svg>