<svg xmlns="http://www.w3.org/2000/svg" width="26.415" height="25.26" viewBox="0 0 26.415 25.26"><defs><style>.a{fill:#1a1f71;}</style></defs><g transform="translate(-792.719 222.148)"><path class="a" d="M813.213-196.888a1.419,1.419,0,0,1-.661-.164l-6.607-3.473a.039.039,0,0,0-.036,0l-6.607,3.473a1.41,1.41,0,0,1-1.494-.108,1.41,1.41,0,0,1-.564-1.387l1.262-7.357a.04.04,0,0,0-.011-.035l-5.345-5.21a1.41,1.41,0,0,1-.359-1.454,1.41,1.41,0,0,1,1.145-.965l7.387-1.074a.04.04,0,0,0,.029-.021l3.3-6.694a1.41,1.41,0,0,1,1.272-.791,1.41,1.41,0,0,1,1.272.791h0l3.3,6.694a.039.039,0,0,0,.029.021l7.387,1.074a1.409,1.409,0,0,1,1.145.965,1.41,1.41,0,0,1-.359,1.454l-5.345,5.21a.039.039,0,0,0-.011.035l1.262,7.357a1.409,1.409,0,0,1-.564,1.387A1.413,1.413,0,0,1,813.213-196.888Zm-7.287-5.022a1.416,1.416,0,0,1,.66.163l6.607,3.473a.032.032,0,0,0,.041,0,.032.032,0,0,0,.015-.038l-1.262-7.357a1.42,1.42,0,0,1,.408-1.256l5.346-5.21a.032.032,0,0,0,.01-.04.032.032,0,0,0-.031-.027l-7.387-1.073a1.418,1.418,0,0,1-1.068-.776l-3.3-6.694a.045.045,0,0,0-.07,0l-3.3,6.694a1.418,1.418,0,0,1-1.068.776l-7.387,1.073a.032.032,0,0,0-.032.027.032.032,0,0,0,.01.04l5.345,5.21a1.419,1.419,0,0,1,.408,1.255l-1.262,7.357a.032.032,0,0,0,.016.038.032.032,0,0,0,.041,0l6.607-3.473A1.418,1.418,0,0,1,805.927-201.91Z" transform="translate(0 0)"/></g></svg>