<svg xmlns="http://www.w3.org/2000/svg" xmlns:xlink="http://www.w3.org/1999/xlink" width="36.425" height="19.679" viewBox="0 0 36.425 19.679"><defs><style>.a{fill:none;}.b{fill:#1a1f71;}.c{clip-path:url(#a);}.d{fill:#1a1f5d;}.e{fill:#191f5e;}.f{fill:#191f5f;}.g{fill:#191f60;}.h{fill:#192061;}.i{fill:#192062;}.j{fill:#192063;}.k{fill:#192064;}.l{fill:#192165;}.m{fill:#182166;}.n{fill:#182167;}.o{fill:#182168;}.p{fill:#182269;}.q{fill:#18226a;}.r{fill:#18226b;}.s{fill:#18226c;}.t{fill:#18236d;}.u{fill:#17236e;}.v{fill:#17236f;}.w{fill:#172370;}.x{fill:#172471;}.y{fill:#172472;}.z{fill:#172473;}.aa{fill:#172474;}.ab{fill:#162575;}.ac{fill:#162576;}.ad{fill:#162577;}.ae{fill:#162578;}.af{fill:#16267a;}.ag{fill:#16267b;}.ah{fill:#16267c;}.ai{fill:#16267d;}.aj{fill:#15277e;}.ak{fill:#15277f;}.al{fill:#152780;}.am{fill:#152781;}.an{fill:#152882;}.ao{fill:#152883;}.ap{fill:#152884;}.aq{fill:#142885;}.ar{fill:#142986;}.as{fill:#142987;}.at{fill:#142988;}.au{fill:#142989;}.av{fill:#142a8a;}.aw{fill:#142a8b;}.ax{fill:#142a8c;}.ay{fill:#132a8d;}.az{fill:#132b8e;}.ba{fill:#132b8f;}.bb{fill:#132b90;}.bc{fill:#132b91;}.bd{fill:#132c92;}.be{fill:#132c93;}.bf{fill:#132c94;}.bg{fill:#122c95;}.bh{fill:#122d96;}.bi{fill:#122d97;}.bj{fill:#122d98;}.bk{fill:#252259;}.bl{fill:#242259;}.bm{fill:#232159;}.bn{fill:#222159;}.bo{fill:#212059;}.bp{fill:#20205a;}.bq{fill:#1e205a;}.br{fill:#1d1f5a;}.bs{fill:#1c1f5a;}.bt{fill:#1b1e5a;}.bu{fill:#1a1e5a;}.bv{fill:#1a1e5b;}.bw{fill:#1a1e5c;}.bx{clip-path:url(#b);}</style><clipPath id="a"><path class="a" d="M978.664-227.25v.912h1.126v-.912a.539.539,0,0,0-.563-.5.547.547,0,0,0-.563.5m3.11,0v.912H982.9v-.912a.539.539,0,0,0-.563-.5.543.543,0,0,0-.563.5m3.11,0v.912h1.126v-.912a.539.539,0,0,0-.563-.5.547.547,0,0,0-.563.5m3.11,0v.912h1.126v-.912a.539.539,0,0,0-.563-.5.543.543,0,0,0-.563.5m3.11,0v.912h1.072v-.912a.515.515,0,0,0-.536-.5.521.521,0,0,0-.536.5m-11.2-7.186a4,4,0,0,1,1-.134,3,3,0,0,1,2.107.847c1.4,1.287,2.772,2.665,4.242,4.059h-3.963a.949.949,0,0,1-.681-.413c-.756-1.169-1.968-3.164-2.7-4.36m-.466,19.428c1.641-2.928,3.545-5.593,5.271-8.489h6.526s-5.786,5.025-8.258,7.39A3.545,3.545,0,0,1,979.442-215.008Z" transform="translate(-978.664 234.57)"/></clipPath><clipPath id="b"><path class="a" d="M1070.391-194.418v-1.518a4.507,4.507,0,0,1,3.491,1.518Z" transform="translate(-1070.391 195.936)"/></clipPath></defs><g transform="translate(-919.244 234.57)"><g transform="translate(923.199 -234.57)"><g transform="translate(0 0.832)"><path class="b" d="M952-219.083a31.731,31.731,0,0,1-6.426-.711,6.812,6.812,0,0,1-2.938-1.421,4.062,4.062,0,0,1-.989-2.614v-4.831a1.233,1.233,0,0,1,.956-1.162,1.547,1.547,0,0,1,.329-.033,1.762,1.762,0,0,1,1.552,1.066c.442.837.911,1.741,1.351,2.669.283.6.577.721.958.721H964.36a6.311,6.311,0,0,1,4.909,1.993,4.145,4.145,0,0,1,.747,1.367l.025.1a1.568,1.568,0,0,1-1.194,2.193,19.051,19.051,0,0,1-4.168.623l-3.8.032a.682.682,0,0,1-.124.011H952Zm8.684-1.053h0ZM942.932-228.8a.5.5,0,0,0-.109.01c-.031.01-.117.075-.117.126v4.831a3.085,3.085,0,0,0,.674,1.86,5.714,5.714,0,0,0,2.42,1.14,30.875,30.875,0,0,0,6.357.685l8.66-.011,3.845-.032a18.3,18.3,0,0,0,3.887-.58c.657-.2.61-.377.47-.9l-.029-.112a3.21,3.21,0,0,0-.508-.916,5.3,5.3,0,0,0-4.12-1.641H946.793a2.015,2.015,0,0,1-1.916-1.328c-.43-.909-.893-1.8-1.33-2.628C943.426-228.524,943.222-228.8,942.932-228.8Z" transform="translate(-941.646 229.855)"/></g><g transform="translate(6.536)"><g class="c"><rect class="d" width="0.115" height="8.859" transform="translate(0.777 11.073)"/><rect class="e" width="0.218" height="8.859" transform="translate(0.892 11.073)"/><rect class="f" width="0.218" height="8.859" transform="translate(1.11 11.073)"/><rect class="g" width="0.218" height="8.859" transform="translate(1.327 11.073)"/><rect class="h" width="0.218" height="8.859" transform="translate(1.545 11.073)"/><rect class="i" width="0.218" height="8.859" transform="translate(1.762 11.073)"/><rect class="j" width="0.218" height="8.859" transform="translate(1.98 11.073)"/><rect class="k" width="0.218" height="8.859" transform="translate(2.198 11.073)"/><rect class="l" width="0.218" height="8.859" transform="translate(2.415 11.073)"/><rect class="m" width="0.218" height="8.859" transform="translate(2.633 11.073)"/><rect class="n" width="0.218" height="8.859" transform="translate(2.85 11.073)"/><rect class="o" width="0.218" height="8.859" transform="translate(3.068 11.073)"/><rect class="p" width="0.218" height="8.859" transform="translate(3.286 11.073)"/><rect class="q" width="0.218" height="8.859" transform="translate(3.503 11.073)"/><rect class="r" width="0.218" height="8.859" transform="translate(3.721 11.073)"/><rect class="s" width="0.218" height="8.859" transform="translate(3.939 11.073)"/><rect class="t" width="0.218" height="8.859" transform="translate(4.156 11.073)"/><rect class="u" width="0.218" height="8.859" transform="translate(4.374 11.073)"/><rect class="v" width="0.218" height="8.859" transform="translate(4.591 11.073)"/><rect class="w" width="0.218" height="8.859" transform="translate(4.809 11.073)"/><rect class="x" width="0.218" height="8.859" transform="translate(5.027 11.073)"/><rect class="y" width="0.218" height="8.859" transform="translate(5.244 11.073)"/><rect class="z" width="0.218" height="8.859" transform="translate(5.462 11.073)"/><rect class="aa" width="0.218" height="8.859" transform="translate(5.679 11.073)"/><rect class="ab" width="0.218" height="8.859" transform="translate(5.897 11.073)"/><rect class="ac" width="0.218" height="8.859" transform="translate(6.115 11.073)"/><rect class="ad" width="0.218" height="8.859" transform="translate(6.332 11.073)"/><rect class="ae" width="0.218" height="8.859" transform="translate(6.55 11.073)"/><rect class="af" width="0.218" height="8.859" transform="translate(6.767 11.073)"/><rect class="ag" width="0.218" height="8.859" transform="translate(6.985 11.073)"/><rect class="ah" width="0.218" height="8.859" transform="translate(7.203 11.073)"/><rect class="ai" width="0.218" height="8.859" transform="translate(7.42 11.073)"/><rect class="aj" width="0.218" height="8.859" transform="translate(7.638 11.073)"/><rect class="ak" width="0.218" height="8.859" transform="translate(7.855 11.073)"/><rect class="al" width="0.218" height="8.859" transform="translate(8.073 11.073)"/><rect class="am" width="0.218" height="8.859" transform="translate(8.291 11.073)"/><rect class="an" width="0.218" height="8.859" transform="translate(8.508 11.073)"/><rect class="ao" width="0.218" height="8.859" transform="translate(8.726 11.073)"/><rect class="ap" width="0.218" height="8.859" transform="translate(8.943 11.073)"/><rect class="aq" width="0.218" height="8.859" transform="translate(9.161 11.073)"/><rect class="ar" width="0.218" height="8.859" transform="translate(9.379 11.073)"/><rect class="as" width="0.218" height="8.859" transform="translate(9.596 11.073)"/><rect class="at" width="0.218" height="8.859" transform="translate(9.814 11.073)"/><rect class="au" width="0.218" height="8.859" transform="translate(10.032 11.073)"/><rect class="av" width="0.218" height="8.859" transform="translate(10.249 11.073)"/><rect class="aw" width="0.218" height="8.859" transform="translate(10.467 11.073)"/><rect class="ax" width="0.218" height="8.859" transform="translate(10.684 11.073)"/><rect class="ay" width="0.218" height="8.859" transform="translate(10.902 11.073)"/><rect class="az" width="0.218" height="8.859" transform="translate(11.12 11.073)"/><rect class="ba" width="0.218" height="8.859" transform="translate(11.337 11.073)"/><rect class="bb" width="0.218" height="8.859" transform="translate(11.555 11.073)"/><rect class="bc" width="0.218" height="8.859" transform="translate(11.772 11.073)"/><rect class="bd" width="0.218" height="8.859" transform="translate(11.99 11.073)"/><rect class="be" width="0.218" height="8.859" transform="translate(12.208 11.073)"/><rect class="bf" width="0.15" height="8.859" transform="translate(12.425 11.073)"/><rect class="f" width="0.083" height="4.907" transform="translate(1.244 0)"/><rect class="g" width="0.218" height="4.907" transform="translate(1.327 0)"/><rect class="h" width="0.218" height="4.907" transform="translate(1.545 0)"/><rect class="i" width="0.218" height="4.907" transform="translate(1.762 0)"/><rect class="j" width="0.218" height="4.907" transform="translate(1.98 0)"/><rect class="k" width="0.218" height="4.907" transform="translate(2.198 0)"/><rect class="l" width="0.218" height="4.907" transform="translate(2.415 0)"/><rect class="m" width="0.218" height="4.907" transform="translate(2.633 0)"/><rect class="n" width="0.218" height="4.907" transform="translate(2.85 0)"/><rect class="o" width="0.218" height="4.907" transform="translate(3.068 0)"/><rect class="p" width="0.218" height="4.907" transform="translate(3.286 0)"/><rect class="q" width="0.218" height="4.907" transform="translate(3.503 0)"/><rect class="r" width="0.218" height="4.907" transform="translate(3.721 0)"/><rect class="s" width="0.218" height="4.907" transform="translate(3.939 0)"/><rect class="t" width="0.218" height="4.907" transform="translate(4.156 0)"/><rect class="u" width="0.218" height="4.907" transform="translate(4.374 0)"/><rect class="v" width="0.218" height="4.907" transform="translate(4.591 0)"/><rect class="w" width="0.218" height="4.907" transform="translate(4.809 0)"/><rect class="x" width="0.218" height="4.907" transform="translate(5.027 0)"/><rect class="y" width="0.218" height="4.907" transform="translate(5.244 0)"/><rect class="z" width="0.218" height="4.907" transform="translate(5.462 0)"/><rect class="aa" width="0.218" height="4.907" transform="translate(5.679 0)"/><rect class="ab" width="0.218" height="4.907" transform="translate(5.897 0)"/><rect class="ac" width="0.218" height="4.907" transform="translate(6.115 0)"/><rect class="ad" width="0.218" height="4.907" transform="translate(6.332 0)"/><rect class="ae" width="0.218" height="4.907" transform="translate(6.55 0)"/><rect class="af" width="0.218" height="4.907" transform="translate(6.767 0)"/><rect class="ag" width="0.218" height="4.907" transform="translate(6.985 0)"/><rect class="ah" width="0.218" height="4.907" transform="translate(7.203 0)"/><rect class="ai" width="0.218" height="4.907" transform="translate(7.42 0)"/><rect class="aj" width="0.218" height="4.907" transform="translate(7.638 0)"/><rect class="ak" width="0.218" height="4.907" transform="translate(7.855 0)"/><rect class="al" width="0.218" height="4.907" transform="translate(8.073 0)"/><rect class="am" width="0.218" height="4.907" transform="translate(8.291 0)"/><rect class="an" width="0.082" height="4.907" transform="translate(8.508 0)"/><rect class="bf" width="0.202" height="1.416" transform="translate(12.441 6.816)"/><rect class="bg" width="0.218" height="1.416" transform="translate(12.643 6.816)"/><rect class="bh" width="0.218" height="1.416" transform="translate(12.86 6.816)"/><rect class="bi" width="0.218" height="1.416" transform="translate(13.078 6.816)"/><rect class="bj" width="0.218" height="1.416" transform="translate(13.296 6.816)"/><path class="bj" d="M1055.2-194.55v0Z" transform="translate(-1041.691 202.782)"/><rect class="aq" width="0.048" height="1.416" transform="translate(9.331 6.816)"/><rect class="ar" width="0.218" height="1.416" transform="translate(9.379 6.816)"/><rect class="as" width="0.218" height="1.416" transform="translate(9.596 6.816)"/><rect class="at" width="0.218" height="1.416" transform="translate(9.814 6.816)"/><rect class="au" width="0.218" height="1.416" transform="translate(10.032 6.816)"/><rect class="av" width="0.208" height="1.416" transform="translate(10.249 6.816)"/><rect class="ac" width="0.112" height="1.416" transform="translate(6.22 6.816)"/><rect class="ad" width="0.218" height="1.416" transform="translate(6.332 6.816)"/><rect class="ae" width="0.218" height="1.416" transform="translate(6.55 6.816)"/><rect class="af" width="0.218" height="1.416" transform="translate(6.767 6.816)"/><rect class="ag" width="0.218" height="1.416" transform="translate(6.985 6.816)"/><rect class="ah" width="0.144" height="1.416" transform="translate(7.203 6.816)"/><rect class="o" width="0.176" height="1.416" transform="translate(3.11 6.816)"/><rect class="p" width="0.218" height="1.416" transform="translate(3.286 6.816)"/><rect class="q" width="0.218" height="1.416" transform="translate(3.503 6.816)"/><rect class="r" width="0.218" height="1.416" transform="translate(3.721 6.816)"/><rect class="s" width="0.218" height="1.416" transform="translate(3.939 6.816)"/><rect class="t" width="0.08" height="1.416" transform="translate(4.156 6.816)"/><path class="bk" d="M978.664-195.966v0Z" transform="translate(-978.664 202.782)"/><rect class="bk" width="0.002" height="1.416" transform="translate(0 6.816)"/><rect class="bl" width="0.002" height="1.416" transform="translate(0.002 6.816)"/><rect class="bm" width="0.002" height="1.416" transform="translate(0.004 6.816)"/><rect class="bn" width="0.002" height="1.416" transform="translate(0.006 6.816)"/><rect class="bo" width="0.002" height="1.416" transform="translate(0.008 6.816)"/><rect class="bp" width="0.002" height="1.416" transform="translate(0.01 6.816)"/><rect class="bq" width="0.002" height="1.416" transform="translate(0.012 6.816)"/><rect class="br" width="0.002" height="1.416" transform="translate(0.014 6.816)"/><rect class="bs" width="0.002" height="1.416" transform="translate(0.016 6.816)"/><rect class="bt" width="0.002" height="1.416" transform="translate(0.018 6.816)"/><rect class="bu" width="0.002" height="1.416" transform="translate(0.02 6.816)"/><rect class="bu" width="0.218" height="1.416" transform="translate(0.022 6.816)"/><rect class="bv" width="0.218" height="1.416" transform="translate(0.239 6.816)"/><rect class="bw" width="0.218" height="1.416" transform="translate(0.457 6.816)"/><rect class="d" width="0.218" height="1.416" transform="translate(0.674 6.816)"/><rect class="e" width="0.218" height="1.416" transform="translate(0.892 6.816)"/><rect class="f" width="0.016" height="1.416" transform="translate(1.11 6.816)"/></g></g><g transform="translate(22.73 6.821)"><g class="bx"><path class="bk" d="M1070.391-195.936v0Z" transform="translate(-1070.391 195.936)"/><rect class="bk" width="0.001" height="1.518" transform="translate(0 0)"/><rect class="bl" width="0.001" height="1.518" transform="translate(0 0)"/><rect class="bm" width="0.001" height="1.518" transform="translate(0.001 0)"/><rect class="bn" width="0.001" height="1.518" transform="translate(0.002 0)"/><rect class="bo" width="0.001" height="1.518" transform="translate(0.002 0)"/><rect class="bp" width="0.001" height="1.518" transform="translate(0.003 0)"/><rect class="bq" width="0.001" height="1.518" transform="translate(0.003 0)"/><rect class="br" width="0.001" height="1.518" transform="translate(0.004 0)"/><rect class="bs" width="0.001" height="1.518" transform="translate(0.004 0)"/><rect class="bt" width="0.001" height="1.518" transform="translate(0.005 0)"/><rect class="bu" width="0.001" height="1.518" transform="translate(0.005 0)"/><rect class="bu" width="0.056" height="1.518" transform="translate(0.006 0)"/><rect class="bv" width="0.056" height="1.518" transform="translate(0.062 0)"/><rect class="bw" width="0.056" height="1.518" transform="translate(0.118 0)"/><rect class="d" width="0.056" height="1.518" transform="translate(0.174 0)"/><rect class="e" width="0.056" height="1.518" transform="translate(0.23 0)"/><rect class="f" width="0.056" height="1.518" transform="translate(0.287 0)"/><rect class="g" width="0.056" height="1.518" transform="translate(0.343 0)"/><rect class="h" width="0.056" height="1.518" transform="translate(0.399 0)"/><rect class="i" width="0.056" height="1.518" transform="translate(0.455 0)"/><rect class="j" width="0.056" height="1.518" transform="translate(0.512 0)"/><rect class="k" width="0.056" height="1.518" transform="translate(0.568 0)"/><rect class="l" width="0.056" height="1.518" transform="translate(0.624 0)"/><rect class="m" width="0.056" height="1.518" transform="translate(0.68 0)"/><rect class="n" width="0.056" height="1.518" transform="translate(0.736 0)"/><rect class="o" width="0.056" height="1.518" transform="translate(0.793 0)"/><rect class="p" width="0.056" height="1.518" transform="translate(0.849 0)"/><rect class="q" width="0.056" height="1.518" transform="translate(0.905 0)"/><rect class="r" width="0.056" height="1.518" transform="translate(0.961 0)"/><rect class="s" width="0.056" height="1.518" transform="translate(1.017 0)"/><rect class="t" width="0.056" height="1.518" transform="translate(1.074 0)"/><rect class="u" width="0.056" height="1.518" transform="translate(1.13 0)"/><rect class="v" width="0.056" height="1.518" transform="translate(1.186 0)"/><rect class="w" width="0.056" height="1.518" transform="translate(1.242 0)"/><rect class="x" width="0.056" height="1.518" transform="translate(1.299 0)"/><rect class="y" width="0.056" height="1.518" transform="translate(1.355 0)"/><rect class="z" width="0.056" height="1.518" transform="translate(1.411 0)"/><rect class="aa" width="0.056" height="1.518" transform="translate(1.467 0)"/><rect class="ab" width="0.056" height="1.518" transform="translate(1.523 0)"/><rect class="ac" width="0.056" height="1.518" transform="translate(1.58 0)"/><rect class="ad" width="0.056" height="1.518" transform="translate(1.636 0)"/><rect class="ae" width="0.056" height="1.518" transform="translate(1.692 0)"/><rect class="af" width="0.056" height="1.518" transform="translate(1.748 0)"/><rect class="ag" width="0.056" height="1.518" transform="translate(1.804 0)"/><rect class="ah" width="0.056" height="1.518" transform="translate(1.861 0)"/><rect class="ai" width="0.056" height="1.518" transform="translate(1.917 0)"/><rect class="aj" width="0.056" height="1.518" transform="translate(1.973 0)"/><rect class="ak" width="0.056" height="1.518" transform="translate(2.029 0)"/><rect class="al" width="0.056" height="1.518" transform="translate(2.086 0)"/><rect class="am" width="0.056" height="1.518" transform="translate(2.142 0)"/><rect class="an" width="0.056" height="1.518" transform="translate(2.198 0)"/><rect class="ao" width="0.056" height="1.518" transform="translate(2.254 0)"/><rect class="ap" width="0.056" height="1.518" transform="translate(2.31 0)"/><rect class="aq" width="0.056" height="1.518" transform="translate(2.367 0)"/><rect class="ar" width="0.056" height="1.518" transform="translate(2.423 0)"/><rect class="as" width="0.056" height="1.518" transform="translate(2.479 0)"/><rect class="at" width="0.056" height="1.518" transform="translate(2.535 0)"/><rect class="au" width="0.056" height="1.518" transform="translate(2.591 0)"/><rect class="av" width="0.056" height="1.518" transform="translate(2.648 0)"/><rect class="aw" width="0.056" height="1.518" transform="translate(2.704 0)"/><rect class="ax" width="0.056" height="1.518" transform="translate(2.76 0)"/><rect class="ay" width="0.056" height="1.518" transform="translate(2.816 0)"/><rect class="az" width="0.056" height="1.518" transform="translate(2.873 0)"/><rect class="ba" width="0.056" height="1.518" transform="translate(2.929 0)"/><rect class="bb" width="0.056" height="1.518" transform="translate(2.985 0)"/><rect class="bc" width="0.056" height="1.518" transform="translate(3.041 0)"/><rect class="bd" width="0.056" height="1.518" transform="translate(3.097 0)"/><rect class="be" width="0.056" height="1.518" transform="translate(3.154 0)"/><rect class="bf" width="0.056" height="1.518" transform="translate(3.21 0)"/><rect class="bg" width="0.056" height="1.518" transform="translate(3.266 0)"/><rect class="bh" width="0.056" height="1.518" transform="translate(3.322 0)"/><rect class="bi" width="0.056" height="1.518" transform="translate(3.378 0)"/><rect class="bj" width="0.056" height="1.518" transform="translate(3.435 0)"/><path class="bj" d="M1090.164-194.418v0Z" transform="translate(-1086.673 195.936)"/></g></g></g><g transform="translate(919.244 -221.596)"><g transform="translate(27.951)"><path class="b" d="M1077.559-156.231l2.426-2.426-2.426-2.426h2.058l2.427,2.426-2.427,2.426Z" transform="translate(-1077.559 161.084)"/><g transform="translate(3.989)"><path class="b" d="M1100.155-156.231l2.426-2.426-2.426-2.426h2.058l2.427,2.426-2.427,2.426Z" transform="translate(-1100.155 161.084)"/></g></g><g transform="translate(3.989)"><path class="b" d="M946.324-156.231l-2.426-2.426,2.426-2.426h-2.058l-2.427,2.426,2.427,2.426Z" transform="translate(-941.839 161.084)"/></g><path class="b" d="M923.728-156.231l-2.426-2.426,2.426-2.426H921.67l-2.427,2.426,2.427,2.426Z" transform="translate(-919.244 161.084)"/></g></g></svg>