<svg xmlns="http://www.w3.org/2000/svg" xmlns:xlink="http://www.w3.org/1999/xlink" width="105.204" height="33.976" viewBox="0 0 105.204 33.976"><defs><style>.a{fill:#fff;}.b{clip-path:url(#a);}</style><clipPath id="a"><path class="a" d="M683.451,247.26,674.6,269.626l-3.58-19.016a3.961,3.961,0,0,0-3.92-3.35H652.639l-.2.955a35.506,35.506,0,0,1,8.386,2.794c1.252.681,1.609,1.272,2.02,2.888l6.778,26.226h8.987l13.773-32.862Zm12.579,0L689,280.122h8.5l7.029-32.862Zm48.739,8.879,2.574,12.338h-7.049Zm-1.247-8.879a3.868,3.868,0,0,0-3.618,2.41l-12.757,30.453h8.927l1.773-4.91h10.906l1.027,4.91h7.862l-6.863-32.862Zm-36.68,10.262c-.054,4.731,4.221,7.371,7.441,8.943,3.313,1.61,4.426,2.644,4.413,4.085-.024,2.2-2.643,3.178-5.091,3.216a17.815,17.815,0,0,1-8.729-2.075l-1.541,7.2a25.714,25.714,0,0,0,9.391,1.746h.261c8.821-.065,14.574-4.461,14.6-11.243.037-8.673-11.993-9.151-11.911-13.025.026-1.18,1.149-2.434,3.606-2.753a16.04,16.04,0,0,1,8.381,1.47l1.493-6.968a22.846,22.846,0,0,0-7.951-1.457c-8.4,0-14.317,4.466-14.367,10.863" transform="translate(-652.438 -246.659)"/></clipPath></defs><g class="b" transform="translate(0)"><rect class="a" width="110.394" height="69.397" transform="translate(-11.36 4.357) rotate(-20.984)"/></g></svg>