<svg xmlns="http://www.w3.org/2000/svg" width="44.046" height="34.145" viewBox="0 0 44.046 34.145"><defs><style>.a{fill:#1a1f71;}</style></defs><g transform="translate(0 -57.547)"><path class="a" d="M334.366,68.087v2.146A10.365,10.365,0,0,1,334,72.961a7.091,7.091,0,0,0,1.6.185,6.937,6.937,0,0,0,6.937-6.93v-1.73a6.936,6.936,0,0,0-12.15-4.576,10.114,10.114,0,0,1,.932.826,10.332,10.332,0,0,1,3.043,7.352" transform="translate(-301.968 0)"/><path class="a" d="M334.5,262.8a4.266,4.266,0,0,0-3.926-3.91c-.012,0-.023,0-.034,0s-5.018,0-8.772,0a10.455,10.455,0,0,1-3.96,4.274c2.669,0,2.691,0,2.749.005l.052,0h.008a7.041,7.041,0,0,1,4.462,2.048,7.119,7.119,0,0,1,1.561,2.347h7.873v-4.738Z" transform="translate(-290.47 -184.017)"/><path class="a" d="M13.9,263.168h.008c.017,0,.033,0,.052,0,.055,0,.077-.006,2.694-.006a10.547,10.547,0,0,1-2-1.566,10.361,10.361,0,0,1-1.955-2.708c-3.748,0-8.7,0-8.724,0a.3.3,0,0,0-.034,0A4.268,4.268,0,0,0,.012,262.8L0,262.825v4.738H7.873a7.118,7.118,0,0,1,1.561-2.347,7.041,7.041,0,0,1,4.463-2.048" transform="translate(0 -184.018)"/><path class="a" d="M46.924,73.145a7,7,0,0,0,1.6-.183,10.428,10.428,0,0,1-.364-2.738V68.078A10.325,10.325,0,0,1,51.2,60.732a10.8,10.8,0,0,1,.933-.827A6.936,6.936,0,0,0,39.989,64.48v1.732a6.931,6.931,0,0,0,6.935,6.934" transform="translate(-36.549 0)"/><path class="a" d="M164.717,81.621a7.176,7.176,0,0,1,7.178,7.178v2.146a7.352,7.352,0,0,1-.211,1.737,7.2,7.2,0,0,1-5.894,5.354,7.492,7.492,0,0,1-1.073.079,7,7,0,0,1-1.036-.076,7.172,7.172,0,0,1-5.006-3.224,7.028,7.028,0,0,1-.922-2.125,7.358,7.358,0,0,1-.216-1.754V88.791a7.182,7.182,0,0,1,7.181-7.17m0-1.412a8.59,8.59,0,0,0-8.593,8.582v2.145a8.721,8.721,0,0,0,.258,2.093,8.453,8.453,0,0,0,1.1,2.551,8.6,8.6,0,0,0,7.231,3.946,8.823,8.823,0,0,0,1.274-.094,8.582,8.582,0,0,0,7.316-8.488V88.8a8.587,8.587,0,0,0-8.59-8.59" transform="translate(-142.693 -20.712)"/><path class="a" d="M127.229,330.994a3.852,3.852,0,0,1,2.988,1.9,3.812,3.812,0,0,1,.52,1.644l.012.1v4.276H107.836v-4.265l.007-.108a3.889,3.889,0,0,1,3.512-3.546h15.874m.055-1.412H111.3a5.292,5.292,0,0,0-4.863,4.844l-.012.03v5.868h25.737v-5.868l-.017-.03a5.291,5.291,0,0,0-4.86-4.844" transform="translate(-97.269 -248.633)"/></g></svg>