<?xml version="1.0" encoding="utf-8"?>
<!-- Generator: Adobe Illustrator 19.2.1, SVG Export Plug-In . SVG Version: 6.00 Build 0)  -->
<svg version="1.1" id="Capa_1" xmlns="http://www.w3.org/2000/svg" xmlns:xlink="http://www.w3.org/1999/xlink" x="0px" y="0px"
	 viewBox="0 0 512 512" style="enable-background:new 0 0 512 512;" xml:space="preserve">
<style type="text/css">
	.st0{fill:#FFFFFF;}
</style>
<g>
	<g>
		<path class="st0" d="M510.6,251.6c-1.2-1.6-28.9-39.2-74-77.5c-26.6-22.5-53.7-40.5-80.6-53.4c-33.9-16.3-67.5-24.5-100-24.5
			s-66.1,8.3-100,24.5c-26.9,12.9-54,30.9-80.6,53.4c-45.1,38.2-72.8,75.9-74,77.5c-1.9,2.6-1.9,6.2,0,8.9
			c1.2,1.6,28.9,39.2,74,77.5c26.6,22.5,53.7,40.5,80.6,53.4c33.9,16.3,67.5,24.5,100,24.5s66.1-8.3,100-24.5
			c26.9-12.9,54-30.9,80.6-53.4c45.1-38.2,72.8-75.9,74-77.5C512.5,257.8,512.5,254.2,510.6,251.6z M426.9,326.4
			c-40.1,33.9-102.2,74.4-170.9,74.4c-68.5,0-130.6-40.3-170.6-74.1C50.4,297,25.6,267,17,256c8.6-11,33.2-40.8,68.2-70.4
			c40.1-33.9,102.2-74.4,170.9-74.4c68.5,0,130.6,40.3,170.6,74.1c35,29.6,59.8,59.6,68.4,70.6C486.4,267,461.8,296.8,426.9,326.4z"
			/>
	</g>
</g>
<g>
	<g>
		<path class="st0" d="M342.6,173.3c-2.9-3-7.6-3.1-10.6-0.2c-3,2.9-3.1,7.6-0.2,10.6c18.7,19.6,29,45.2,29,72.3
			c0,57.7-47,104.7-104.7,104.7s-104.7-47-104.7-104.7c0-57.7,47-104.7,104.7-104.7c18.8,0,37.2,5,53.3,14.6
			c3.6,2.1,8.2,0.9,10.3-2.6c2.1-3.6,0.9-8.2-2.6-10.3c-18.4-10.9-39.5-16.7-61-16.7c-66,0-119.7,53.7-119.7,119.7
			S190,375.7,256,375.7S375.7,322,375.7,256C375.7,225.1,364,195.7,342.6,173.3z"/>
	</g>
</g>
<g>
	<g>
		<path class="st0" d="M330.2,224.9c-5.6-12.9-18-21.3-32.4-21.9c-15.6-0.7-30.4,7.6-41.8,22.9c-11.4-15.4-26.1-23.6-41.8-22.9
			c-14.4,0.6-26.8,9-32.4,21.9c-6.9,15.9-2.4,34.8,12.4,52c28.4,33.2,57,49.1,58.2,49.8c2.2,1.2,5,1.2,7.3,0
			c1.2-0.7,29.7-16.6,58.2-49.8C332.6,259.7,337.1,240.8,330.2,224.9z M306.4,267.1c-20.9,24.3-42.1,39-50.4,44.2
			c-8.3-5.2-29.5-19.9-50.4-44.2c-10.9-12.7-14.5-25.9-10-36.3c3.3-7.6,10.7-12.5,19.2-12.9c0.4,0,0.7,0,1.1,0
			c12.5,0,24.7,9.3,33.5,25.6c2.8,5.2,10.4,5.2,13.2,0c9-16.8,21.7-26.1,34.5-25.5c8.6,0.4,15.9,5.3,19.2,12.9
			C320.9,241.3,317.3,254.5,306.4,267.1z"/>
	</g>
</g>
<g>
	<g>
		<path class="st0" d="M256,448.9c-4.2,0-7.5,3.4-7.5,7.5v24c0,4.1,3.4,7.5,7.5,7.5s7.5-3.4,7.5-7.5v-24
			C263.5,452.2,260.2,448.9,256,448.9z"/>
	</g>
</g>
<g>
	<g>
		<path class="st0" d="M256,24c-4.2,0-7.5,3.4-7.5,7.5v24c0,4.2,3.4,7.5,7.5,7.5c4.2,0,7.5-3.4,7.5-7.5v-24
			C263.5,27.4,260.2,24,256,24z"/>
	</g>
</g>
<g>
	<g>
		<path class="st0" d="M162.3,78.7l-12-20.8c-2.1-3.6-6.7-4.8-10.3-2.8c-3.6,2.1-4.8,6.7-2.8,10.3l12,20.8c2.2,3.8,7.4,4.9,11,2.3
			C163.3,86.3,164.2,82,162.3,78.7z"/>
	</g>
</g>
<g>
	<g>
		<path class="st0" d="M159.6,423c-3.6-2.1-8.2-0.8-10.3,2.8l-12,20.8c-1.9,3.3-1,7.6,2,9.8c3.6,2.6,8.8,1.5,11-2.3l12-20.8
			C164.4,429.7,163.2,425.1,159.6,423z"/>
	</g>
</g>
<g>
	<g>
		<path class="st0" d="M374.7,446.6l-12-20.8c-2.1-3.6-6.7-4.8-10.3-2.8c-3.6,2.1-4.8,6.7-2.8,10.3l12,20.8c2.2,3.8,7.4,4.9,11,2.3
			C375.7,454.2,376.6,449.9,374.7,446.6z"/>
	</g>
</g>
<g>
	<g>
		<path class="st0" d="M372,55.1c-3.6-2.1-8.2-0.8-10.3,2.8l-12,20.8c-2.1,3.6-0.8,8.2,2.8,10.3c3.5,2.1,8.2,0.8,10.3-2.8l12-20.8
			C376.8,61.8,375.6,57.2,372,55.1z"/>
	</g>
</g>
</svg>
