<svg xmlns="http://www.w3.org/2000/svg" xmlns:xlink="http://www.w3.org/1999/xlink" width="110.614" height="86.314" viewBox="0 0 110.614 86.314"><defs><style>.a{fill:url(#a);}</style><linearGradient id="a" x1="0.5" x2="0.5" y2="1" gradientUnits="objectBoundingBox"><stop offset="0" stop-color="#030406"/><stop offset="0.146" stop-color="#0b0e1b"/><stop offset="0.39" stop-color="#171d39"/><stop offset="0.599" stop-color="#1e264c"/><stop offset="0.747" stop-color="#212a53"/><stop offset="1" stop-color="#223c71"/></linearGradient></defs><path class="a" d="M135.233,95.761l-9.083-50.1a5.444,5.444,0,0,0-6.373-4.395L39.2,55.913a5.392,5.392,0,0,0-4.395,6.373l.586,3.3h-5.2A5.534,5.534,0,0,0,24.7,71.076v50.908a5.534,5.534,0,0,0,5.494,5.494h81.892a5.534,5.534,0,0,0,5.494-5.494V104.551l13.258-2.417A5.577,5.577,0,0,0,135.233,95.761Zm-22.854,26.223a.346.346,0,0,1-.366.366H30.12a.346.346,0,0,1-.366-.366V71a.346.346,0,0,1,.366-.366h81.892a.346.346,0,0,1,.366.366Zm17.507-24.9L117.507,99.35V71a5.534,5.534,0,0,0-5.494-5.494H40.522l-.732-4.248c0-.146,0-.22.073-.293s.146-.146.22-.146l80.647-14.65a.374.374,0,0,1,.366.293l9.083,50.1C130.179,96.859,130.105,97.079,129.886,97.079Z" transform="translate(-24.7 -41.163)"/><path class="a" d="M79.756,104.3,75.8,122.539h4.761L84.443,104.3Z" transform="translate(-38.37 -58.053)"/><path class="a" d="M65.287,104.3l-4.908,12.452L58.4,106.2a2.19,2.19,0,0,0-2.2-1.831H48.146l-.146.513a21.991,21.991,0,0,1,4.688,1.538c.732.366.879.732,1.1,1.611l3.736,14.577H62.5L70.194,104.3Z" transform="translate(-30.933 -58.053)"/><path class="a" d="M113.883,104.273a2.078,2.078,0,0,0-1.978,1.318L104.8,122.512h4.981l.952-2.71h6.08l.586,2.71h4.395L117.985,104.2h-4.1Zm-1.758,11.793,2.49-6.885,1.465,6.885Z" transform="translate(-46.128 -58.026)"/><path class="a" d="M93.585,109.22c0-.659.659-1.318,1.978-1.538a9.41,9.41,0,0,1,4.688.806l.806-3.882a12.387,12.387,0,0,0-4.395-.806c-4.688,0-7.984,2.49-7.984,6.08,0,2.637,2.344,4.1,4.175,4.981s2.49,1.465,2.417,2.271c0,1.245-1.465,1.758-2.857,1.758a9.48,9.48,0,0,1-4.834-1.172l-.879,4.029a13.843,13.843,0,0,0,5.274.952c4.981,0,8.2-2.49,8.2-6.226C100.251,111.638,93.512,111.345,93.585,109.22Z" transform="translate(-41.286 -57.919)"/></svg>